<svg width="24" height="24" viewBox="0 0 24 24" fill="none" xmlns="http://www.w3.org/2000/svg">
<path fill-rule="evenodd" clip-rule="evenodd" d="M12 0C5.37258 0 0 5.37258 0 12C0 18.6274 5.37258 24 12 24C18.6274 24 24 18.6274 24 12C24 5.37258 18.6274 0 12 0ZM7.45257 5.2H16.9474C17.7481 5.2 18.4 5.844 18.4 6.642V19.2L16.8766 17.87L16.0192 17.086L15.1122 16.253L15.4878 17.548H7.45257C6.65189 17.548 6 16.904 6 16.106V6.642C6 5.844 6.65189 5.2 7.45257 5.2Z" fill="#332B29"/>
<path fill-rule="evenodd" clip-rule="evenodd" d="M14.2123 14.342C14.2123 14.342 13.9572 14.041 13.7447 13.775C14.6729 13.516 15.0272 12.942 15.0272 12.942C14.7367 13.131 14.4603 13.264 14.2123 13.355C13.858 13.502 13.5179 13.6 13.1849 13.656C12.5047 13.782 11.8811 13.747 11.3497 13.649C10.9458 13.572 10.5986 13.46 10.3081 13.348C10.1451 13.285 9.96797 13.208 9.79083 13.11C9.7802 13.103 9.76957 13.0977 9.75895 13.0925C9.74832 13.0872 9.73769 13.082 9.72706 13.075C9.71289 13.068 9.7058 13.061 9.69872 13.054C9.57117 12.984 9.50032 12.935 9.50032 12.935C9.50032 12.935 9.84043 13.495 10.7403 13.761C10.5277 14.027 10.2656 14.342 10.2656 14.342C8.69963 14.293 8.10443 13.278 8.10443 13.278C8.10443 11.024 9.12477 9.197 9.12477 9.197C10.1451 8.441 11.1159 8.462 11.1159 8.462L11.1867 8.546C9.91129 8.91 9.32317 9.463 9.32317 9.463C9.32317 9.463 9.47906 9.379 9.74123 9.26C10.4994 8.931 11.1017 8.84 11.3497 8.819L11.3656 8.81635C11.4013 8.81033 11.433 8.805 11.4701 8.805C11.9024 8.749 12.3913 8.735 12.9015 8.791C13.5746 8.868 14.2973 9.064 15.0343 9.463C15.0343 9.463 14.4745 8.938 13.2699 8.574L13.3691 8.462C13.3691 8.462 14.3399 8.441 15.3602 9.197C15.3602 9.197 16.3805 11.024 16.3805 13.278C16.3805 13.278 15.7783 14.293 14.2123 14.342ZM11.117 11.2C10.7163 11.2 10.4 11.5604 10.4 12C10.4 12.4396 10.7233 12.8 11.117 12.8C11.5177 12.8 11.8341 12.4396 11.8341 12C11.8411 11.5604 11.5177 11.2 11.117 11.2ZM12.9659 12C12.9659 11.5604 13.2822 11.2 13.6829 11.2C14.0836 11.2 14.4 11.5604 14.4 12C14.4 12.4396 14.0836 12.8 13.6829 12.8C13.2893 12.8 12.9659 12.4396 12.9659 12Z" fill="#332B29"/>
</svg>
