<svg width="24" height="24" viewBox="0 0 24 24" fill="none" xmlns="http://www.w3.org/2000/svg">
<path fill-rule="evenodd" clip-rule="evenodd" d="M24 12C24 18.6274 18.6274 24 12 24C5.37258 24 0 18.6274 0 12C0 5.37258 5.37258 0 12 0C18.6274 0 24 5.37258 24 12ZM8.03575 10.9008C6.83367 11.4256 5.59854 11.9649 4.46913 12.587L4.46905 12.5871C3.8793 13.0189 4.66319 13.3243 5.39853 13.6107C5.51543 13.6563 5.63111 13.7014 5.73985 13.7464C5.83033 13.7742 5.92235 13.8035 6.01559 13.8332C6.83343 14.0938 7.74537 14.3843 8.53935 13.9472C9.84363 13.198 11.0745 12.3318 12.3044 11.4662C12.7074 11.1827 13.1102 10.8991 13.5155 10.6198C13.5345 10.6077 13.556 10.5938 13.5794 10.5786C13.9247 10.3548 14.7012 9.85146 14.414 10.545C13.7347 11.2878 13.0072 11.9454 12.2757 12.6065C11.7828 13.052 11.288 13.4992 10.805 13.9752C10.3843 14.317 9.94747 15.0044 10.4185 15.483C11.5034 16.2426 12.6053 16.9837 13.7066 17.7243C14.065 17.9654 14.4233 18.2064 14.7809 18.4479C15.387 18.9318 16.3343 18.5404 16.4675 17.7842C16.5268 17.4364 16.5863 17.0886 16.6458 16.7408C16.9745 14.8184 17.3035 12.8954 17.594 10.9667C17.6335 10.6642 17.6783 10.3617 17.7231 10.059C17.8316 9.32549 17.9403 8.59104 17.9742 7.85354C17.8867 7.11757 16.9944 7.27939 16.4977 7.44488C13.9451 8.41618 11.418 9.45948 8.90093 10.5212C8.61578 10.6475 8.32674 10.7737 8.03575 10.9008Z" fill="#332B29"/>
</svg>
