<svg xmlns="http://www.w3.org/2000/svg" width="32" height="34" viewBox="0 0 32 34" fill="none">
<path d="M8.20288 13.0947C7.51392 12.6957 7.27788 11.8117 7.67564 11.1205C8.0734 10.4292 8.95444 10.1924 9.6434 10.5915C9.6434 10.5915 12.9359 13.0947 15.5985 13.0947C18.261 13.0947 21.4524 10.5915 21.4524 10.5915C22.1413 10.1924 23.0224 10.4292 23.4201 11.1205C23.8179 11.8117 23.5819 12.6956 22.8929 13.0947C22.8929 13.0947 17.039 15.4089 17.039 18.7812C17.039 24.0877 17.039 31.7884 17.039 31.7884C17.039 32.5866 16.3941 33.2336 15.5985 33.2336C14.8029 33.2336 14.158 32.5866 14.158 31.7884C14.158 31.7884 14.158 24.6313 14.158 18.7812C14.158 15.4089 8.20288 13.0947 8.20288 13.0947Z" fill="#332B29"/>
<path d="M18.915 3.74121C18.915 5.63151 17.4036 7.1566 15.5482 7.1566C13.6927 7.1566 12.1813 5.63151 12.1813 3.74121C12.1813 1.85091 13.6927 0.32582 15.5482 0.32582C17.4036 0.32582 18.915 1.85091 18.915 3.74121Z" fill="#007D98" stroke="#332B29" stroke-width="0.651639"/>
<circle cx="27.3549" cy="8.01691" r="3.41539" fill="#FF6656" stroke="#332B29" stroke-width="0.651639"/>
<circle cx="3.74121" cy="8.01691" r="3.41539" fill="#A1FD59" stroke="#332B29" stroke-width="0.651639"/>
</svg>