<?xml version="1.0" encoding="UTF-8" standalone="no"?>
<svg
   width="467"
   height="492.10541"
   viewBox="0 0 467 492.10541"
   fill="none"
   version="1.1"
   id="svg23"
   sodipodi:docname="construction.svg"
   inkscape:version="1.3.2 (091e20ef0f, 2023-11-25)"
   xmlns:inkscape="http://www.inkscape.org/namespaces/inkscape"
   xmlns:sodipodi="http://sodipodi.sourceforge.net/DTD/sodipodi-0.dtd"
   xmlns="http://www.w3.org/2000/svg"
   xmlns:svg="http://www.w3.org/2000/svg">
  <defs
     id="defs23" />
  <sodipodi:namedview
     id="namedview23"
     pagecolor="#ffffff"
     bordercolor="#000000"
     borderopacity="0.25"
     inkscape:showpageshadow="2"
     inkscape:pageopacity="0.0"
     inkscape:pagecheckerboard="0"
     inkscape:deskcolor="#d1d1d1"
     inkscape:clip-to-page="false"
     inkscape:zoom="1.6728307"
     inkscape:cx="233.43665"
     inkscape:cy="255.25595"
     inkscape:window-width="2560"
     inkscape:window-height="1376"
     inkscape:window-x="0"
     inkscape:window-y="27"
     inkscape:window-maximized="1"
     inkscape:current-layer="svg23" />
  <g
     opacity="0.2"
     id="g18"
     transform="translate(1.0886107e-6,-0.49859944)">
    <path
       d="M 411.071,492.604 V 8.21691"
       stroke="#332b29"
       id="path1" />
    <path
       d="M 362.841,492.604 V 8.21691"
       stroke="#332b29"
       id="path2" />
    <path
       d="M 314.61,492.604 V 8.21691"
       stroke="#332b29"
       id="path3" />
    <path
       d="M 266.38,492.604 V 8.21694"
       stroke="#332b29"
       id="path4" />
    <path
       d="M 217.48,492.604 V 8.21694"
       stroke="#332b29"
       id="path5" />
    <path
       d="M 169.25,492.604 V 8.21694"
       stroke="#332b29"
       id="path6" />
    <path
       d="M 121.019,492.604 V 8.21694"
       stroke="#332b29"
       id="path7" />
    <path
       d="M 72.7888,492.604 V 8.21694"
       stroke="#332b29"
       id="path8" />
    <path
       d="M 24.5585,492.604 V 8.21696"
       stroke="#332b29"
       id="path9" />
    <path
       d="M 0,444.232 H 459.301"
       stroke="#332b29"
       id="path10"
       sodipodi:nodetypes="cc" />
    <path
       d="M 0,395.861 H 459.301"
       stroke="#332b29"
       id="path11"
       sodipodi:nodetypes="cc" />
    <path
       d="M 0,347.489 H 459.301"
       stroke="#332b29"
       id="path12"
       sodipodi:nodetypes="cc" />
    <path
       d="M 0,299.118 H 459.301"
       stroke="#332b29"
       id="path13"
       sodipodi:nodetypes="cc" />
    <path
       d="M 0,250.074 H 459.301"
       stroke="#332b29"
       id="path14"
       sodipodi:nodetypes="cc" />
    <path
       d="M 0,201.703 H 459.301"
       stroke="#332b29"
       id="path15"
       sodipodi:nodetypes="cc" />
    <path
       d="m 0,153.332 459.301,-0.001"
       stroke="#332b29"
       id="path16"
       sodipodi:nodetypes="cc" />
    <path
       d="M 0,104.96 H 459.301"
       stroke="#332b29"
       id="path17"
       sodipodi:nodetypes="cc" />
    <path
       d="m 0,56.5885 459.301,-1e-4"
       stroke="#332b29"
       id="path18"
       sodipodi:nodetypes="cc" />
  </g>
  <path
     d="m 25.090901,342.0644 c 0,-52.607 42.7329,-95.257 95.452099,-95.257 52.719,0 95.452,42.65 95.452,95.257 0,52.606 -42.733,95.256 -95.452,95.256 -52.719099,0 -95.452099,-42.65 -95.452099,-95.256 z"
     fill="#ff6656"
     stroke="#332b29"
     stroke-width="2.40736"
     stroke-linecap="round"
     id="path19" />
  <path
     d="m 25.372601,101.9784 c -10e-5,-52.614399 42.733,-95.2703194 95.451399,-95.2703294 52.719,0 95.452,42.6559304 95.452,95.2703294 0,52.614 -42.733,95.269 -95.452,95.269 -52.718299,0 -95.451399,-42.655 -95.451399,-95.269 z"
     fill="#a1fd59"
     stroke="#332b29"
     stroke-width="2.40736"
     stroke-linecap="round"
     id="path20" />
  <path
     d="m 267.168,341.7894 c 0,-52.613 42.739,-95.269 95.465,-95.269 52.726,0 95.465,42.656 95.465,95.269 0,52.614 -42.739,95.27 -95.465,95.27 -52.726,0 -95.465,-42.656 -95.465,-95.27 z"
     fill="#007d98"
     stroke="#332b29"
     stroke-width="2.40736"
     stroke-linecap="round"
     id="path21" />
  <path
     style="opacity:0.5;stroke:#332b29;stroke-width:2"
     d="M 1.0886107e-6,6.8864104 H 460.13098 V 492.105"
     id="path23"
     sodipodi:nodetypes="ccc" />
  <rect
     x="-466"
     y="-13.0929"
     width="12.0576"
     height="12.0929"
     transform="scale(-1)"
     fill="#332b29"
     stroke="#332b29"
     stroke-width="2"
     id="rect23" />
</svg>
