<svg width="580" height="546" viewBox="0 0 580 546" fill="none" xmlns="http://www.w3.org/2000/svg">
<circle cx="266" cy="269" r="266" fill="#007D98" fill-opacity="0.1"/>
<circle cx="266" cy="269" r="265.5" stroke="#003944" stroke-opacity="0.3" stroke-dasharray="6 6"/>
<circle cx="266" cy="269" r="208" fill="#007D98" fill-opacity="0.1"/>
<circle cx="266" cy="269" r="207.5" stroke="#003944" stroke-opacity="0.4" stroke-dasharray="6 6"/>
<circle cx="266" cy="269" r="161" fill="#007D98" fill-opacity="0.1"/>
<circle cx="266" cy="269" r="160.5" stroke="#003944" stroke-opacity="0.6" stroke-dasharray="6 6"/>
<circle cx="266" cy="269" r="120" fill="#007D98" fill-opacity="0.2"/>
<circle cx="266" cy="269" r="119.5" stroke="#003944" stroke-opacity="0.6" stroke-dasharray="6 6"/>
<circle cx="266" cy="269" r="84" fill="#003944"/>
<path d="M243.06 267.052C240.955 265.829 240.234 263.121 241.449 261.003C242.665 258.885 245.356 258.16 247.461 259.382C247.461 259.382 257.52 267.052 265.654 267.052C273.788 267.052 283.538 259.382 283.538 259.382C285.643 258.16 288.335 258.885 289.55 261.003C290.765 263.121 290.044 265.829 287.939 267.052C287.939 267.052 270.055 274.143 270.055 284.475C270.055 300.734 270.055 324.329 270.055 324.329C270.055 326.775 268.085 328.758 265.654 328.758C263.224 328.758 261.253 326.775 261.253 324.329C261.253 324.329 261.253 302.4 261.253 284.475C261.253 274.143 243.06 267.052 243.06 267.052Z" fill="#F5F1EB"/>
<path d="M275.786 238.393C275.786 244.189 271.166 248.86 265.5 248.86C259.835 248.86 255.215 244.189 255.215 238.393C255.215 232.597 259.835 227.925 265.5 227.925C271.166 227.925 275.786 232.597 275.786 238.393Z" fill="#007D98" stroke="#F5F1EB" stroke-width="1.99079"/>
<path d="M312.005 251.493C312.005 257.277 307.33 261.961 301.57 261.961C295.811 261.961 291.136 257.277 291.136 251.493C291.136 245.709 295.811 241.026 301.57 241.026C307.33 241.026 312.005 245.709 312.005 251.493Z" fill="#FF6656" stroke="#F5F1EB" stroke-width="1.99079"/>
<path d="M239.864 251.493C239.864 257.277 235.189 261.961 229.43 261.961C223.67 261.961 218.995 257.277 218.995 251.493C218.995 245.709 223.67 241.026 229.43 241.026C235.189 241.026 239.864 245.709 239.864 251.493Z" fill="#A1FD59" stroke="#F5F1EB" stroke-width="1.99079"/>
<circle cx="334.5" cy="124.5" r="5.5" fill="#007D98"/>
<circle cx="217.5" cy="8.5" r="5.5" fill="#007D98"/>
<circle cx="349.5" cy="460.5" r="5.5" fill="#007D98"/>
<circle cx="513.5" cy="364.5" r="5.5" fill="#007D98"/>
<circle cx="77.5" cy="358.5" r="5.5" fill="#007D98"/>
<g filter="url(#filter0_d_2310_53)">
<circle cx="120" cy="79" r="70" fill="white"/>
<circle cx="120" cy="79" r="69.5" stroke="#6D655D" stroke-dasharray="3 3"/>
</g>
<path d="M108.914 67.666H107.878V62.4611C107.878 62.0163 107.516 61.6534 107.071 61.6534H103.66C103.215 61.6534 102.853 62.0163 102.853 62.4611V67.666H101.817C101.097 67.666 100.664 68.4617 101.05 69.0702L104.596 74.5817C104.953 75.1433 105.766 75.1433 106.129 74.5817L109.675 69.0702C110.067 68.4617 109.634 67.666 108.914 67.666Z" fill="#332B29"/>
<path d="M105.361 75.5877C105.358 75.5877 105.356 75.5877 105.354 75.5877C104.844 75.5854 104.376 75.326 104.103 74.8942L100.558 69.3867C100.263 68.9206 100.244 68.3346 100.508 67.8548C100.775 67.3704 101.264 67.0814 101.817 67.0814H102.267V62.4615C102.267 61.6939 102.892 61.069 103.66 61.069H107.071C107.839 61.069 108.463 61.6939 108.463 62.4615V67.0814H108.914C109.46 67.0814 109.962 67.3796 110.223 67.8582C110.486 68.3392 110.464 68.9241 110.167 69.3867L106.622 74.8976C106.342 75.3306 105.871 75.5877 105.361 75.5877ZM101.817 68.2512C101.645 68.2512 101.561 68.3689 101.533 68.4191C101.505 68.4705 101.449 68.6065 101.544 68.7573L105.089 74.2648C105.173 74.3996 105.301 74.3973 105.361 74.4178C105.414 74.4178 105.548 74.403 105.638 74.2636L109.182 68.7539C109.279 68.6042 109.224 68.4694 109.197 68.418C109.169 68.3677 109.086 68.2512 108.914 68.2512H107.879C107.555 68.2512 107.294 67.9896 107.294 67.6663V62.4615C107.294 62.3382 107.194 62.2388 107.071 62.2388H103.66C103.536 62.2388 103.437 62.3382 103.437 62.4615V67.6663C103.437 67.9896 103.175 68.2512 102.852 68.2512H101.817Z" fill="#332B29"/>
<path d="M140.51 71.2992H139.474V66.0943C139.474 65.6494 139.112 65.2866 138.667 65.2866H135.256C134.811 65.2866 134.448 65.6494 134.448 66.0943V71.2992H133.413C132.693 71.2992 132.26 72.0948 132.646 72.7034L136.192 78.2148C136.549 78.7765 137.362 78.7765 137.725 78.2148L141.271 72.7034C141.663 72.0948 141.23 71.2992 140.51 71.2992Z" fill="#332B29"/>
<path d="M136.957 79.2205C136.955 79.2205 136.954 79.2205 136.952 79.2205C136.442 79.2193 135.973 78.9611 135.698 78.5293L132.154 73.0196C131.86 72.5546 131.84 71.9686 132.104 71.4887C132.37 71.0032 132.86 70.7142 133.413 70.7142H133.863V66.0944C133.863 65.3267 134.488 64.7018 135.256 64.7018H138.667C139.435 64.7018 140.059 65.3267 140.059 66.0944V70.7142H140.51C141.056 70.7142 141.559 71.0124 141.82 71.4922C142.082 71.9731 142.06 72.558 141.762 73.0196L138.217 78.5316C137.937 78.9634 137.467 79.2205 136.957 79.2205ZM133.413 71.884C133.241 71.884 133.157 72.0017 133.13 72.0519C133.101 72.1034 133.046 72.2404 133.14 72.389L136.684 77.8987C136.767 78.0312 136.89 78.0507 136.956 78.0507C137.011 78.0507 137.144 78.0358 137.234 77.8976L140.778 72.3867C140.875 72.237 140.821 72.1022 140.793 72.0519C140.766 72.0017 140.682 71.884 140.51 71.884H139.474C139.15 71.884 138.889 71.6224 138.889 71.2991V66.0944C138.889 65.9733 138.787 65.8716 138.667 65.8716H135.256C135.135 65.8716 135.033 65.9733 135.033 66.0944V71.2991C135.033 71.6224 134.772 71.884 134.448 71.884H133.413Z" fill="#332B29"/>
<path d="M124.547 64.0026H123.511V58.7976C123.511 58.3528 123.148 57.99 122.704 57.99H119.293C118.848 57.99 118.485 58.3528 118.485 58.7976V64.0026H117.45C116.73 64.0026 116.297 64.7982 116.683 65.4067L120.229 70.9182C120.586 71.4799 121.399 71.4799 121.762 70.9182L125.307 65.4067C125.699 64.7982 125.266 64.0026 124.547 64.0026Z" fill="#332B29"/>
<path d="M120.993 71.924C120.991 71.924 120.989 71.924 120.986 71.924C120.477 71.9217 120.01 71.6635 119.735 71.2328L116.191 65.723C115.896 65.2569 115.876 64.6709 116.14 64.1911C116.408 63.7067 116.897 63.4177 117.45 63.4177H117.901V58.7979C117.901 58.0302 118.525 57.4053 119.292 57.4053H122.703C123.471 57.4053 124.096 58.0302 124.096 58.7979V63.4177H124.547C125.093 63.4177 125.596 63.7159 125.856 64.1957C126.119 64.6766 126.096 65.2615 125.798 65.7242L122.254 71.2351C121.973 71.6681 121.503 71.924 120.993 71.924ZM117.45 64.5875C117.277 64.5875 117.194 64.7052 117.165 64.7554C117.138 64.8068 117.082 64.9428 117.177 65.0936L120.721 70.6022C120.807 70.737 120.893 70.745 120.993 70.7541C121.048 70.7541 121.182 70.7393 121.271 70.6011L124.815 65.0902C124.912 64.9405 124.858 64.8057 124.829 64.7554C124.802 64.704 124.72 64.5875 124.547 64.5875H123.511C123.188 64.5875 122.926 64.3259 122.926 64.0026V58.7979C122.926 58.6745 122.827 58.5751 122.703 58.5751H119.292C119.17 58.5751 119.071 58.6745 119.071 58.7979V64.0026C119.071 64.3259 118.809 64.5875 118.486 64.5875H117.45Z" fill="#332B29"/>
<path d="M106.59 67.666H105.554V62.4611C105.554 62.0163 105.191 61.6534 104.747 61.6534H101.336C100.891 61.6534 100.528 62.0163 100.528 62.4611V67.666H99.4926C98.7729 67.666 98.34 68.4617 98.7261 69.0702L102.272 74.5817C102.629 75.1433 103.442 75.1433 103.805 74.5817L107.35 69.0702C107.742 68.4617 107.309 67.666 106.59 67.666Z" fill="#F5F1EB"/>
<path d="M103.036 75.5877C103.034 75.5877 103.031 75.5877 103.029 75.5877C102.52 75.5854 102.051 75.326 101.778 74.8942L98.2333 69.3867C97.9386 68.9206 97.9192 68.3346 98.1831 67.8548C98.4504 67.3704 98.9393 67.0814 99.4923 67.0814H99.9435V62.4615C99.9435 61.6939 100.568 61.069 101.336 61.069H104.746C105.514 61.069 106.139 61.6939 106.139 62.4615V67.0814H106.59C107.136 67.0814 107.639 67.3796 107.899 67.8582C108.162 68.3392 108.14 68.9241 107.843 69.3867L104.297 74.8976C104.017 75.3306 103.547 75.5877 103.036 75.5877ZM99.4923 68.2512C99.3198 68.2512 99.2364 68.3689 99.2078 68.4191C99.1804 68.4705 99.1244 68.6065 99.2192 68.7573L102.764 74.2648C102.849 74.3996 102.957 74.3973 103.036 74.4178C103.09 74.4178 103.223 74.403 103.314 74.2636L106.858 68.7539C106.956 68.6042 106.901 68.4694 106.873 68.418C106.846 68.3677 106.762 68.2512 106.59 68.2512H105.554C105.231 68.2512 104.969 67.9896 104.969 67.6663V62.4615C104.969 62.3382 104.87 62.2388 104.746 62.2388H101.336C101.213 62.2388 101.113 62.3382 101.113 62.4615V67.6663C101.113 67.9896 100.852 68.2512 100.528 68.2512H99.4923Z" fill="#332B29"/>
<path d="M138.186 71.2992H137.15V66.0943C137.15 65.6494 136.787 65.2866 136.343 65.2866H132.931C132.487 65.2866 132.124 65.6494 132.124 66.0943V71.2992H131.088C130.369 71.2992 129.936 72.0948 130.322 72.7034L133.868 78.2148C134.224 78.7765 135.038 78.7765 135.401 78.2148L138.946 72.7034C139.338 72.0948 138.905 71.2992 138.186 71.2992Z" fill="#F5F1EB"/>
<path d="M134.632 79.2205C134.63 79.2205 134.628 79.2205 134.625 79.2205C134.116 79.2182 133.649 78.96 133.375 78.5293L129.83 73.0196C129.535 72.5546 129.516 71.9686 129.779 71.4887C130.046 71.0032 130.536 70.7142 131.089 70.7142H131.539V66.0944C131.539 65.3267 132.164 64.7018 132.931 64.7018H136.342C137.11 64.7018 137.735 65.3267 137.735 66.0944V70.7142H138.185C138.731 70.7142 139.234 71.0124 139.495 71.4922C139.757 71.9731 139.735 72.558 139.437 73.0196L135.893 78.5316C135.612 78.9646 135.142 79.2205 134.632 79.2205ZM131.089 71.884C130.916 71.884 130.833 72.0017 130.805 72.0519C130.777 72.1034 130.721 72.2404 130.816 72.389L134.36 77.8987C134.445 78.0335 134.542 78.0335 134.632 78.0507C134.687 78.0507 134.821 78.0358 134.91 77.8976L138.454 72.3867C138.551 72.237 138.496 72.1022 138.468 72.0519C138.441 72.0017 138.358 71.884 138.185 71.884H137.15C136.827 71.884 136.565 71.6224 136.565 71.2991V66.0944C136.565 65.9733 136.464 65.8716 136.342 65.8716H132.931C132.81 65.8716 132.709 65.9733 132.709 66.0944V71.2991C132.709 71.6224 132.447 71.884 132.124 71.884H131.089Z" fill="#332B29"/>
<path d="M122.222 64.0026H121.187V58.7976C121.187 58.3528 120.824 57.99 120.379 57.99H116.968C116.524 57.99 116.161 58.3528 116.161 58.7976V64.0026H115.125C114.406 64.0026 113.973 64.7982 114.359 65.4067L117.904 70.9182C118.261 71.4799 119.075 71.4799 119.437 70.9182L122.983 65.4067C123.375 64.7982 122.942 64.0026 122.222 64.0026Z" fill="#524B48"/>
<path d="M118.668 71.924C118.667 71.924 118.665 71.924 118.663 71.924C118.154 71.9228 117.686 71.6635 117.411 71.2328L113.866 65.723C113.571 65.2569 113.552 64.6709 113.816 64.1911C114.083 63.7067 114.572 63.4177 115.125 63.4177H115.576V58.7979C115.576 58.0302 116.201 57.4053 116.969 57.4053H120.38C121.147 57.4053 121.771 58.0302 121.771 58.7979V63.4177H122.222C122.769 63.4177 123.271 63.7159 123.532 64.1945C123.794 64.6755 123.773 65.2604 123.476 65.723L119.93 71.2351C119.649 71.6669 119.179 71.924 118.668 71.924ZM115.125 64.5875C114.952 64.5875 114.869 64.7052 114.84 64.7554C114.813 64.8068 114.757 64.9428 114.852 65.0936L118.397 70.6022C118.48 70.7347 118.602 70.7541 118.667 70.7541C118.722 70.7541 118.857 70.7393 118.946 70.6011L122.491 65.0902C122.588 64.9405 122.533 64.8057 122.506 64.7543C122.478 64.704 122.395 64.5875 122.222 64.5875H121.186C120.863 64.5875 120.601 64.3259 120.601 64.0026V58.7979C120.601 58.6745 120.502 58.5751 120.38 58.5751H116.969C116.845 58.5751 116.746 58.6745 116.746 58.7979V64.0026C116.746 64.3259 116.484 64.5875 116.161 64.5875H115.125Z" fill="#332B29"/>
<path d="M122.64 114.01C132.544 114.01 140.572 105.982 140.572 96.0779C140.572 86.1743 132.544 78.1459 122.64 78.1459C112.737 78.1459 104.708 86.1743 104.708 96.0779C104.708 105.982 112.737 114.01 122.64 114.01Z" fill="#332B29"/>
<path d="M122.641 114.595C112.43 114.595 104.124 106.288 104.124 96.0776C104.124 91.1322 106.048 86.4815 109.546 82.9846C113.043 79.4866 117.693 77.5605 122.639 77.5605C132.85 77.5605 141.157 85.8669 141.157 96.0776C141.157 106.287 132.85 114.594 122.641 114.595ZM122.639 78.7304C118.006 78.7304 113.65 80.5353 110.374 83.8117C107.097 87.0881 105.293 91.4441 105.293 96.0776C105.293 105.643 113.075 113.425 122.641 113.425C132.205 113.424 139.987 105.642 139.987 96.0776C139.987 86.5123 132.205 78.7304 122.639 78.7304Z" fill="#332B29"/>
<path d="M118.838 114.01C128.742 114.01 136.77 105.982 136.77 96.0779C136.77 86.1743 128.742 78.1459 118.838 78.1459C108.935 78.1459 100.906 86.1743 100.906 96.0779C100.906 105.982 108.935 114.01 118.838 114.01Z" fill="#A1FD59"/>
<path d="M118.839 114.595C108.628 114.595 100.322 106.288 100.322 96.0776C100.322 91.1322 102.247 86.4815 105.745 82.9846C109.241 79.4866 113.891 77.5605 118.838 77.5605C129.048 77.5605 137.355 85.8669 137.355 96.0776C137.355 106.287 129.048 114.594 118.839 114.595ZM118.838 78.7304C114.204 78.7304 109.848 80.5353 106.572 83.8117C103.295 87.0881 101.491 91.4441 101.491 96.0776C101.491 105.643 109.273 113.425 118.839 113.425C128.403 113.424 136.185 105.642 136.185 96.0776C136.185 86.5123 128.403 78.7304 118.838 78.7304Z" fill="#332B29"/>
<path d="M118.838 109.504C126.253 109.504 132.264 103.493 132.264 96.0779C132.264 88.663 126.253 82.652 118.838 82.652C111.423 82.652 105.412 88.663 105.412 96.0779C105.412 103.493 111.423 109.504 118.838 109.504Z" fill="white"/>
<path d="M110.056 96.6625H108.918C108.595 96.6625 108.333 96.4009 108.333 96.0776C108.333 95.7543 108.595 95.4927 108.918 95.4927H110.056C110.379 95.4927 110.641 95.7543 110.641 96.0776C110.641 96.4009 110.379 96.6625 110.056 96.6625Z" fill="#332B29"/>
<path d="M128.757 96.6625H127.62C127.297 96.6625 127.035 96.4009 127.035 96.0776C127.035 95.7543 127.297 95.4927 127.62 95.4927H128.757C129.08 95.4927 129.342 95.7543 129.342 96.0776C129.342 96.4009 129.08 96.6625 128.757 96.6625Z" fill="#332B29"/>
<path d="M118.899 96.6625H114.69C114.366 96.6625 114.105 96.4009 114.105 96.0776V88.5881C114.105 88.2648 114.366 88.0032 114.69 88.0032H118.899C121.285 88.0032 123.224 89.943 123.224 92.3283C123.224 93.4764 122.774 94.5639 121.957 95.391C121.137 96.2113 120.052 96.6625 118.899 96.6625ZM115.274 95.4927H118.899C119.739 95.4927 120.531 95.1637 121.128 94.5662C121.724 93.963 122.055 93.1668 122.055 92.3283C122.055 90.5884 120.639 89.173 118.899 89.173H115.274V95.4927Z" fill="#332B29"/>
<path d="M120.527 104.152H114.69C114.366 104.152 114.105 103.89 114.105 103.567V96.0776C114.105 95.7543 114.366 95.4927 114.69 95.4927H120.527C122.912 95.4927 124.853 97.4325 124.853 99.8178C124.853 100.966 124.403 102.053 123.586 102.882C122.765 103.702 121.68 104.152 120.527 104.152ZM115.274 102.982H120.527C121.368 102.982 122.16 102.653 122.757 102.057C123.353 101.453 123.684 100.656 123.684 99.8178C123.684 98.0779 122.268 96.6625 120.527 96.6625H115.274V102.982Z" fill="#332B29"/>
<path d="M114.69 89.173H113.408C113.084 89.173 112.823 88.9114 112.823 88.5881C112.823 88.2648 113.084 88.0032 113.408 88.0032H114.69C115.013 88.0032 115.274 88.2648 115.274 88.5881C115.274 88.9114 115.013 89.173 114.69 89.173Z" fill="#332B29"/>
<path d="M115.787 89.1729C115.464 89.1729 115.202 88.9113 115.202 88.588V87.3051C115.202 86.9818 115.464 86.7202 115.787 86.7202C116.111 86.7202 116.372 86.9818 116.372 87.3051V88.588C116.372 88.9113 116.111 89.1729 115.787 89.1729Z" fill="#332B29"/>
<path d="M118.434 89.1729C118.111 89.1729 117.849 88.9113 117.849 88.588V87.3051C117.849 86.9818 118.111 86.7202 118.434 86.7202C118.758 86.7202 119.019 86.9818 119.019 87.3051V88.588C119.019 88.9113 118.758 89.1729 118.434 89.1729Z" fill="#332B29"/>
<path d="M115.787 105.434C115.464 105.434 115.202 105.172 115.202 104.849V103.567C115.202 103.244 115.464 102.982 115.787 102.982C116.111 102.982 116.372 103.244 116.372 103.567V104.849C116.372 105.172 116.111 105.434 115.787 105.434Z" fill="#332B29"/>
<path d="M118.434 105.434C118.111 105.434 117.849 105.172 117.849 104.849V103.567C117.849 103.244 118.111 102.982 118.434 102.982C118.758 102.982 119.019 103.244 119.019 103.567V104.849C119.019 105.172 118.758 105.434 118.434 105.434Z" fill="#332B29"/>
<path d="M114.69 104.152H113.408C113.084 104.152 112.823 103.89 112.823 103.567C112.823 103.244 113.084 102.982 113.408 102.982H114.69C115.013 102.982 115.274 103.244 115.274 103.567C115.274 103.89 115.013 104.152 114.69 104.152Z" fill="#332B29"/>
<g filter="url(#filter1_d_2310_53)">
<circle cx="170" cy="459" r="70" fill="white"/>
<circle cx="170" cy="459" r="69.5" stroke="#6D655D" stroke-dasharray="3 3"/>
</g>
<path d="M195.925 462.648C195.421 462.659 194.956 462.848 194.596 463.158C194.224 463.476 193.965 463.926 193.886 464.441L193.134 469.433C193.013 470.233 192.711 470.996 192.25 471.661L189.659 475.401C189.386 475.796 189.022 476.106 188.61 476.335V480.12H174.654C172.863 483.039 171.649 487.348 171.138 492.32C171.053 493.15 171.692 493.876 172.525 493.876H179.872C180.642 493.876 181.266 493.252 181.266 492.481C181.266 490.188 182.636 488.117 184.746 487.219L187.677 485.971C190.125 484.93 192.099 483.017 193.217 480.603L196.712 473.064C197.382 471.618 197.774 470.058 197.867 468.467L198.067 465.027C198.14 463.777 197.177 462.621 195.925 462.648Z" fill="#332B29"/>
<path d="M179.872 494.461H172.526C171.968 494.461 171.435 494.224 171.061 493.81C170.682 493.391 170.498 492.825 170.556 492.261C171.087 487.089 172.332 482.786 174.156 479.815C174.263 479.641 174.451 479.536 174.654 479.536H188.025V476.335C188.025 476.122 188.14 475.927 188.326 475.823C188.681 475.627 188.967 475.372 189.178 475.068L191.769 471.328C192.177 470.739 192.449 470.054 192.556 469.345L193.307 464.355C193.406 463.711 193.729 463.129 194.217 462.713C194.685 462.31 195.288 462.078 195.912 462.063C195.905 462.08 195.949 462.063 195.967 462.063C196.672 462.063 197.337 462.351 197.844 462.876C198.404 463.458 198.698 464.253 198.651 465.061L198.45 468.502C198.353 470.172 197.947 471.79 197.243 473.31L193.748 480.849C192.566 483.399 190.491 485.41 187.906 486.51L184.975 487.758C183.077 488.565 181.851 490.419 181.851 492.482C181.851 493.574 180.963 494.461 179.872 494.461ZM174.986 480.706C173.366 483.489 172.209 487.616 171.72 492.38C171.696 492.616 171.772 492.852 171.929 493.026C172.083 493.198 172.295 493.291 172.526 493.291H179.872C180.318 493.291 180.682 492.928 180.682 492.482C180.682 489.95 182.187 487.673 184.517 486.682L187.447 485.434C189.766 484.447 191.627 482.644 192.687 480.357L196.182 472.819C196.824 471.433 197.194 469.957 197.283 468.433L197.483 464.992C197.511 464.51 197.335 464.035 197.002 463.689C196.711 463.386 196.326 463.243 195.938 463.233C195.585 463.241 195.244 463.372 194.979 463.601C194.702 463.837 194.52 464.166 194.464 464.529L193.713 469.519C193.579 470.404 193.239 471.259 192.731 471.994L190.14 475.734C189.89 476.095 189.573 476.406 189.195 476.662V480.121C189.195 480.444 188.933 480.706 188.61 480.706H174.986Z" fill="#332B29"/>
<path d="M152.323 485.971L155.254 487.219C157.364 488.117 158.733 490.188 158.733 492.481C158.733 493.252 159.358 493.876 160.128 493.876H167.475C168.308 493.876 168.947 493.15 168.862 492.32C168.328 487.126 167.035 482.638 165.109 479.722C163.351 477.672 158.898 473.081 156.451 470.376C156.054 469.937 155.506 469.709 154.949 469.709C154.577 469.709 154.202 469.812 153.866 470.023C152.869 470.654 152.621 472 153.329 472.945L156.493 477.126C156.659 477.345 156.459 477.652 156.191 477.589L152.353 476.69C151.538 476.547 150.812 476.083 150.341 475.401L147.75 471.661C147.289 470.996 146.986 470.234 146.866 469.433L146.114 464.441C146.035 463.926 145.776 463.476 145.404 463.158C145.044 462.848 144.579 462.659 144.075 462.648C142.823 462.621 141.86 463.777 141.933 465.027L142.133 468.467C142.226 470.058 142.618 471.618 143.288 473.064L146.783 480.603C147.901 483.017 149.875 484.93 152.323 485.971Z" fill="#FFDDAB"/>
<path d="M167.474 494.461H160.128C159.037 494.461 158.149 493.573 158.149 492.481C158.149 490.419 156.923 488.565 155.025 487.758L152.094 486.51C149.509 485.41 147.434 483.399 146.252 480.848L142.757 473.31C142.053 471.79 141.647 470.172 141.55 468.501L141.349 465.06C141.302 464.253 141.596 463.458 142.156 462.876C142.676 462.337 143.365 462.051 144.087 462.063C144.712 462.078 145.315 462.308 145.786 462.715C146.271 463.129 146.594 463.711 146.692 464.353L147.444 469.346C147.551 470.053 147.822 470.738 148.231 471.329L150.822 475.067C151.202 475.617 151.797 475.999 152.455 476.114L155.539 476.836L152.863 473.298C152.426 472.716 152.252 471.974 152.383 471.26C152.514 470.547 152.941 469.916 153.554 469.528C154.602 468.867 156.06 469.07 156.885 469.984C157.942 471.153 159.375 472.676 160.803 474.192C162.644 476.147 164.547 478.169 165.553 479.342C167.526 482.321 168.892 486.888 169.444 492.261C169.502 492.825 169.318 493.391 168.939 493.81C168.565 494.224 168.032 494.461 167.474 494.461ZM152.552 485.434L155.483 486.681C157.813 487.673 159.318 489.95 159.318 492.481C159.318 492.928 159.682 493.291 160.128 493.291H167.474C167.705 493.291 167.917 493.198 168.071 493.026C168.228 492.851 168.304 492.616 168.28 492.38C167.747 487.192 166.448 482.811 164.621 480.044C163.677 478.951 161.783 476.939 159.952 474.994C158.518 473.471 157.079 471.942 156.017 470.768C155.561 470.264 154.757 470.153 154.178 470.518C153.836 470.735 153.607 471.073 153.533 471.472C153.46 471.871 153.554 472.27 153.797 472.595L156.959 476.773C157.185 477.072 157.199 477.468 156.995 477.782C156.791 478.096 156.424 478.248 156.057 478.158L152.22 477.26C151.288 477.098 150.416 476.538 149.86 475.733L147.269 471.995C146.759 471.258 146.42 470.402 146.287 469.519L145.535 464.528C145.48 464.166 145.298 463.837 145.024 463.604C144.755 463.371 144.414 463.241 144.062 463.233C143.666 463.203 143.289 463.386 142.998 463.688C142.665 464.035 142.489 464.51 142.517 464.992L142.717 468.433C142.806 469.957 143.176 471.433 143.818 472.818L147.313 480.357C148.373 482.644 150.234 484.447 152.552 485.434Z" fill="#332B29"/>
<path d="M185.415 485.971L182.484 487.219C180.375 488.117 179.005 490.188 179.005 492.481C179.005 493.252 178.381 493.876 177.61 493.876H170.264C169.43 493.876 168.792 493.15 168.877 492.32C169.41 487.126 170.704 482.638 172.63 479.722C174.388 477.672 178.841 473.081 181.287 470.376C181.684 469.937 182.232 469.709 182.789 469.709C183.162 469.709 183.537 469.812 183.872 470.023C184.87 470.654 185.118 472 184.409 472.945L181.246 477.126C181.08 477.345 181.279 477.652 181.547 477.589L185.385 476.69C186.201 476.547 186.926 476.083 187.398 475.401L189.989 471.661C190.45 470.996 190.752 470.234 190.873 469.433L191.625 464.441C191.704 463.926 191.962 463.476 192.335 463.158C192.695 462.848 193.16 462.659 193.664 462.648C194.915 462.621 195.878 463.777 195.806 465.027L195.605 468.467C195.513 470.058 195.121 471.618 194.451 473.064L190.956 480.603C189.837 483.017 187.863 484.93 185.415 485.971Z" fill="#FFDDAB"/>
<path d="M177.61 494.461H170.264C169.707 494.461 169.173 494.224 168.8 493.81C168.421 493.391 168.237 492.825 168.295 492.261C168.846 486.888 170.213 482.321 172.141 479.4C173.19 478.169 175.092 476.149 176.932 474.195C178.361 472.678 179.795 471.154 180.854 469.984C181.679 469.07 183.138 468.868 184.184 469.528C184.798 469.916 185.224 470.547 185.356 471.26C185.487 471.974 185.312 472.716 184.877 473.296L182.199 476.835L185.251 476.12C185.942 475.999 186.537 475.617 186.917 475.068L189.508 471.328C189.916 470.739 190.188 470.054 190.294 469.346L191.046 464.354C191.145 463.711 191.468 463.129 191.956 462.713C192.423 462.31 193.026 462.078 193.651 462.063C194.384 462.051 195.063 462.337 195.582 462.876C196.142 463.458 196.436 464.253 196.39 465.06L196.189 468.501C196.092 470.172 195.686 471.79 194.982 473.31L191.486 480.848C190.305 483.399 188.23 485.41 185.644 486.51L182.713 487.758C180.816 488.565 179.59 490.419 179.59 492.481C179.59 493.573 178.702 494.461 177.61 494.461ZM182.789 470.294C182.383 470.294 181.994 470.466 181.721 470.769C180.658 471.943 179.218 473.473 177.784 474.997C175.953 476.941 174.061 478.952 173.073 480.102C171.291 482.811 169.991 487.192 169.459 492.38C169.434 492.616 169.511 492.851 169.668 493.026C169.822 493.198 170.034 493.291 170.264 493.291H177.61C178.057 493.291 178.42 492.928 178.42 492.481C178.42 489.95 179.925 487.673 182.255 486.681L185.186 485.434C187.505 484.447 189.366 482.644 190.425 480.357L193.92 472.818C194.562 471.433 194.933 469.957 195.022 468.433L195.222 464.992C195.25 464.51 195.074 464.035 194.741 463.688C194.449 463.386 194.077 463.243 193.676 463.233C193.324 463.241 192.983 463.371 192.718 463.6C192.44 463.837 192.259 464.166 192.203 464.529L191.451 469.519C191.318 470.403 190.979 471.259 190.47 471.994L187.879 475.734C187.322 476.538 186.45 477.098 185.486 477.266L181.681 478.159C181.313 478.246 180.947 478.095 180.743 477.782C180.539 477.468 180.553 477.072 180.78 476.773L183.943 472.592C184.185 472.27 184.278 471.871 184.205 471.472C184.132 471.073 183.903 470.735 183.56 470.518C183.328 470.371 183.061 470.294 182.789 470.294Z" fill="#332B29"/>
<path d="M186.648 446.092L185.632 460.14C185.569 461.018 185.131 461.827 184.43 462.361L173.939 470.346C172.84 471.183 171.318 471.182 170.22 470.345L159.741 462.361C159.041 461.827 158.604 461.019 158.54 460.141L157.524 446.091C157.428 444.764 158.198 443.527 159.43 443.026L170.924 438.354C171.665 438.053 172.494 438.053 173.234 438.354L184.741 443.026C185.974 443.527 186.744 444.764 186.648 446.092Z" fill="#332B29"/>
<path d="M172.08 471.556C171.298 471.556 170.517 471.307 169.865 470.81L159.387 462.826C158.554 462.19 158.033 461.227 157.957 460.183L156.941 446.133C156.826 444.549 157.738 443.082 159.21 442.485L170.703 437.812C171.591 437.451 172.568 437.451 173.454 437.812L184.961 442.485C186.434 443.082 187.346 444.548 187.231 446.133L186.215 460.181C186.14 461.226 185.619 462.19 184.785 462.826L174.293 470.811C173.642 471.308 172.861 471.556 172.08 471.556ZM172.079 438.712C171.762 438.712 171.445 438.773 171.144 438.895L159.651 443.568C158.649 443.974 158.03 444.972 158.107 446.049L159.124 460.098C159.175 460.807 159.53 461.463 160.096 461.896L170.574 469.88C171.46 470.554 172.699 470.557 173.585 469.882L184.076 461.896C184.643 461.463 184.998 460.807 185.049 460.097L186.065 446.049C186.142 444.972 185.522 443.974 184.521 443.568L173.014 438.895C172.713 438.773 172.396 438.712 172.079 438.712Z" fill="#332B29"/>
<path d="M183.428 446.097L182.41 460.135C182.352 461.012 181.919 461.831 181.217 462.357L170.724 470.347C169.624 471.178 168.103 471.178 167.004 470.347L156.522 462.357C155.82 461.831 155.387 461.024 155.329 460.135L154.311 446.085C154.206 444.763 154.978 443.523 156.218 443.02L167.706 438.353C168.443 438.049 169.273 438.049 170.022 438.353L181.521 443.02C182.761 443.523 183.521 444.763 183.428 446.097Z" fill="#FF6656"/>
<path d="M168.863 471.552C168.082 471.552 167.303 471.306 166.651 470.815L156.168 462.823C155.334 462.198 154.814 461.231 154.745 460.172L153.728 446.128C153.602 444.548 154.515 443.08 155.998 442.478L167.486 437.811C168.367 437.448 169.346 437.448 170.242 437.811L181.741 442.479C183.211 443.074 184.123 444.545 184.011 446.138L182.993 460.177C182.924 461.231 182.404 462.199 181.568 462.826L171.078 470.813C170.426 471.306 169.644 471.552 168.863 471.552ZM168.86 438.709C168.543 438.709 168.227 438.771 167.929 438.893L156.438 443.562C155.429 443.971 154.809 444.967 154.894 446.039L155.912 460.092C155.96 460.813 156.31 461.467 156.874 461.889L167.358 469.883C168.244 470.551 169.484 470.552 170.372 469.88L180.863 461.893C181.429 461.468 181.779 460.813 181.826 460.096L182.845 446.056C182.921 444.969 182.3 443.967 181.301 443.562L169.802 438.894C169.496 438.771 169.177 438.709 168.86 438.709Z" fill="#332B29"/>
<path d="M159.474 458.779L158.639 447.232C158.602 446.731 158.893 446.263 159.359 446.074L168.426 442.389C168.706 442.275 169.019 442.275 169.299 442.389L178.379 446.076C178.845 446.265 179.136 446.733 179.1 447.234L178.265 458.777C178.241 459.11 178.076 459.415 177.811 459.617L169.566 465.893C169.151 466.209 168.575 466.209 168.16 465.893L159.928 459.619C159.663 459.417 159.498 459.111 159.474 458.779Z" fill="white"/>
<path d="M166.998 449.672C167.519 450.196 167.78 450.826 167.78 451.563C167.78 452.299 167.519 452.928 166.998 453.45C166.476 453.971 165.845 454.232 165.103 454.232C164.367 454.232 163.738 453.971 163.216 453.45C162.695 452.928 162.434 452.299 162.434 451.563C162.434 450.826 162.695 450.196 163.216 449.672C163.738 449.148 164.367 448.886 165.103 448.886C165.845 448.886 166.476 449.148 166.998 449.672ZM166.227 452.679C166.536 452.369 166.691 451.997 166.691 451.563C166.691 451.128 166.536 450.756 166.227 450.447C165.917 450.137 165.543 449.983 165.103 449.983C164.668 449.983 164.296 450.136 163.987 450.443C163.678 450.75 163.523 451.123 163.523 451.563C163.523 451.997 163.678 452.369 163.987 452.679C164.296 452.988 164.668 453.143 165.103 453.143C165.543 453.143 165.917 452.988 166.227 452.679ZM171.523 448.602H172.375L166.231 459.831H165.379L171.523 448.602ZM174.522 454.984C175.044 455.505 175.305 456.134 175.305 456.871C175.305 457.607 175.044 458.236 174.522 458.757C174.001 459.279 173.372 459.54 172.635 459.54C171.894 459.54 171.262 459.279 170.741 458.757C170.219 458.236 169.958 457.607 169.958 456.871C169.958 456.134 170.219 455.505 170.741 454.984C171.262 454.462 171.894 454.201 172.635 454.201C173.372 454.201 174.001 454.462 174.522 454.984ZM173.751 457.987C174.061 457.677 174.215 457.305 174.215 456.871C174.215 456.436 174.061 456.064 173.751 455.755C173.442 455.445 173.07 455.29 172.635 455.29C172.196 455.29 171.821 455.445 171.512 455.755C171.202 456.064 171.048 456.436 171.048 456.871C171.048 457.305 171.202 457.677 171.512 457.987C171.821 458.296 172.196 458.451 172.635 458.451C173.07 458.451 173.442 458.296 173.751 457.987Z" fill="#332B29"/>
<g filter="url(#filter2_d_2310_53)">
<circle cx="497" cy="219" r="70" fill="white"/>
<circle cx="497" cy="219" r="69.5" stroke="#6D655D" stroke-dasharray="3 3"/>
</g>
<path d="M510.211 229.979H494.363V253.475C494.636 253.5 494.901 253.53 495.182 253.55C496.2 253.89 497.358 254.089 498.574 254.089C499.779 254.089 500.926 253.901 501.92 253.562C511.887 252.954 515.689 249.596 516.016 246.005C516.503 240.528 514.082 234.399 510.211 229.979Z" fill="#332B29"/>
<path d="M498.575 254.673C497.375 254.673 496.164 254.484 495.068 254.128C494.901 254.115 494.739 254.099 494.576 254.083L494.309 254.057C494.009 254.03 493.778 253.777 493.778 253.475V229.979C493.778 229.656 494.039 229.394 494.363 229.394H510.211C510.38 229.394 510.54 229.467 510.651 229.594C514.8 234.331 517.079 240.64 516.599 246.057C516.353 248.754 514.132 253.383 502.033 254.142C500.984 254.489 499.79 254.673 498.575 254.673ZM494.948 252.943C495.038 252.952 495.129 252.96 495.222 252.966C495.271 252.97 495.32 252.98 495.367 252.995C497.376 253.664 499.851 253.65 501.731 253.008C501.78 252.992 501.832 252.982 501.884 252.979C510.133 252.475 515.072 249.914 515.434 245.952C515.881 240.92 513.78 235.045 509.944 230.564H494.948V252.943Z" fill="#332B29"/>
<path d="M521.139 220.618C521.158 220.446 521.158 220.293 521.158 220.121C521.158 216.027 517.829 212.698 513.717 212.698H513.697C513.717 212.584 513.717 212.45 513.717 212.335C513.717 204.358 507.27 197.912 499.293 197.912C496.475 197.912 493.848 198.726 491.625 200.124V232.746H518.671C522.153 232.746 524.965 229.915 524.965 226.433C524.965 223.832 523.396 221.593 521.139 220.618Z" fill="#332B29"/>
<path d="M518.671 233.331H491.624C491.301 233.331 491.04 233.069 491.04 232.746V200.125C491.04 199.924 491.142 199.736 491.313 199.63C493.708 198.123 496.467 197.327 499.293 197.327C507.501 197.327 514.192 203.952 514.3 212.135C518.463 212.442 521.743 215.906 521.743 220.12V220.255C524.068 221.427 525.549 223.809 525.549 226.433C525.549 230.236 522.463 233.331 518.671 233.331ZM492.209 232.161H518.671C521.818 232.161 524.379 229.592 524.379 226.433C524.379 224.139 523.016 222.067 520.906 221.155C520.67 221.053 520.528 220.809 520.557 220.553C520.574 220.403 520.573 220.27 520.573 220.12C520.573 216.35 517.497 213.283 513.716 213.283C513.545 213.283 513.373 213.207 513.261 213.077C513.151 212.947 513.093 212.774 513.12 212.605C513.133 212.521 513.131 212.42 513.131 212.335C513.131 204.705 506.923 198.497 499.293 198.497C496.795 198.497 494.352 199.172 492.209 200.453V232.161Z" fill="#332B29"/>
<path d="M521.163 226.433C521.163 229.915 518.351 232.746 514.869 232.746C511.732 232.746 485.716 232.746 481.068 232.746C474.411 232.746 469.036 227.351 469.036 220.714C469.036 214.057 474.411 208.662 481.068 208.662C481.221 208.662 481.393 208.662 481.546 208.681C483.153 202.464 488.796 197.912 495.491 197.912C503.468 197.912 509.915 204.358 509.915 212.335C509.915 212.45 509.915 212.584 509.896 212.698H509.915C514.027 212.698 517.356 216.027 517.356 220.121C517.356 220.293 517.356 220.446 517.337 220.618C519.594 221.593 521.163 223.832 521.163 226.433Z" fill="white"/>
<path d="M514.869 233.331H481.068C474.11 233.331 468.451 227.67 468.451 220.713C468.451 213.746 474.11 208.077 481.068 208.077H481.106C482.965 201.724 488.813 197.327 495.491 197.327C503.7 197.327 510.391 203.952 510.498 212.135C514.661 212.442 517.941 215.906 517.941 220.12V220.255C520.267 221.427 521.747 223.809 521.747 226.433C521.747 230.236 518.661 233.331 514.869 233.331ZM481.134 209.247C481.112 209.247 481.089 209.247 481.068 209.247C474.756 209.247 469.621 214.391 469.621 220.713C469.621 227.026 474.756 232.161 481.068 232.161H514.869C518.016 232.161 520.577 229.592 520.577 226.433C520.577 224.139 519.214 222.067 517.104 221.155C516.868 221.053 516.726 220.809 516.755 220.553C516.772 220.403 516.771 220.27 516.771 220.12C516.771 216.35 513.695 213.283 509.914 213.283C509.743 213.283 509.571 213.207 509.459 213.077C509.349 212.947 509.292 212.774 509.318 212.605C509.332 212.521 509.329 212.42 509.329 212.335C509.329 204.705 503.121 198.497 495.491 198.497C489.187 198.497 483.685 202.745 482.113 208.828C482.04 209.111 481.761 209.304 481.473 209.262C481.365 209.248 481.246 209.247 481.134 209.247Z" fill="#332B29"/>
<path d="M501.306 221.679C499.387 224.212 497.022 225.795 495.466 225.733C493.91 225.795 491.549 224.212 489.631 221.679C487.27 218.562 486.479 215.189 487.858 214.146C488.835 213.408 490.634 214.031 492.438 215.561C492.792 212.524 494.012 210.287 495.466 210.287C496.925 210.287 498.145 212.524 498.499 215.561C500.302 214.031 502.097 213.408 503.074 214.146C504.453 215.189 503.662 218.562 501.306 221.679Z" fill="#A799FE"/>
<path d="M495.551 226.319C495.479 226.32 495.41 226.32 495.338 226.319C493.6 226.32 491.119 224.614 489.165 222.032C487.974 220.463 487.126 218.771 486.773 217.27C486.382 215.608 486.642 214.333 487.505 213.68C488.551 212.888 490.194 213.197 492.009 214.486C492.555 211.585 493.888 209.701 495.466 209.701C497.049 209.701 498.382 211.585 498.927 214.486C500.74 213.196 502.383 212.889 503.427 213.68C504.289 214.333 504.551 215.606 504.16 217.269C503.808 218.77 502.96 220.462 501.772 222.032C499.817 224.614 497.334 226.319 495.551 226.319ZM495.443 225.148C496.675 225.236 498.891 223.897 500.84 221.326C501.931 219.884 502.706 218.347 503.021 217.001C503.291 215.852 503.179 214.959 502.721 214.613C502.025 214.086 500.479 214.648 498.876 216.006C498.712 216.146 498.486 216.185 498.283 216.105C498.082 216.026 497.942 215.843 497.917 215.628C497.558 212.538 496.386 210.871 495.466 210.871C494.549 210.871 493.379 212.538 493.019 215.628C492.994 215.843 492.853 216.026 492.653 216.105C492.45 216.185 492.224 216.146 492.06 216.006C490.456 214.648 488.909 214.088 488.211 214.613C487.753 214.959 487.641 215.852 487.912 217.001C488.228 218.347 489.004 219.884 490.097 221.326C492.044 223.896 494.225 225.201 495.443 225.148Z" fill="#332B29"/>
<path d="M512.503 246.01C512.185 249.6 508.374 252.951 498.41 253.561C497.411 253.897 496.275 254.087 495.068 254.087C493.844 254.087 492.69 253.892 491.678 253.548C482.549 252.893 477.633 249.573 477.633 246.01C477.633 235.096 485.44 223.898 495.068 223.898C504.696 223.898 513.387 236.055 512.503 246.01Z" fill="#A799FE"/>
<path d="M495.068 254.672C493.85 254.672 492.639 254.483 491.56 254.126C482.742 253.478 477.049 250.296 477.049 246.01C477.049 235.296 484.754 223.313 495.068 223.313C499.16 223.313 503.328 225.406 506.806 229.205C511.179 233.984 513.585 240.442 513.085 246.061C512.847 248.755 510.637 253.38 498.522 254.14C497.445 254.493 496.283 254.672 495.068 254.672ZM495.068 224.483C485.425 224.483 478.218 235.848 478.218 246.01C478.218 248.893 482.443 252.299 491.719 252.964C491.768 252.967 491.819 252.978 491.865 252.994C493.817 253.658 496.268 253.664 498.224 253.007C498.273 252.99 498.323 252.981 498.375 252.978C506.633 252.471 511.571 249.914 511.92 245.959C512.384 240.736 510.038 234.47 505.943 229.996C502.69 226.441 498.827 224.483 495.068 224.483Z" fill="#332B29"/>
<path d="M502.593 224.935C502.408 225.296 502.074 225.536 501.699 225.657C501.321 225.773 500.906 225.77 500.509 225.616C497.029 224.273 493.169 224.273 489.689 225.616C488.909 225.913 487.988 225.654 487.605 224.935C487.418 224.571 487.426 224.152 487.607 223.768C487.793 223.385 488.151 223.047 488.627 222.863C492.79 221.256 497.408 221.256 501.572 222.863C502.537 223.233 502.978 224.215 502.593 224.935Z" fill="#6D655D"/>
<path d="M489.027 226.323C488.219 226.324 487.465 225.915 487.089 225.208C486.818 224.685 486.816 224.07 487.078 223.518C487.339 222.982 487.826 222.545 488.415 222.318C492.727 220.652 497.472 220.654 501.781 222.317C502.446 222.572 502.96 223.073 503.19 223.69C503.383 224.208 503.355 224.746 503.111 225.205C502.868 225.678 502.43 226.035 501.879 226.214C501.346 226.377 500.802 226.359 500.298 226.161C496.946 224.868 493.254 224.869 489.899 226.162C489.612 226.272 489.316 226.323 489.027 226.323ZM495.098 224.021C497.003 224.021 498.907 224.371 500.72 225.07C500.982 225.173 501.258 225.181 501.529 225.097C501.667 225.053 501.937 224.933 502.072 224.668C502.074 224.664 502.075 224.661 502.077 224.658C502.163 224.498 502.169 224.299 502.095 224.099C501.981 223.795 501.714 223.544 501.362 223.409C497.323 221.851 492.877 221.848 488.837 223.409C488.521 223.531 488.264 223.755 488.132 224.024C488.029 224.242 488.026 224.473 488.125 224.666C488.352 225.092 488.948 225.276 489.481 225.069C491.292 224.371 493.195 224.021 495.098 224.021Z" fill="#332B29"/>
<path d="M495.099 248.046C500.099 248.046 504.152 243.993 504.152 238.993C504.152 233.993 500.099 229.94 495.099 229.94C490.099 229.94 486.046 233.993 486.046 238.993C486.046 243.993 490.099 248.046 495.099 248.046Z" fill="white"/>
<path d="M492.689 234.591C493.188 234.045 493.887 233.767 494.787 233.759V232.865H495.425V233.745C496.316 233.808 496.999 234.071 497.476 234.534C497.953 234.997 498.202 235.609 498.225 236.37H497.05C497.018 236.03 496.927 235.737 496.775 235.491C496.493 235.039 496.043 234.802 495.425 234.779V238.042C496.463 238.333 497.168 238.606 497.54 238.862C498.144 239.282 498.446 239.905 498.446 240.728C498.446 241.919 498.059 242.765 497.285 243.266C496.855 243.544 496.235 243.727 495.425 243.817V245.119H494.787V243.817C493.484 243.732 492.6 243.271 492.135 242.434C491.88 241.982 491.752 241.371 491.752 240.601H492.941C492.976 241.214 493.073 241.662 493.229 241.944C493.507 242.449 494.022 242.734 494.774 242.796V239.137C493.807 238.953 493.093 238.647 492.632 238.217C492.171 237.787 491.94 237.192 491.94 236.431C491.94 235.75 492.19 235.137 492.689 234.591ZM493.588 237.391C493.882 237.642 494.277 237.816 494.774 237.915V234.759C494.187 234.781 493.77 234.96 493.521 235.296C493.273 235.632 493.149 235.983 493.149 236.35C493.149 236.793 493.295 237.14 493.588 237.391ZM497.01 241.991C497.162 241.722 497.238 241.411 497.238 241.057C497.238 240.498 497.032 240.072 496.62 239.781C496.383 239.611 495.984 239.45 495.425 239.298V242.83C496.19 242.794 496.719 242.514 497.01 241.991Z" fill="#332B29"/>
<defs>
<filter id="filter0_d_2310_53" x="37.3" y="0.3" width="165.4" height="165.4" filterUnits="userSpaceOnUse" color-interpolation-filters="sRGB">
<feFlood flood-opacity="0" result="BackgroundImageFix"/>
<feColorMatrix in="SourceAlpha" type="matrix" values="0 0 0 0 0 0 0 0 0 0 0 0 0 0 0 0 0 0 127 0" result="hardAlpha"/>
<feOffset dy="4"/>
<feGaussianBlur stdDeviation="6.35"/>
<feComposite in2="hardAlpha" operator="out"/>
<feColorMatrix type="matrix" values="0 0 0 0 0.00111111 0 0 0 0 0.224419 0 0 0 0 0.266667 0 0 0 0.47 0"/>
<feBlend mode="normal" in2="BackgroundImageFix" result="effect1_dropShadow_2310_53"/>
<feBlend mode="normal" in="SourceGraphic" in2="effect1_dropShadow_2310_53" result="shape"/>
</filter>
<filter id="filter1_d_2310_53" x="87.3" y="380.3" width="165.4" height="165.4" filterUnits="userSpaceOnUse" color-interpolation-filters="sRGB">
<feFlood flood-opacity="0" result="BackgroundImageFix"/>
<feColorMatrix in="SourceAlpha" type="matrix" values="0 0 0 0 0 0 0 0 0 0 0 0 0 0 0 0 0 0 127 0" result="hardAlpha"/>
<feOffset dy="4"/>
<feGaussianBlur stdDeviation="6.35"/>
<feComposite in2="hardAlpha" operator="out"/>
<feColorMatrix type="matrix" values="0 0 0 0 0.00111111 0 0 0 0 0.224419 0 0 0 0 0.266667 0 0 0 0.47 0"/>
<feBlend mode="normal" in2="BackgroundImageFix" result="effect1_dropShadow_2310_53"/>
<feBlend mode="normal" in="SourceGraphic" in2="effect1_dropShadow_2310_53" result="shape"/>
</filter>
<filter id="filter2_d_2310_53" x="414.3" y="140.3" width="165.4" height="165.4" filterUnits="userSpaceOnUse" color-interpolation-filters="sRGB">
<feFlood flood-opacity="0" result="BackgroundImageFix"/>
<feColorMatrix in="SourceAlpha" type="matrix" values="0 0 0 0 0 0 0 0 0 0 0 0 0 0 0 0 0 0 127 0" result="hardAlpha"/>
<feOffset dy="4"/>
<feGaussianBlur stdDeviation="6.35"/>
<feComposite in2="hardAlpha" operator="out"/>
<feColorMatrix type="matrix" values="0 0 0 0 0.00111111 0 0 0 0 0.224419 0 0 0 0 0.266667 0 0 0 0.47 0"/>
<feBlend mode="normal" in2="BackgroundImageFix" result="effect1_dropShadow_2310_53"/>
<feBlend mode="normal" in="SourceGraphic" in2="effect1_dropShadow_2310_53" result="shape"/>
</filter>
</defs>
</svg>
