<svg width="100" height="100" viewBox="0 0 100 100" fill="none" xmlns="http://www.w3.org/2000/svg">
<g id="fi_15799116">
<g id="Group">
<g id="Group_2">
<g id="Group_3">
<path id="Vector" d="M81.4239 59.8873V19.1892C81.4239 11.1892 74.9332 4.71753 66.9521 4.71753H50.0465V85.3025H74.339V94.8894C75.4118 95.0924 76.5128 95.2081 77.6503 95.2081C87.4993 95.2081 95.4995 87.2082 95.4995 77.3401C95.4995 68.7742 89.4617 61.6232 81.4239 59.8873Z" fill="#332B29"/>
</g>
<g id="Group_4">
<path id="Vector_2" d="M77.6496 96.1508C76.5035 96.1508 75.3317 96.0385 74.1616 95.8155C73.7176 95.7307 73.3951 95.342 73.3951 94.8887V86.2452H50.0461C49.5246 86.2452 49.1027 85.8232 49.1027 85.3018V4.71696C49.1027 4.19551 49.5246 3.77356 50.0461 3.77356H66.9517C75.4514 3.77356 82.3666 10.6887 82.3666 19.1885V59.1428C90.5679 61.271 96.4438 68.8034 96.4438 77.34C96.4438 87.7119 88.0122 96.1508 77.6496 96.1508ZM75.2819 94.0909C76.0798 94.2069 76.8592 94.2641 77.6496 94.2641C86.973 94.2641 94.5571 86.6727 94.5571 77.34C94.5571 69.4299 88.9501 62.4779 81.2242 60.8085C80.7894 60.7164 80.4798 60.3313 80.4798 59.8872V19.1885C80.4798 11.7298 74.4104 5.66035 66.9517 5.66035H50.9895V84.3584H74.3385C74.86 84.3584 75.2819 84.7803 75.2819 85.3018V94.0909Z" fill="#332B29"/>
</g>
</g>
<g id="Group_5">
<g id="Group_6">
<path id="Vector_3" d="M75.7635 19.1892V80.8119C75.7635 88.8119 69.2729 95.2836 61.2918 95.2836H18.9711C10.99 95.2836 4.49934 88.8119 4.49934 80.8119V19.1892C4.49934 11.1892 10.99 4.71753 18.9711 4.71753H61.2918C69.2729 4.71753 75.7635 11.1892 75.7635 19.1892Z" fill="#524B48"/>
</g>
<g id="Group_7">
<path id="Vector_4" d="M61.2913 96.2264H18.9711C10.4713 96.2264 3.55617 89.3112 3.55617 80.8114V19.1885C3.55617 10.6887 10.4713 3.77356 18.9711 3.77356H61.2913C69.7911 3.77356 76.7062 10.6887 76.7062 19.1885V80.8114C76.7062 89.3112 69.7911 96.2264 61.2913 96.2264ZM18.9711 5.66035C11.5124 5.66035 5.44296 11.7298 5.44296 19.1885V80.8114C5.44296 88.2702 11.5124 94.3396 18.9711 94.3396H61.2913C68.75 94.3396 74.8194 88.2702 74.8194 80.8114V19.1885C74.8194 11.7298 68.75 5.66035 61.2913 5.66035H18.9711Z" fill="#332B29"/>
</g>
</g>
<g id="Group_8">
<g id="Group_9">
<path id="Vector_5" d="M67.8044 18.0237V36.9868C67.8044 39.8498 65.4805 42.1923 62.599 42.1923H17.6639C14.7824 42.1923 12.4585 39.8498 12.4585 36.9868V18.0237C12.4585 15.1421 14.7824 12.8182 17.6639 12.8182H62.599C65.4805 12.8182 67.8044 15.1421 67.8044 18.0237Z" fill="white"/>
</g>
<g id="Group_10">
<path id="Vector_6" d="M62.5995 43.1364H17.6647C14.2726 43.1364 11.5142 40.3781 11.5142 36.9859V18.024C11.5142 14.6337 14.2726 11.8754 17.6647 11.8754H62.5995C65.9898 11.8754 68.7482 14.6337 68.7482 18.024V36.9859C68.7482 40.3781 65.9898 43.1364 62.5995 43.1364ZM17.6647 13.7622C15.3136 13.7622 13.401 15.6747 13.401 18.024V36.9859C13.401 39.337 15.3136 41.2496 17.6647 41.2496H62.5995C64.9488 41.2496 66.8614 39.337 66.8614 36.9859V18.024C66.8614 15.6747 64.9488 13.7622 62.5995 13.7622H17.6647Z" fill="#332B29"/>
</g>
</g>
<g id="Group_11">
<g id="Group_12">
<g id="Group_13">
<path id="Vector_7" d="M17.2415 58.1169C19.8831 58.1169 22.0245 55.9755 22.0245 53.3339C22.0245 50.6923 19.8831 48.5509 17.2415 48.5509C14.5999 48.5509 12.4585 50.6923 12.4585 53.3339C12.4585 55.9755 14.5999 58.1169 17.2415 58.1169Z" fill="white"/>
</g>
<g id="Group_14">
<path id="Vector_8" d="M17.2428 59.0617C14.0846 59.0617 11.5161 56.4932 11.5161 53.335C11.5161 50.1768 14.0846 47.6083 17.2428 47.6083C20.3991 47.6083 22.9676 50.1768 22.9676 53.335C22.9676 56.4932 20.3991 59.0617 17.2428 59.0617ZM17.2428 49.4951C15.1257 49.4951 13.4029 51.2179 13.4029 53.335C13.4029 55.4521 15.1257 57.1749 17.2428 57.1749C19.3599 57.1749 21.0809 55.4521 21.0809 53.335C21.0809 51.2179 19.3599 49.4951 17.2428 49.4951Z" fill="#332B29"/>
</g>
</g>
<g id="Group_15">
<g id="Group_16">
<path id="Vector_9" d="M32.5019 58.1169C35.1435 58.1169 37.2849 55.9755 37.2849 53.3339C37.2849 50.6923 35.1435 48.5509 32.5019 48.5509C29.8603 48.5509 27.7189 50.6923 27.7189 53.3339C27.7189 55.9755 29.8603 58.1169 32.5019 58.1169Z" fill="white"/>
</g>
<g id="Group_17">
<path id="Vector_10" d="M32.5011 59.0617C29.3448 59.0617 26.7762 56.4932 26.7762 53.335C26.7762 50.1768 29.3448 47.6083 32.5011 47.6083C35.6593 47.6083 38.2278 50.1768 38.2278 53.335C38.2278 56.4932 35.6593 59.0617 32.5011 59.0617ZM32.5011 49.4951C30.384 49.4951 28.663 51.2179 28.663 53.335C28.663 55.4521 30.384 57.1749 32.5011 57.1749C34.6182 57.1749 36.341 55.4521 36.341 53.335C36.341 51.2179 34.6182 49.4951 32.5011 49.4951Z" fill="#332B29"/>
</g>
</g>
<g id="Group_18">
<g id="Group_19">
<path id="Vector_11" d="M47.7623 58.1169C50.4039 58.1169 52.5453 55.9755 52.5453 53.3339C52.5453 50.6923 50.4039 48.5509 47.7623 48.5509C45.1207 48.5509 42.9792 50.6923 42.9792 53.3339C42.9792 55.9755 45.1207 58.1169 47.7623 58.1169Z" fill="#FF6656"/>
</g>
<g id="Group_20">
<path id="Vector_12" d="M47.7613 59.0617C44.6031 59.0617 42.0346 56.4932 42.0346 53.335C42.0346 50.1768 44.6031 47.6083 47.7613 47.6083C50.9194 47.6083 53.488 50.1768 53.488 53.335C53.488 56.4932 50.9194 59.0617 47.7613 59.0617ZM47.7613 49.4951C45.6442 49.4951 43.9214 51.2179 43.9214 53.335C43.9214 55.4521 45.6442 57.1749 47.7613 57.1749C49.8784 57.1749 51.6012 55.4521 51.6012 53.335C51.6012 51.2179 49.8784 49.4951 47.7613 49.4951Z" fill="#332B29"/>
</g>
</g>
<g id="Group_21">
<g id="Group_22">
<path id="Vector_13" d="M63.0208 58.1169C65.6623 58.1169 67.8038 55.9755 67.8038 53.3339C67.8038 50.6923 65.6623 48.5509 63.0208 48.5509C60.3792 48.5509 58.2377 50.6923 58.2377 53.3339C58.2377 55.9755 60.3792 58.1169 63.0208 58.1169Z" fill="#DDDDDD"/>
</g>
<g id="Group_23">
<path id="Vector_14" d="M63.0214 59.0617C59.8633 59.0617 57.2947 56.4932 57.2947 53.335C57.2947 50.1768 59.8633 47.6083 63.0214 47.6083C66.1796 47.6083 68.7482 50.1768 68.7482 53.335C68.7482 56.4932 66.1796 59.0617 63.0214 59.0617ZM63.0214 49.4951C60.9043 49.4951 59.1815 51.2179 59.1815 53.335C59.1815 55.4521 60.9043 57.1749 63.0214 57.1749C65.1386 57.1749 66.8614 55.4521 66.8614 53.335C66.8614 51.2179 65.1386 49.4951 63.0214 49.4951Z" fill="#332B29"/>
</g>
</g>
</g>
<g id="Group_24">
<g id="Group_25">
<g id="Group_26">
<path id="Vector_15" d="M17.2415 72.6509C19.8831 72.6509 22.0245 70.5094 22.0245 67.8679C22.0245 65.2263 19.8831 63.0848 17.2415 63.0848C14.5999 63.0848 12.4585 65.2263 12.4585 67.8679C12.4585 70.5094 14.5999 72.6509 17.2415 72.6509Z" fill="white"/>
</g>
<g id="Group_27">
<path id="Vector_16" d="M17.2428 73.594C14.0846 73.594 11.5161 71.0255 11.5161 67.8673C11.5161 64.7092 14.0846 62.1406 17.2428 62.1406C20.3991 62.1406 22.9676 64.7092 22.9676 67.8673C22.9676 71.0255 20.3991 73.594 17.2428 73.594ZM17.2428 64.0274C15.1257 64.0274 13.4029 65.7502 13.4029 67.8673C13.4029 69.9844 15.1257 71.7073 17.2428 71.7073C19.3599 71.7073 21.0809 69.9844 21.0809 67.8673C21.0809 65.7502 19.3599 64.0274 17.2428 64.0274Z" fill="#332B29"/>
</g>
</g>
<g id="Group_28">
<g id="Group_29">
<path id="Vector_17" d="M32.5019 72.6509C35.1435 72.6509 37.2849 70.5094 37.2849 67.8679C37.2849 65.2263 35.1435 63.0848 32.5019 63.0848C29.8603 63.0848 27.7189 65.2263 27.7189 67.8679C27.7189 70.5094 29.8603 72.6509 32.5019 72.6509Z" fill="white"/>
</g>
<g id="Group_30">
<path id="Vector_18" d="M32.5011 73.594C29.3448 73.594 26.7762 71.0255 26.7762 67.8673C26.7762 64.7092 29.3448 62.1406 32.5011 62.1406C35.6593 62.1406 38.2278 64.7092 38.2278 67.8673C38.2278 71.0255 35.6593 73.594 32.5011 73.594ZM32.5011 64.0274C30.384 64.0274 28.663 65.7502 28.663 67.8673C28.663 69.9844 30.384 71.7073 32.5011 71.7073C34.6182 71.7073 36.341 69.9844 36.341 67.8673C36.341 65.7502 34.6182 64.0274 32.5011 64.0274Z" fill="#332B29"/>
</g>
</g>
<g id="Group_31">
<g id="Group_32">
<path id="Vector_19" d="M47.7623 72.6509C50.4039 72.6509 52.5453 70.5094 52.5453 67.8679C52.5453 65.2263 50.4039 63.0848 47.7623 63.0848C45.1207 63.0848 42.9792 65.2263 42.9792 67.8679C42.9792 70.5094 45.1207 72.6509 47.7623 72.6509Z" fill="white"/>
</g>
<g id="Group_33">
<path id="Vector_20" d="M47.7613 73.594C44.6031 73.594 42.0346 71.0255 42.0346 67.8673C42.0346 64.7092 44.6031 62.1406 47.7613 62.1406C50.9194 62.1406 53.488 64.7092 53.488 67.8673C53.488 71.0255 50.9194 73.594 47.7613 73.594ZM47.7613 64.0274C45.6442 64.0274 43.9214 65.7502 43.9214 67.8673C43.9214 69.9844 45.6442 71.7073 47.7613 71.7073C49.8784 71.7073 51.6012 69.9844 51.6012 67.8673C51.6012 65.7502 49.8784 64.0274 47.7613 64.0274Z" fill="#332B29"/>
</g>
</g>
<g id="Group_34">
<g id="Group_35">
<path id="Vector_21" d="M63.0208 72.6509C65.6623 72.6509 67.8038 70.5094 67.8038 67.8679C67.8038 65.2263 65.6623 63.0848 63.0208 63.0848C60.3792 63.0848 58.2377 65.2263 58.2377 67.8679C58.2377 70.5094 60.3792 72.6509 63.0208 72.6509Z" fill="white"/>
</g>
<g id="Group_36">
<path id="Vector_22" d="M63.0214 73.594C59.8633 73.594 57.2947 71.0255 57.2947 67.8673C57.2947 64.7092 59.8633 62.1406 63.0214 62.1406C66.1796 62.1406 68.7482 64.7092 68.7482 67.8673C68.7482 71.0255 66.1796 73.594 63.0214 73.594ZM63.0214 64.0274C60.9043 64.0274 59.1815 65.7502 59.1815 67.8673C59.1815 69.9844 60.9043 71.7073 63.0214 71.7073C65.1386 71.7073 66.8614 69.9844 66.8614 67.8673C66.8614 65.7502 65.1386 64.0274 63.0214 64.0274Z" fill="#332B29"/>
</g>
</g>
</g>
<g id="Group_37">
<g id="Group_38">
<g id="Group_39">
<path id="Vector_23" d="M17.2415 87.183C19.8831 87.183 22.0245 85.0415 22.0245 82.4C22.0245 79.7584 19.8831 77.6169 17.2415 77.6169C14.5999 77.6169 12.4585 79.7584 12.4585 82.4C12.4585 85.0415 14.5999 87.183 17.2415 87.183Z" fill="white"/>
</g>
<g id="Group_40">
<path id="Vector_24" d="M17.2409 88.1264C14.0846 88.1264 11.5161 85.5578 11.5161 82.3997C11.5161 79.2415 14.0846 76.673 17.2409 76.673C20.3991 76.673 22.9676 79.2415 22.9676 82.3997C22.9676 85.5578 20.3991 88.1264 17.2409 88.1264ZM17.2409 78.5598C15.1238 78.5598 13.4029 80.2826 13.4029 82.3997C13.4029 84.5168 15.1238 86.2396 17.2409 86.2396C19.358 86.2396 21.0809 84.5168 21.0809 82.3997C21.0809 80.2826 19.358 78.5598 17.2409 78.5598Z" fill="#332B29"/>
</g>
</g>
<g id="Group_41">
<g id="Group_42">
<path id="Vector_25" d="M32.5019 87.183C35.1435 87.183 37.2849 85.0415 37.2849 82.4C37.2849 79.7584 35.1435 77.6169 32.5019 77.6169C29.8603 77.6169 27.7189 79.7584 27.7189 82.4C27.7189 85.0415 29.8603 87.183 32.5019 87.183Z" fill="white"/>
</g>
<g id="Group_43">
<path id="Vector_26" d="M32.5011 88.1264C29.3429 88.1264 26.7744 85.5578 26.7744 82.3997C26.7744 79.2415 29.3429 76.673 32.5011 76.673C35.6593 76.673 38.2278 79.2415 38.2278 82.3997C38.2278 85.5578 35.6593 88.1264 32.5011 88.1264ZM32.5011 78.5598C30.384 78.5598 28.6612 80.2826 28.6612 82.3997C28.6612 84.5168 30.384 86.2396 32.5011 86.2396C34.6182 86.2396 36.341 84.5168 36.341 82.3997C36.341 80.2826 34.6182 78.5598 32.5011 78.5598Z" fill="#332B29"/>
</g>
</g>
<g id="Group_44">
<g id="Group_45">
<path id="Vector_27" d="M47.7604 87.183C50.402 87.183 52.5434 85.0415 52.5434 82.4C52.5434 79.7584 50.402 77.6169 47.7604 77.6169C45.1188 77.6169 42.9774 79.7584 42.9774 82.4C42.9774 85.0415 45.1188 87.183 47.7604 87.183Z" fill="white"/>
</g>
<g id="Group_46">
<path id="Vector_28" d="M47.7613 88.1264C44.6031 88.1264 42.0346 85.5578 42.0346 82.3997C42.0346 79.2415 44.6031 76.673 47.7613 76.673C50.9194 76.673 53.488 79.2415 53.488 82.3997C53.488 85.5578 50.9194 88.1264 47.7613 88.1264ZM47.7613 78.5598C45.6442 78.5598 43.9214 80.2826 43.9214 82.3997C43.9214 84.5168 45.6442 86.2396 47.7613 86.2396C49.8784 86.2396 51.6012 84.5168 51.6012 82.3997C51.6012 80.2826 49.8784 78.5598 47.7613 78.5598Z" fill="#332B29"/>
</g>
</g>
<g id="Group_47">
<g id="Group_48">
<path id="Vector_29" d="M63.0208 87.183C65.6623 87.183 67.8038 85.0415 67.8038 82.4C67.8038 79.7584 65.6623 77.6169 63.0208 77.6169C60.3792 77.6169 58.2377 79.7584 58.2377 82.4C58.2377 85.0415 60.3792 87.183 63.0208 87.183Z" fill="white"/>
</g>
<g id="Group_49">
<path id="Vector_30" d="M63.0214 88.1264C59.8633 88.1264 57.2947 85.5578 57.2947 82.3997C57.2947 79.2415 59.8633 76.673 63.0214 76.673C66.1796 76.673 68.7482 79.2415 68.7482 82.3997C68.7482 85.5578 66.1796 88.1264 63.0214 88.1264ZM63.0214 78.5598C60.9043 78.5598 59.1815 80.2826 59.1815 82.3997C59.1815 84.5168 60.9043 86.2396 63.0214 86.2396C65.1386 86.2396 66.8614 84.5168 66.8614 82.3997C66.8614 80.2826 65.1386 78.5598 63.0214 78.5598Z" fill="#332B29"/>
</g>
</g>
</g>
<g id="Group_50">
<g id="Group_51">
<g id="Group_52">
<g id="Group_53">
<g id="Group_54">
<g id="Group_55">
<g id="Group_56">
<g id="Group_57">
<g id="Group_58">
<g id="Group_59">
<path id="Vector_31" d="M71.9811 95.2C81.8441 95.2 89.8396 87.2045 89.8396 77.3415C89.8396 67.4786 81.8441 59.483 71.9811 59.483C62.1182 59.483 54.1226 67.4786 54.1226 77.3415C54.1226 87.2045 62.1182 95.2 71.9811 95.2Z" fill="#FF6656"/>
</g>
<g id="Group_60">
<path id="Vector_32" d="M71.9819 96.1435C61.6137 96.1435 53.1784 87.71 53.1784 77.3419C53.1784 66.9737 61.6119 58.5385 71.98 58.5385C82.3482 58.5385 90.7835 66.9737 90.7835 77.3419C90.7835 87.71 82.35 96.1435 71.9819 96.1435ZM71.98 60.4252C62.6529 60.4252 55.0652 68.0148 55.0652 77.3419C55.0652 86.669 62.6548 94.2567 71.9819 94.2567C81.309 94.2567 88.8967 86.669 88.8967 77.3419C88.8967 68.0148 81.3071 60.4252 71.98 60.4252Z" fill="#332B29"/>
</g>
</g>
<g id="Group_61">
<g id="Group_62">
<path id="Vector_33" d="M71.9811 90.7132C79.3661 90.7132 85.3528 84.7265 85.3528 77.3415C85.3528 69.9566 79.3661 63.9698 71.9811 63.9698C64.5962 63.9698 58.6094 69.9566 58.6094 77.3415C58.6094 84.7265 64.5962 90.7132 71.9811 90.7132Z" fill="white"/>
</g>
</g>
</g>
</g>
</g>
</g>
</g>
<path id="Shape-Copy" d="M64.6465 85.8585L75.9968 80.7645L72.4061 76.8824L64.6465 85.8585ZM68.74 73.0771L72.3463 76.8824L78.7879 68.6868L68.74 73.0771Z" fill="#332B29"/>
</g>
</g>
</g>
<g id="Group_63">
<g id="Group_64">
<g id="Group_65">
<path id="Vector_34" d="M36.8083 34.317V30.9135H30.7014V29.202L37.0806 20.3528H38.5587V29.3867H40.6106V30.9135H38.5587V34.317H36.8083ZM36.7791 29.3867V23.0756L32.3157 29.3867H36.7791Z" fill="#332B29"/>
</g>
</g>
<g id="Group_66">
<g id="Group_67">
<path id="Vector_35" d="M43.7321 30.7677C43.8488 31.766 44.3123 32.4565 45.1227 32.839C45.5376 33.0335 46.0173 33.1307 46.5619 33.1307C47.5992 33.1307 48.3674 32.8001 48.8666 32.1388C49.3658 31.4776 49.6154 30.745 49.6154 29.9411C49.6154 28.9687 49.3188 28.2166 48.7256 27.685C48.1324 27.1534 47.4209 26.8876 46.5911 26.8876C45.9882 26.8876 45.4711 27.0043 45.04 27.2377C44.6089 27.4711 44.241 27.7952 43.9363 28.2102L42.4193 28.1226L43.4793 20.6251H50.7142V22.3172H44.7921L44.1989 26.1875C44.523 25.9411 44.8309 25.7564 45.1227 25.6332C45.6413 25.4193 46.241 25.3123 46.9217 25.3123C48.1988 25.3123 49.2815 25.7239 50.1696 26.5473C51.0578 27.3706 51.5019 28.4144 51.5019 29.6785C51.5019 30.9946 51.0951 32.155 50.2815 33.1599C49.4679 34.1647 48.1697 34.6672 46.3869 34.6672C45.2523 34.6672 44.2491 34.3479 43.3772 33.7093C42.5052 33.0707 42.0174 32.0902 41.9136 30.7677H43.7321Z" fill="#332B29"/>
</g>
</g>
<g id="Group_68">
<g id="Group_69">
<path id="Vector_36" d="M61.4256 21.5441C62.0383 22.3512 62.3446 23.1826 62.3446 24.0384H60.6136C60.5099 23.4873 60.3446 23.0562 60.1177 22.745C59.6963 22.1616 59.0577 21.8698 58.202 21.8698C57.2231 21.8698 56.4451 22.322 55.8681 23.2264C55.2912 24.1308 54.9703 25.4257 54.9054 27.1113C55.3074 26.5213 55.813 26.0805 56.4224 25.7888C56.98 25.5294 57.6023 25.3998 58.2895 25.3998C59.4564 25.3998 60.4743 25.7726 61.343 26.5181C62.2117 27.2636 62.646 28.3755 62.646 29.8536C62.646 31.1177 62.2344 32.2377 61.411 33.2133C60.5877 34.189 59.4143 34.6769 57.8908 34.6769C56.5877 34.6769 55.463 34.1825 54.5164 33.1939C53.5699 32.2052 53.0967 30.5408 53.0967 28.2004C53.0967 26.4695 53.3074 25.0011 53.7288 23.7953C54.5391 21.4873 56.0205 20.3334 58.1728 20.3334C59.7287 20.3334 60.813 20.7369 61.4256 21.5441ZM60.1128 32.1923C60.5699 31.5732 60.7984 30.8422 60.7984 29.9994C60.7984 29.2863 60.5942 28.6072 60.1858 27.9622C59.7773 27.3171 59.0351 26.9946 57.9589 26.9946C57.2069 26.9946 56.5472 27.2442 55.98 27.7434C55.4127 28.2426 55.1291 28.9946 55.1291 29.9994C55.1291 30.8811 55.3868 31.6218 55.9022 32.2215C56.4176 32.8211 57.1323 33.121 58.0464 33.121C58.967 33.121 59.6558 32.8114 60.1128 32.1923Z" fill="#332B29"/>
</g>
</g>
</g>
</g>
</g>
</svg>
