<svg width="100" height="100" viewBox="0 0 100 100" fill="none" xmlns="http://www.w3.org/2000/svg">
<g id="fi_15799133">
<g id="Group">
<g id="Group_2">
<g id="Group_3">
<g id="Group_4">
<g id="Group_5">
<g id="Group_6">
<g id="Group_7">
<g id="Group_8">
<g id="Group_9">
<g id="Group_10">
<g id="Group_11">
<g id="Group_12">
<g id="Group_13">
<g id="Group_14">
<g id="Group_15">
<g id="Group_16">
<g id="Group_17">
<g id="Group_18">
<path id="Vector" d="M82.0779 93.6395C82.2665 94.5075 81.5684 95.3377 80.6628 95.3377H25.0024C23.8702 95.3377 23.1532 94.0358 23.7948 93.1113C25.3042 90.998 27.757 89.6207 30.5495 89.6207C32.1722 89.6207 33.7005 90.0735 35.0024 90.9225C35.8891 87.2622 39.1721 84.583 43.0966 84.583C44.5117 84.583 45.7948 84.8848 46.9269 85.5075C47.5683 82.7716 49.323 80.4698 51.6815 79.1112V42.9037C42.4552 41.4886 35.3985 33.5075 35.3985 23.8849C35.3985 13.2811 44.0023 4.65845 54.6249 4.65845C65.2476 4.65845 73.8513 13.2811 73.8513 23.8849C73.8513 33.5075 66.7948 41.4886 57.5683 42.9037V77.7717C62.4552 78.1489 66.3608 82.0169 66.8325 86.9037C68.3608 85.9792 70.1533 85.4509 72.0778 85.4509C77.0211 85.4509 81.1345 88.9792 82.0779 93.6395Z" fill="#332B29"/>
</g>
<g id="Group_19">
<path id="Vector_2" d="M80.6635 96.2812H25.0031C24.115 96.2812 23.3043 95.7847 22.886 94.9859C22.477 94.2056 22.5286 93.2815 23.0187 92.574C24.7636 90.1298 27.5754 88.6769 30.5493 88.6769C31.9183 88.6769 33.2468 88.9718 34.45 89.5365C35.8117 86.0107 39.2112 83.6394 43.0972 83.6394C44.2562 83.6394 45.3378 83.8264 46.3272 84.1967C47.1287 81.8972 48.6875 79.9081 50.7383 78.5824V43.697C41.4002 41.8683 34.4555 33.4929 34.4555 23.8848C34.4555 12.763 43.5026 3.71509 54.6243 3.71509C65.7461 3.71509 74.7949 12.763 74.7949 23.8848C74.7949 33.4929 67.8503 41.8683 58.5121 43.697V76.9324C63.0025 77.6381 66.5789 81.034 67.5592 85.4626C68.9706 84.8343 70.5091 84.5072 72.0771 84.5072C77.358 84.5072 81.9515 88.267 83.0017 93.4474C83.1473 94.1291 82.9759 94.8357 82.5319 95.3867C82.0731 95.9551 81.3913 96.2812 80.6635 96.2812ZM30.5493 90.5637C28.1853 90.5637 25.9465 91.7209 24.5628 93.6593C24.443 93.8306 24.5075 94.0167 24.5572 94.1107C24.5923 94.177 24.7268 94.3944 25.0031 94.3944H80.6635C80.8183 94.3944 80.9639 94.3244 81.0634 94.2019C81.1131 94.1392 81.1923 94.0084 81.1573 93.8398C81.1555 93.8352 81.1555 93.8315 81.1536 93.8269C80.2821 89.5199 76.4643 86.394 72.0771 86.394C70.3893 86.394 68.7458 86.8491 67.3215 87.7105C67.0451 87.8791 66.7024 87.892 66.4094 87.7464C66.1201 87.6009 65.9248 87.3171 65.8935 86.9938C65.4642 82.5375 61.9319 79.0541 57.4969 78.7123C57.0049 78.6746 56.6253 78.2646 56.6253 77.7717V42.9038C56.6253 42.4376 56.9644 42.0415 57.425 41.9715C66.2528 40.6172 72.9081 32.8415 72.9081 23.8848C72.9081 13.8032 64.7069 5.60188 54.6243 5.60188C44.5436 5.60188 36.3423 13.8032 36.3423 23.8848C36.3423 32.8415 42.9977 40.6172 51.8255 41.9715C52.2843 42.0415 52.6251 42.4376 52.6251 42.9038V79.1112C52.6251 79.4484 52.4446 79.7598 52.1534 79.9284C49.9866 81.1768 48.4167 83.2883 47.8437 85.7233C47.7773 86.0107 47.5783 86.2503 47.3093 86.37C47.0421 86.4898 46.7307 86.476 46.4709 86.3341C45.4962 85.7979 44.3612 85.5261 43.0972 85.5261C39.6719 85.5261 36.7201 87.8367 35.9204 91.1441C35.8485 91.4417 35.6348 91.6859 35.351 91.7992C35.0654 91.9107 34.7448 91.8803 34.4887 91.7126C33.3334 90.9608 31.9717 90.5637 30.5493 90.5637Z" fill="#332B29"/>
</g>
</g>
<g id="Group_20">
<g id="Group_21">
<path id="Vector_3" d="M51.9072 32.7025V85.0009C51.9072 86.615 50.5958 87.9264 48.9615 87.9264C47.3474 87.9264 46.0156 86.615 46.0156 85.0009V32.7025C46.0156 31.0681 47.3474 29.7567 48.9615 29.7567C50.5958 29.7567 51.9072 31.0681 51.9072 32.7025Z" fill="#524B48"/>
</g>
<g id="Group_22">
<path id="Vector_4" d="M48.9621 88.8696C46.8173 88.8696 45.0724 87.1339 45.0724 85.0011V32.7025C45.0724 30.5586 46.8173 28.8137 48.9621 28.8137C51.105 28.8137 52.8499 30.5586 52.8499 32.7025V85.0011C52.8499 87.1339 51.105 88.8696 48.9621 88.8696ZM48.9621 30.7005C47.8584 30.7005 46.9592 31.5988 46.9592 32.7025V85.0011C46.9592 86.0937 47.8584 86.9828 48.9621 86.9828C50.0658 86.9828 50.9631 86.0937 50.9631 85.0011V32.7025C50.9631 31.5794 50.0842 30.7005 48.9621 30.7005Z" fill="#332B29"/>
</g>
</g>
<g id="Group_23">
<g id="Group_24">
<path id="Vector_5" d="M76.4143 93.6434C76.6029 94.5114 75.9048 95.3416 74.9992 95.3416H19.3388C18.2068 95.3416 17.4898 94.0397 18.1313 93.1151C19.6407 91.0019 22.0936 89.6246 24.886 89.6246C26.5086 89.6246 28.0369 90.0774 29.3388 90.9265C30.2257 87.2661 33.5087 84.5869 37.4331 84.5869C38.8482 84.5869 40.1313 84.8887 41.2633 85.5114C42.3199 81.0397 46.3199 77.7378 51.0936 77.7378C56.3577 77.7378 60.6784 81.7567 61.169 86.9076C62.6973 85.9831 64.4898 85.4547 66.4143 85.4547C71.3577 85.4547 75.4709 88.9831 76.4143 93.6434Z" fill="#FFD737"/>
</g>
<g id="Group_25">
<path id="Vector_6" d="M74.9995 96.2849H19.3391C18.451 96.2849 17.6402 95.7883 17.222 94.9896C16.8129 94.2092 16.8645 93.2852 17.3546 92.5777C19.1032 90.1335 21.915 88.6815 24.8852 88.6815C26.2561 88.6815 27.5827 88.9763 28.7859 89.5411C30.1476 86.0153 33.5471 83.643 37.4331 83.643C38.5921 83.643 39.6737 83.83 40.6632 84.2004C42.1906 79.7874 46.3309 76.7942 51.0939 76.7942C56.3674 76.7942 60.7951 80.437 61.8969 85.4653C63.3083 84.8379 64.8469 84.5109 66.4149 84.5109C71.6939 84.5109 76.2874 88.2706 77.3377 93.451C77.4832 94.1328 77.3119 94.8394 76.8678 95.3903C76.409 95.9588 75.7273 96.2849 74.9995 96.2849ZM24.8852 90.5683C22.4862 90.5683 20.3046 91.6969 18.8969 93.6638C18.7789 93.8343 18.8434 94.0204 18.8932 94.1144C18.9282 94.1807 19.0627 94.3981 19.3391 94.3981H74.9995C75.1542 94.3981 75.2998 94.3281 75.3993 94.2056C75.449 94.1429 75.5283 94.0121 75.4933 93.8435C75.4914 93.8389 75.4914 93.8352 75.4896 93.8306C74.618 89.5236 70.8021 86.3977 66.4149 86.3977C64.7271 86.3977 63.0817 86.8528 61.6574 87.7142C61.3792 87.8828 61.0365 87.8957 60.7453 87.7501C60.456 87.6046 60.2607 87.3199 60.2294 86.9965C59.778 82.2556 55.8515 78.681 51.0939 78.681C46.8266 78.681 43.1617 81.5793 42.1814 85.7279C42.1151 86.0153 41.9161 86.2539 41.6471 86.3737C41.3799 86.4944 41.0685 86.4815 40.8087 86.3378C39.834 85.8016 38.6971 85.5298 37.4331 85.5298C34.0078 85.5298 31.056 87.8404 30.2563 91.1487C30.1826 91.4463 29.9707 91.6905 29.687 91.8038C29.4032 91.9152 29.0826 91.8848 28.8228 91.7172C27.6712 90.9654 26.3095 90.5683 24.8852 90.5683Z" fill="#332B29"/>
</g>
</g>
<g id="Group_26">
<g id="Group_27">
<path id="Vector_7" d="M48.9623 43.1227C59.5828 43.1227 68.1925 34.5131 68.1925 23.8925C68.1925 13.272 59.5828 4.66235 48.9623 4.66235C38.3417 4.66235 29.7321 13.272 29.7321 23.8925C29.7321 34.5131 38.3417 43.1227 48.9623 43.1227Z" fill="#007D98"/>
</g>
<g id="Group_28">
<path id="Vector_8" d="M48.9621 44.0656C37.8403 44.0665 28.7896 35.0176 28.7878 23.8931C28.7878 12.7704 37.8367 3.72065 48.9603 3.71973C60.0839 3.71973 69.1346 12.7695 69.1346 23.8922C69.1346 35.0158 60.0857 44.0656 48.9621 44.0656ZM48.9603 5.60652C38.8777 5.60744 30.6745 13.8106 30.6745 23.8931C30.6764 33.9766 38.8795 42.1797 48.9621 42.1788C59.0446 42.1788 67.2478 33.9757 67.2478 23.8922C67.2478 13.8096 59.0446 5.60652 48.9603 5.60652Z" fill="#332B29"/>
</g>
</g>
<g id="Group_29">
<g id="Group_30">
<path id="Vector_9" d="M48.9623 38.2887C56.9131 38.2887 63.3585 31.8433 63.3585 23.8924C63.3585 15.9416 56.9131 9.49622 48.9623 9.49622C41.0115 9.49622 34.566 15.9416 34.566 23.8924C34.566 31.8433 41.0115 38.2887 48.9623 38.2887Z" fill="white"/>
</g>
</g>
<g id="Group_31">
<g id="Group_32">
<path id="Vector_10" d="M39.5429 24.8365H38.3249C37.8035 24.8365 37.3815 24.4146 37.3815 23.8931C37.3815 23.3717 37.8035 22.9497 38.3249 22.9497H39.5429C40.0643 22.9497 40.4863 23.3717 40.4863 23.8931C40.4863 24.4146 40.0643 24.8365 39.5429 24.8365Z" fill="#332B29"/>
</g>
</g>
<g id="Group_33">
<g id="Group_34">
<path id="Vector_11" d="M59.5992 24.8355H58.3795C57.858 24.8355 57.4361 24.4136 57.4361 23.8921C57.4361 23.3707 57.858 22.9487 58.3795 22.9487H59.5992C60.1207 22.9487 60.5426 23.3707 60.5426 23.8921C60.5426 24.4136 60.1207 24.8355 59.5992 24.8355Z" fill="#332B29"/>
</g>
</g>
</g>
</g>
</g>
</g>
</g>
</g>
</g>
</g>
</g>
</g>
</g>
<g id="Group_35">
<g id="Group_36">
<g id="Group_37">
<path id="Vector_12" d="M49.0266 24.8365H44.5123C43.9908 24.8365 43.5689 24.4145 43.5689 23.8931V15.8604C43.5689 15.3389 43.9908 14.917 44.5123 14.917H49.0266C51.7591 14.917 53.9812 17.1401 53.9812 19.8726C53.9812 21.1882 53.4672 22.4328 52.533 23.3781C51.5896 24.3206 50.3459 24.8365 49.0266 24.8365ZM45.4557 22.9497H49.0266C49.8428 22.9497 50.613 22.6291 51.1953 22.0477C51.7738 21.4627 52.0945 20.6888 52.0945 19.8726C52.0945 18.1802 50.7181 16.8038 49.0266 16.8038H45.4557V22.9497Z" fill="#332B29"/>
</g>
</g>
<g id="Group_38">
<g id="Group_39">
<path id="Vector_13" d="M50.7733 32.8683H44.5123C43.9908 32.8683 43.5689 32.4463 43.5689 31.9249V23.8931C43.5689 23.3717 43.9908 22.9497 44.5123 22.9497H50.7733C53.5059 22.9497 55.728 25.1728 55.728 27.9044C55.728 29.2181 55.2139 30.4637 54.2779 31.4099C53.3382 32.3514 52.0945 32.8683 50.7733 32.8683ZM45.4557 30.9815H50.7733C51.5896 30.9815 52.3598 30.6618 52.9402 30.0805C53.5206 29.4936 53.8412 28.7188 53.8412 27.9044C53.8412 26.2129 52.4648 24.8365 50.7733 24.8365H45.4557V30.9815Z" fill="#332B29"/>
</g>
</g>
<g id="Group_40">
<g id="Group_41">
<path id="Vector_14" d="M44.5123 16.8038H43.1377C42.6163 16.8038 42.1943 16.3818 42.1943 15.8604C42.1943 15.3389 42.6163 14.917 43.1377 14.917H44.5123C45.0337 14.917 45.4557 15.3389 45.4557 15.8604C45.4557 16.3818 45.0337 16.8038 44.5123 16.8038Z" fill="#332B29"/>
</g>
</g>
<g id="Group_42">
<g id="Group_43">
<g id="Group_44">
<path id="Vector_15" d="M45.6897 16.8038C45.1683 16.8038 44.7463 16.3819 44.7463 15.8604V14.4859C44.7463 13.9644 45.1683 13.5425 45.6897 13.5425C46.2112 13.5425 46.6331 13.9644 46.6331 14.4859V15.8604C46.6331 16.3819 46.2112 16.8038 45.6897 16.8038Z" fill="#332B29"/>
</g>
</g>
<g id="Group_45">
<g id="Group_46">
<path id="Vector_16" d="M48.5291 16.8038C48.0077 16.8038 47.5857 16.3819 47.5857 15.8604V14.4859C47.5857 13.9644 48.0077 13.5425 48.5291 13.5425C49.0506 13.5425 49.4725 13.9644 49.4725 14.4859V15.8604C49.4725 16.3819 49.0506 16.8038 48.5291 16.8038Z" fill="#332B29"/>
</g>
</g>
</g>
<g id="Group_47">
<g id="Group_48">
<g id="Group_49">
<path id="Vector_17" d="M45.6897 34.2428C45.1683 34.2428 44.7463 33.8208 44.7463 33.2994V31.9248C44.7463 31.4034 45.1683 30.9814 45.6897 30.9814C46.2112 30.9814 46.6331 31.4034 46.6331 31.9248V33.2994C46.6331 33.8208 46.2112 34.2428 45.6897 34.2428Z" fill="#332B29"/>
</g>
</g>
<g id="Group_50">
<g id="Group_51">
<path id="Vector_18" d="M48.5291 34.2428C48.0077 34.2428 47.5857 33.8208 47.5857 33.2994V31.9248C47.5857 31.4034 48.0077 30.9814 48.5291 30.9814C49.0506 30.9814 49.4725 31.4034 49.4725 31.9248V33.2994C49.4725 33.8208 49.0506 34.2428 48.5291 34.2428Z" fill="#332B29"/>
</g>
</g>
</g>
<g id="Group_52">
<g id="Group_53">
<path id="Vector_19" d="M44.5123 32.8682H43.1377C42.6163 32.8682 42.1943 32.4463 42.1943 31.9248C42.1943 31.4034 42.6163 30.9814 43.1377 30.9814H44.5123C45.0337 30.9814 45.4557 31.4034 45.4557 31.9248C45.4557 32.4463 45.0337 32.8682 44.5123 32.8682Z" fill="#332B29"/>
</g>
</g>
</g>
</g>
</g>
</g>
</g>
<g id="Group_54">
<g id="Group_55">
<g id="Group_56">
<g id="Group_57">
<g id="Group_58">
<path id="Vector_20" d="M42.7869 69.9646C42.4633 71.4759 41.4781 72.8144 40.0653 73.4321C38.4129 74.1464 35.8911 74.3463 32.849 71.6687C30.3388 69.4503 28.8575 66.3077 28.4442 62.9806C28.1872 60.9216 28.0872 58.4264 28.5605 56.1279C28.6416 55.7406 29.1687 55.6859 29.326 56.0518C29.9804 57.5278 31.4225 59.943 34.1309 60.6608C34.1309 60.6608 44.6047 61.6338 42.7869 69.9646Z" fill="#007D98"/>
</g>
<g id="Group_59">
<path id="Vector_21" d="M37.8588 74.8401C36.2631 74.8401 34.3431 74.2413 32.226 72.3775C29.6427 70.0937 27.9678 66.7982 27.509 63.0965C27.1719 60.3999 27.2142 57.9908 27.638 55.9372C27.7596 55.355 28.235 54.9266 28.8228 54.8685C29.4308 54.8031 29.9597 55.1357 30.1937 55.6802C30.7446 56.9267 32.0307 59.1276 34.3726 59.7486C34.5053 59.7486 39.9888 60.3124 42.5997 63.8824C43.8674 65.6135 44.2414 67.7269 43.7108 70.1628C43.3091 72.0311 42.0875 73.5771 40.4439 74.2966C39.7308 74.6043 38.8593 74.8401 37.8588 74.8401ZM29.2503 57.9115C29.1102 59.392 29.1545 61.0513 29.3811 62.8634C29.7846 66.1091 31.2366 68.9854 33.4734 70.9625C35.644 72.8704 37.7316 73.4103 39.6921 72.5664C40.7774 72.091 41.5918 71.0435 41.8645 69.7666C41.8664 69.7657 41.8664 69.7648 41.8664 69.7639C42.2772 67.8798 42.0119 66.2777 41.0814 65.0017C38.9643 62.1006 34.0925 61.605 34.0428 61.5994C31.6714 60.9812 30.1623 59.3543 29.2503 57.9115Z" fill="#332B29"/>
</g>
</g>
<g id="Group_60">
<g id="Group_61">
<path id="Vector_22" d="M45.8776 76.3068C45.7634 76.3068 45.6473 76.2866 45.5349 76.2423C41.0317 74.4818 38.664 72.548 38.4981 70.4944C38.1333 66.0041 33.256 65.0331 33.0478 64.9944C32.5374 64.8976 32.2002 64.4057 32.2942 63.8944C32.39 63.3821 32.8912 63.0403 33.3905 63.1389C35.6385 63.5498 39.9924 65.5849 40.3775 70.3415C40.4531 71.2692 42.0285 72.8456 46.2203 74.4845C46.7068 74.6743 46.9463 75.2216 46.7565 75.7071C46.611 76.0793 46.2553 76.3068 45.8776 76.3068Z" fill="#332B29"/>
</g>
</g>
</g>
<g id="Group_62">
<g id="Group_63">
<g id="Group_64">
<path id="Vector_23" d="M55.7692 56.8009C55.9864 58.6083 56.9982 60.2841 58.589 61.1604C60.4504 62.1757 63.3868 62.6811 67.2427 59.8673C70.4253 57.5349 72.5003 54.0079 73.3425 50.1499C73.8651 47.7625 74.2505 44.8465 73.9422 42.0996C73.8888 41.6366 73.2764 41.5159 73.0525 41.9281C72.1264 43.5891 70.1754 46.2671 66.9216 46.818C66.9216 46.818 54.532 46.8341 55.7692 56.8009Z" fill="#007D98"/>
</g>
<g id="Group_65">
<path id="Vector_24" d="M61.7145 62.9122C60.2718 62.9122 59.0686 62.4967 58.1381 61.9882C56.3305 60.9932 55.096 59.0981 54.8325 56.9165C54.4769 54.0504 55.1273 51.656 56.7672 49.7977C60.1834 45.9274 66.6471 45.8749 66.9198 45.8749C69.6486 45.3995 71.4249 42.9102 72.2282 41.4693C72.5231 40.9294 73.1385 40.6411 73.741 40.7599C74.3509 40.8788 74.8078 41.3735 74.8797 41.9908C75.1524 44.4202 74.946 47.2319 74.2643 50.3514C73.3375 54.6022 71.0416 58.2524 67.8005 60.6284C65.4697 62.3291 63.4244 62.9122 61.7145 62.9122ZM73.1016 43.6187C71.9261 45.2862 69.9674 47.2596 67.0783 47.7488C66.8645 47.7617 61.0236 47.8188 58.1786 51.0516C56.9146 52.486 56.419 54.3811 56.7046 56.6843V56.688C56.8962 58.2689 57.7696 59.6324 59.0446 60.3335C61.3036 61.5671 63.8777 61.1553 66.6858 59.1055C69.5547 57.0031 71.5907 53.75 72.4217 49.9488C72.9284 47.629 73.1551 45.5073 73.1016 43.6187Z" fill="#332B29"/>
</g>
</g>
<g id="Group_66">
<g id="Group_67">
<path id="Vector_25" d="M51.9065 63.605C51.4938 63.605 51.1161 63.3332 50.9981 62.9177C50.8563 62.4165 51.1492 61.8951 51.6504 61.7541C55.3871 60.6983 57.8396 59.2998 58.0478 58.1049C58.8659 53.4018 63.3857 51.7729 65.6613 51.5684C66.1699 51.5196 66.6379 51.9019 66.6839 52.4215C66.7319 52.9393 66.3504 53.3981 65.8327 53.4478C65.6226 53.4672 60.679 53.9877 59.9051 58.4283C59.5477 60.4901 56.9423 62.2203 52.1626 63.5691C52.0779 63.594 51.9913 63.605 51.9065 63.605Z" fill="#332B29"/>
</g>
</g>
</g>
<g id="Group_68">
<g id="Group_69">
<g id="Group_70">
<path id="Vector_26" d="M43.2494 51.6076C43.0938 52.9022 42.3691 54.1025 41.2297 54.7302C39.8964 55.4574 37.7932 55.8194 35.0314 53.804C32.7518 52.1334 31.2655 49.6071 30.6623 46.8438C30.2879 45.1337 30.0119 43.0451 30.2327 41.0776C30.271 40.746 30.7096 40.6595 30.87 40.9548C31.5333 42.1445 32.9307 44.0626 35.2613 44.4572C35.2613 44.4572 44.1356 44.4688 43.2494 51.6076Z" fill="#007D98"/>
</g>
<g id="Group_71">
<path id="Vector_27" d="M38.9882 56.255C37.715 56.255 36.1986 55.823 34.4758 54.5663C32.1026 52.8269 30.4203 50.1561 29.7404 47.0459C29.2466 44.785 29.0955 42.7416 29.2945 40.9728C29.3608 40.4089 29.7754 39.9612 30.3263 39.8543C30.8791 39.7502 31.43 40.0091 31.699 40.5038C32.3679 41.7052 33.5619 43.2124 35.4173 43.5266C35.4763 43.5238 40.2154 43.5579 42.736 46.4148C43.9632 47.805 44.4515 49.5905 44.1861 51.7214C43.9871 53.3705 43.0511 54.8049 41.6839 55.5567C40.9801 55.9409 40.0735 56.255 38.9882 56.255ZM31.102 42.9452C31.1315 44.0747 31.2918 45.312 31.5829 46.6424C32.1652 49.304 33.5877 51.5768 35.5905 53.0434C37.5068 54.4429 39.2536 54.7322 40.7774 53.9021C41.6121 53.4433 42.1869 52.5423 42.3141 51.4948C42.3141 51.4938 42.3141 51.4929 42.3141 51.492C42.5112 49.8973 42.1869 48.6452 41.3209 47.6631C39.3512 45.4318 35.2994 45.4005 35.2589 45.4005C33.3537 45.0863 32.0049 44.0102 31.102 42.9452Z" fill="#332B29"/>
</g>
</g>
<g id="Group_72">
<g id="Group_73">
<path id="Vector_28" d="M46.0158 56.7488C45.931 56.7488 45.8444 56.7378 45.7597 56.7138C42.2293 55.717 40.2983 54.406 40.0238 52.8177C39.506 49.8456 36.1581 49.4863 36.0162 49.4725C35.5003 49.4219 35.1188 48.9621 35.1668 48.4453C35.2165 47.9266 35.6771 47.5507 36.1894 47.5931C37.8901 47.746 41.2675 48.9667 41.8811 52.4943C41.9879 53.1042 43.3865 54.0826 46.2719 54.898C46.7731 55.0389 47.0661 55.5604 46.9242 56.0616C46.8063 56.4771 46.4285 56.7488 46.0158 56.7488Z" fill="#332B29"/>
</g>
</g>
</g>
</g>
</g>
</g>
</g>
</svg>
