<svg width="100" height="100" viewBox="0 0 100 100" fill="none" xmlns="http://www.w3.org/2000/svg">
<g id="fi_15289288">
<g id="Group">
<g id="Group_2">
<g id="Group_3">
<g id="Group_4">
<g id="Group_5">
<g id="Group_6">
<g id="Group_7">
<g id="Group_8">
<g id="Group_9">
<g id="Group_10">
<g id="Group_11">
<g id="Group_12">
<g id="Group_13">
<g id="Group_14">
<g id="Group_15">
<g id="Group_16">
<g id="Group_17">
<g id="Group_18">
<g id="Group_19">
<g id="Group_20">
<path id="Vector" d="M72.7603 49.9396C85.2649 49.9396 95.4019 39.8027 95.4019 27.2981C95.4019 14.7936 85.2649 4.65662 72.7603 4.65662C60.2558 4.65662 50.1188 14.7936 50.1188 27.2981C50.1188 39.8027 60.2558 49.9396 72.7603 49.9396Z" fill="#332B29"/>
</g>
<g id="Group_21">
<path id="Vector_2" d="M72.7631 50.8817C72.7612 50.8817 72.7612 50.8817 72.7594 50.8817C66.4596 50.8817 60.5376 48.4293 56.0823 43.9739C51.6288 39.5204 49.1745 33.5966 49.1763 27.2968C49.1763 14.2938 59.7564 3.71375 72.7612 3.71375C85.7643 3.71375 96.3443 14.2938 96.3443 27.2987C96.3443 33.5984 93.8918 39.5204 89.4365 43.9758C84.983 48.4293 79.061 50.8817 72.7631 50.8817ZM72.7612 5.60054C60.7974 5.60054 51.0631 15.333 51.0631 27.2968C51.0631 33.0935 53.3184 38.542 57.4163 42.6399C61.5142 46.7378 66.9645 48.9949 72.7594 48.9949H72.7631C78.5561 48.9949 84.0046 46.7378 88.1025 42.6417C92.2004 38.542 94.4575 33.0935 94.4575 27.2987C94.4575 15.3348 84.725 5.60054 72.7612 5.60054Z" fill="#332B29"/>
</g>
</g>
<g id="Group_22">
<g id="Group_23">
<path id="Vector_3" d="M67.9245 49.9396C80.4291 49.9396 90.566 39.8027 90.566 27.2981C90.566 14.7936 80.4291 4.65662 67.9245 4.65662C55.42 4.65662 45.283 14.7936 45.283 27.2981C45.283 39.8027 55.42 49.9396 67.9245 49.9396Z" fill="#A1FD59"/>
</g>
<g id="Group_24">
<path id="Vector_4" d="M67.9282 50.8817C67.9263 50.8817 67.9263 50.8817 67.9245 50.8817C54.9196 50.8817 44.3396 40.3017 44.3396 27.2968C44.3396 14.2938 54.9196 3.71375 67.9245 3.71375C80.9294 3.71375 91.5094 14.2938 91.5094 27.2987C91.5094 33.5984 89.0569 39.5204 84.6016 43.9758C80.1481 48.4293 74.2261 50.8817 67.9282 50.8817ZM67.9245 5.60054C55.9607 5.60054 46.2264 15.333 46.2264 27.2968C46.2264 39.2606 55.9607 48.9949 67.9245 48.9949H67.9282C73.7212 48.9949 79.1697 46.7378 83.2676 42.6417C87.3655 38.542 89.6226 33.0935 89.6226 27.2987C89.6226 15.3348 79.8883 5.60054 67.9245 5.60054Z" fill="#332B29"/>
</g>
</g>
<g id="Group_25">
<g id="Group_26">
<path id="Vector_5" d="M67.9245 44.2491C77.2863 44.2491 84.8755 36.6599 84.8755 27.2981C84.8755 17.9364 77.2863 10.3472 67.9245 10.3472C58.5628 10.3472 50.9736 17.9364 50.9736 27.2981C50.9736 36.6599 58.5628 44.2491 67.9245 44.2491Z" fill="white"/>
</g>
</g>
<g id="Group_27">
<g id="Group_28">
<path id="Vector_6" d="M56.9189 28.242H55.4835C54.962 28.242 54.5401 27.8201 54.5401 27.2986C54.5401 26.7772 54.962 26.3552 55.4835 26.3552H56.9189C57.4403 26.3552 57.8623 26.7772 57.8623 27.2986C57.8623 27.8201 57.4403 28.242 56.9189 28.242Z" fill="#332B29"/>
</g>
</g>
<g id="Group_29">
<g id="Group_30">
<path id="Vector_7" d="M80.3656 28.242H78.9302C78.4088 28.242 77.9868 27.8201 77.9868 27.2986C77.9868 26.7772 78.4088 26.3552 78.9302 26.3552H80.3656C80.887 26.3552 81.309 26.7772 81.309 27.2986C81.309 27.8201 80.887 28.242 80.3656 28.242Z" fill="#332B29"/>
</g>
</g>
</g>
</g>
</g>
</g>
</g>
</g>
</g>
</g>
</g>
</g>
</g>
</g>
</g>
<g id="Group_31">
<g id="Group_32">
<g id="Group_33">
<g id="Group_34">
<g id="Group_35">
<g id="Group_36">
<g id="Group_37">
<g id="Group_38">
<g id="Group_39">
<g id="Group_40">
<g id="Group_41">
<g id="Group_42">
<g id="Group_43">
<g id="Group_44">
<g id="Group_45">
<path id="Vector_8" d="M32.0754 95.3435C44.58 95.3435 54.7169 85.2065 54.7169 72.7019C54.7169 60.1974 44.58 50.0604 32.0754 50.0604C19.5708 50.0604 9.4339 60.1974 9.4339 72.7019C9.4339 85.2065 19.5708 95.3435 32.0754 95.3435Z" fill="#332B29"/>
</g>
<g id="Group_46">
<path id="Vector_9" d="M32.0754 96.2864C25.7757 96.2864 19.8537 93.8339 15.3983 89.3786C10.9448 84.9251 8.49053 79.0012 8.49237 72.7015C8.49237 59.6984 19.0724 49.1184 32.0773 49.1184C45.0803 49.1184 55.6603 59.6984 55.6603 72.7033C55.6603 85.7063 45.0803 96.2864 32.0754 96.2864ZM32.0773 51.0052C20.1135 51.0052 10.3792 60.7377 10.3792 72.7015C10.3792 78.4982 12.6345 83.9467 16.7323 88.0446C20.8302 92.1424 26.2806 94.3996 32.0754 94.3996C44.0392 94.3996 53.7735 84.6671 53.7735 72.7033C53.7735 60.7395 44.0411 51.0052 32.0773 51.0052Z" fill="#332B29"/>
</g>
</g>
<g id="Group_47">
<g id="Group_48">
<path id="Vector_10" d="M27.2415 95.3435C39.746 95.3435 49.883 85.2065 49.883 72.7019C49.883 60.1974 39.746 50.0604 27.2415 50.0604C14.7369 50.0604 4.59998 60.1974 4.59998 72.7019C4.59998 85.2065 14.7369 95.3435 27.2415 95.3435Z" fill="#F5F1EB"/>
</g>
<g id="Group_49">
<path id="Vector_11" d="M27.2405 96.2864C14.2357 96.2864 3.65564 85.7063 3.65564 72.7015C3.65564 59.6984 14.2357 49.1184 27.2405 49.1184C40.2454 49.1184 50.8255 59.6984 50.8255 72.7033C50.8255 85.7063 40.2454 96.2864 27.2405 96.2864ZM27.2405 51.0052C15.2767 51.0052 5.54243 60.7377 5.54243 72.7015C5.54243 84.6653 15.2767 94.3996 27.2405 94.3996C39.2044 94.3996 48.9387 84.6671 48.9387 72.7033C48.9387 60.7395 39.2044 51.0052 27.2405 51.0052Z" fill="#332B29"/>
</g>
</g>
<g id="Group_50">
<g id="Group_51">
<path id="Vector_12" d="M27.2415 89.6529C36.6032 89.6529 44.1924 82.0637 44.1924 72.7019C44.1924 63.3402 36.6032 55.751 27.2415 55.751C17.8797 55.751 10.2905 63.3402 10.2905 72.7019C10.2905 82.0637 17.8797 89.6529 27.2415 89.6529Z" fill="white"/>
</g>
</g>
<g id="Group_52">
<g id="Group_53">
<path id="Vector_13" d="M16.2349 73.6448H14.7995C14.2781 73.6448 13.8561 73.2229 13.8561 72.7015C13.8561 72.18 14.2781 71.7581 14.7995 71.7581H16.2349C16.7563 71.7581 17.1783 72.18 17.1783 72.7015C17.1783 73.2229 16.7563 73.6448 16.2349 73.6448Z" fill="#332B29"/>
</g>
</g>
<g id="Group_54">
<g id="Group_55">
<path id="Vector_14" d="M39.6816 73.6467H38.2463C37.7248 73.6467 37.3029 73.2247 37.3029 72.7033C37.3029 72.1818 37.7248 71.7599 38.2463 71.7599H39.6816C40.2031 71.7599 40.625 72.1818 40.625 72.7033C40.625 73.2247 40.2031 73.6467 39.6816 73.6467Z" fill="#332B29"/>
</g>
</g>
</g>
</g>
</g>
</g>
</g>
</g>
</g>
</g>
</g>
</g>
</g>
</g>
</g>
</g>
</g>
<g id="Group_56">
<g id="Group_57">
<g id="Group_58">
<g id="Group_59">
<path id="Vector_15" d="M60.84 84.8458C60.4814 84.2043 60.4059 83.4118 60.6136 82.6948L62.3115 76.8647C62.6701 75.6382 63.8022 74.827 65.0286 74.827C65.2928 74.827 65.557 74.8648 65.8212 74.9401C67.1418 75.3176 67.9908 76.6194 67.8399 77.9589C76.0474 72.8269 81.8211 64.2986 83.3495 54.6193C83.5757 53.2231 84.7646 52.2419 86.142 52.2419C86.2928 52.2419 86.4437 52.2419 86.5948 52.2797C88.123 52.5061 89.1794 53.959 88.9344 55.5063C87.142 66.8646 80.3683 76.8647 70.7079 82.827C71.7266 83.4873 72.2361 84.7705 71.8777 85.9778C71.4438 87.4873 69.8587 88.3552 68.3683 87.9024L62.5382 86.2042C61.8209 85.9967 61.1986 85.5061 60.84 84.8458Z" fill="#A799FE"/>
</g>
<g id="Group_60">
<path id="Vector_16" d="M69.1793 88.9676C68.8163 88.9676 68.4515 88.9142 68.0941 88.8055L62.2752 87.1103C61.3171 86.8339 60.4916 86.1761 60.0144 85.3027C59.5372 84.4478 59.4248 83.403 59.7067 82.432L61.4055 76.6021C61.9694 74.66 64.1104 73.4661 66.0801 74.0336C67.2502 74.3671 68.1567 75.2589 68.5639 76.3552C75.9987 71.2402 81.0179 63.343 82.4164 54.4728C82.7149 52.6321 84.2829 51.2981 86.142 51.2981C86.33 51.2981 86.564 51.2981 86.8293 51.3663C87.7174 51.4934 88.5871 52.0185 89.1804 52.8274C89.7811 53.6455 90.0243 54.6497 89.8659 55.6539C88.1007 66.8475 81.6941 76.7422 72.2159 82.9829C72.8847 83.9098 73.1169 85.1166 72.7816 86.2461C72.5033 87.2153 71.8566 88.0224 70.9611 88.5107C70.4028 88.8128 69.7948 88.9676 69.1793 88.9676ZM65.028 75.7711C64.1952 75.7711 63.4508 76.3294 63.2186 77.1291L61.5198 82.959C61.3797 83.4417 61.4332 83.9742 61.6635 84.3851C61.6653 84.3888 61.6672 84.3907 61.669 84.3943C61.9049 84.8292 62.3176 85.159 62.7985 85.2972L68.6321 86.9961C69.1204 87.1453 69.6197 87.09 70.0601 86.8523C70.506 86.6091 70.8303 86.2056 70.9703 85.7173C71.2062 84.9269 70.8856 84.0664 70.1946 83.6168C69.9237 83.4417 69.7616 83.1377 69.7653 82.8153C69.769 82.4928 69.9385 82.1925 70.213 82.023C79.776 76.1212 86.26 66.4035 88.0012 55.3591C88.0823 54.8561 87.9607 54.3531 87.6585 53.944C87.3655 53.5442 86.9399 53.2844 86.4571 53.2125C86.3245 53.1849 86.2231 53.1849 86.142 53.1849C85.2115 53.1849 84.4285 53.8519 84.2792 54.7713C82.7204 64.6549 76.9108 73.3997 68.3391 78.7579C68.0314 78.9514 67.6408 78.9496 67.3368 78.7561C67.0309 78.5626 66.8614 78.2125 66.9019 77.8532C67.0033 76.9559 66.4265 76.0954 65.5605 75.8467C65.3818 75.7951 65.2086 75.7711 65.028 75.7711Z" fill="#332B29"/>
</g>
</g>
<g id="Group_61">
<g id="Group_62">
<path id="Vector_17" d="M11.0664 44.4873C12.8588 33.1288 19.6514 23.1287 29.2926 17.1666C28.2739 16.5063 27.7645 15.2231 28.1231 14.0158C28.4815 12.7702 29.6135 11.9779 30.8399 11.9779C31.1041 11.9779 31.3683 12.0157 31.6323 12.0912L37.4626 13.7892C38.1796 13.9969 38.8022 14.4875 39.1605 15.1476C39.5191 15.7893 39.5947 16.5627 39.3872 17.2988L37.689 23.1287C37.2551 24.6193 35.6891 25.4685 34.1796 25.0532C32.8589 24.676 32.0286 23.3742 32.1606 22.0533C23.9531 27.1667 18.1796 35.695 16.6512 45.374C16.4059 46.9213 14.9722 47.9781 13.406 47.7136C11.8776 47.4875 10.8211 46.0346 11.0664 44.4873Z" fill="#A799FE"/>
</g>
<g id="Group_63">
<path id="Vector_18" d="M13.8893 48.6982C13.6774 48.6982 13.4637 48.6798 13.2499 48.6448C12.2826 48.5011 11.4129 47.9759 10.8196 47.167C10.2189 46.3489 9.97568 45.3447 10.1341 44.3405C11.8993 33.1598 18.3059 23.2634 27.7841 17.0115C27.1153 16.0847 26.8831 14.8778 27.2185 13.7465C27.7712 11.8192 29.8773 10.6086 31.8912 11.1853L37.7266 12.8823C38.6921 13.1642 39.5176 13.8239 39.9893 14.6973C40.4647 15.5467 40.5753 16.5656 40.2952 17.5551L38.5963 23.3924C38.0233 25.3621 35.9338 26.5063 33.9291 25.9627C32.7664 25.6311 31.8599 24.7411 31.4472 23.6466C24.0087 28.7432 18.984 36.6386 17.5837 45.5216C17.4234 46.5277 16.8853 47.4066 16.0654 47.9962C15.4242 48.4568 14.6687 48.6982 13.8893 48.6982ZM30.8391 12.921C29.9897 12.921 29.2619 13.4646 29.0297 14.2753C28.7939 15.0676 29.1145 15.9263 29.8054 16.374C30.0781 16.5509 30.2403 16.8531 30.2366 17.1755C30.2329 17.4998 30.0652 17.7983 29.7888 17.9678C20.2241 23.8843 13.7401 33.6039 11.9988 44.6354C11.9178 45.1384 12.0394 45.6414 12.3415 46.0504C12.6345 46.4503 13.062 46.7101 13.5447 46.7819C14.0607 46.8667 14.56 46.758 14.9635 46.465C15.3707 46.1721 15.6397 45.7317 15.719 45.2268C17.2815 35.3304 23.0929 26.5911 31.6609 21.2513C31.9668 21.0633 32.3555 21.0633 32.6577 21.2513C32.9636 21.4411 33.135 21.7875 33.0999 22.1449C33.0097 23.0423 33.5864 23.9027 34.4377 24.146C35.4345 24.4113 36.4958 23.8493 36.7832 22.8654L38.4803 17.0355C38.6221 16.5361 38.5705 16.0276 38.3365 15.6075C38.097 15.1634 37.6843 14.8355 37.1997 14.6954L31.3679 12.9984C31.1892 12.9468 31.0142 12.921 30.8391 12.921Z" fill="#332B29"/>
</g>
</g>
</g>
</g>
</g>
<g id="Group_64">
<g id="Group_65">
<g id="Group_66">
<path id="Vector_19" d="M67.9982 28.242H62.9809C62.4594 28.242 62.0375 27.8201 62.0375 27.2986V18.3714C62.0375 17.8499 62.4594 17.428 62.9809 17.428H67.9982C70.9758 17.428 73.3988 19.851 73.3988 22.8304C73.3988 24.2621 72.8368 25.62 71.8197 26.6537C70.7915 27.68 69.4372 28.242 67.9982 28.242ZM63.9243 26.3552H67.9982C68.9324 26.3552 69.815 25.9886 70.4801 25.3234C71.1435 24.6509 71.512 23.7627 71.512 22.8304C71.512 20.892 69.9366 19.3148 67.9982 19.3148H63.9243V26.3552Z" fill="#332B29"/>
</g>
</g>
<g id="Group_67">
<g id="Group_68">
<path id="Vector_20" d="M69.9384 37.1674H62.9809C62.4594 37.1674 62.0375 36.7455 62.0375 36.224V27.2986C62.0375 26.7772 62.4594 26.3552 62.9809 26.3552H69.9384C72.916 26.3552 75.339 28.7782 75.339 31.7558C75.339 33.1912 74.777 34.5473 73.7581 35.5791C72.7318 36.6054 71.3775 37.1674 69.9384 37.1674ZM63.9243 35.2806H69.9384C70.8726 35.2806 71.7552 34.914 72.4204 34.2488C73.0837 33.5763 73.4522 32.69 73.4522 31.7558C73.4522 29.8174 71.8768 28.242 69.9384 28.242H63.9243V35.2806Z" fill="#332B29"/>
</g>
</g>
<g id="Group_69">
<g id="Group_70">
<path id="Vector_21" d="M62.9809 19.3148H61.4534C60.932 19.3148 60.51 18.8928 60.51 18.3714C60.51 17.8499 60.932 17.428 61.4534 17.428H62.9809C63.5023 17.428 63.9243 17.8499 63.9243 18.3714C63.9243 18.8928 63.5023 19.3148 62.9809 19.3148Z" fill="#332B29"/>
</g>
</g>
<g id="Group_71">
<g id="Group_72">
<g id="Group_73">
<path id="Vector_22" d="M64.2891 19.3148C63.7677 19.3148 63.3457 18.8928 63.3457 18.3714V16.8439C63.3457 16.3225 63.7677 15.9005 64.2891 15.9005C64.8105 15.9005 65.2325 16.3225 65.2325 16.8439V18.3714C65.2325 18.8928 64.8105 19.3148 64.2891 19.3148Z" fill="#332B29"/>
</g>
</g>
<g id="Group_74">
<g id="Group_75">
<path id="Vector_23" d="M67.4436 19.3148C66.9221 19.3148 66.5002 18.8928 66.5002 18.3714V16.8439C66.5002 16.3225 66.9221 15.9005 67.4436 15.9005C67.965 15.9005 68.387 16.3225 68.387 16.8439V18.3714C68.387 18.8928 67.965 19.3148 67.4436 19.3148Z" fill="#332B29"/>
</g>
</g>
</g>
<g id="Group_76">
<g id="Group_77">
<path id="Vector_24" d="M64.2891 38.6949C63.7677 38.6949 63.3457 38.273 63.3457 37.7515V36.224C63.3457 35.7026 63.7677 35.2806 64.2891 35.2806C64.8105 35.2806 65.2325 35.7026 65.2325 36.224V37.7515C65.2325 38.273 64.8105 38.6949 64.2891 38.6949Z" fill="#332B29"/>
</g>
</g>
<g id="Group_78">
<g id="Group_79">
<path id="Vector_25" d="M67.4436 38.6949C66.9221 38.6949 66.5002 38.273 66.5002 37.7515V36.224C66.5002 35.7026 66.9221 35.2806 67.4436 35.2806C67.965 35.2806 68.387 35.7026 68.387 36.224V37.7515C68.387 38.273 67.965 38.6949 67.4436 38.6949Z" fill="#332B29"/>
</g>
</g>
<g id="Group_80">
<g id="Group_81">
<path id="Vector_26" d="M62.9809 37.1674H61.4534C60.932 37.1674 60.51 36.7455 60.51 36.224C60.51 35.7026 60.932 35.2806 61.4534 35.2806H62.9809C63.5023 35.2806 63.9243 35.7026 63.9243 36.224C63.9243 36.7455 63.5023 37.1674 62.9809 37.1674Z" fill="#332B29"/>
</g>
</g>
</g>
</g>
<g id="Group_82">
<g id="Group_83">
<g id="Group_84">
<path id="Vector_27" d="M33.1423 73.1451L27.503 75.3941C27.3225 75.466 27.1213 75.4658 26.9409 75.3935L21.3373 73.1453C20.9255 72.9801 20.7436 72.4976 20.9438 72.1017L26.5486 61.0166C26.8282 60.4637 27.6174 60.4627 27.8983 61.0149L33.5365 72.0992C33.7382 72.4959 33.5557 72.9802 33.1423 73.1451Z" fill="#A799FE"/>
</g>
</g>
<g id="Group_85">
<g id="Group_86">
<path id="Vector_28" d="M32.4586 76.8094L27.6329 84.4508C27.3362 84.9207 26.651 84.921 26.3538 84.4514L21.5205 76.8132C21.1327 76.2004 21.7459 75.4458 22.4251 75.7L26.7155 77.3056C26.8863 77.3696 27.0745 77.3696 27.2454 77.3058L31.5541 75.6966C32.2329 75.443 32.8455 76.1967 32.4586 76.8094Z" fill="#A799FE"/>
</g>
</g>
</g>
</g>
</g>
</svg>
