<svg fill="none" height="34" viewBox="0 0 159 34" width="159" xmlns="http://www.w3.org/2000/svg"><g fill="#332b29"><path d="m51.657 31.9479v-11.032l-11.907-18.97859h6.2797l7.6254 12.59599c.4078.7186.6932 1.2681.8155 1.7753h.0816c.1223-.5072.3262-1.0567.7748-1.7753l7.7069-12.59599h6.1981l-11.9885 18.97859v11.032z"/><path d="m73.0756 31.9479v-21.1342h5.1788v21.1342z"/><path d="m95.2914 32.582c-7.4623 0-12.0702-4.0578-12.0702-10.9898 0-7.228 4.6487-11.4125 11.8255-11.4125 7.2993 0 11.6213 3.8464 11.6213 10.6094v1.9443h-18.3904c.2039 3.5928 2.8952 5.8331 7.1769 5.8331 3.1806 0 5.5455-1.2681 6.8095-3.6774l4.078 1.9444c-2.08 3.7196-5.831 5.7485-11.0506 5.7485zm-7.0138-13.2723h13.1714v-.2114c0-3.5083-2.6508-5.4526-6.4431-5.4526-3.9962 0-6.5244 2.1557-6.7283 5.664z"/><path d="m117.041 1.30328v30.64462h-5.179v-30.64462z"/><path d="m132.365 32.582c-6.076 0-10.317-4.565-10.317-11.2012 0-6.6361 4.364-11.2011 10.643-11.2011 3.67 0 6.361 1.268 8.115 3.9309v-12.80732h5.179v30.64462h-4.975v-3.9732c-1.631 2.9165-4.649 4.6073-8.645 4.6073zm-4.893-11.2434c0 4.4804 2.569 7.2279 6.687 7.2279 3.996 0 6.728-2.6207 6.728-6.5517v-1.1412c0-4.1-2.732-6.7207-6.85-6.7207-4.119 0-6.565 2.6629-6.565 7.1857z"/><path d="m152.998 31.9479v-21.1342h5.178v21.1342z"/><path d="m79.1141 5.51388c0 1.99323-1.5551 3.60907-3.4733 3.60907-1.9183 0-3.4733-1.61584-3.4733-3.60907 0-1.99324 1.555-3.60908 3.4733-3.60908 1.9182 0 3.4733 1.61584 3.4733 3.60908z"/><path d="m159 5.51388c0 1.99323-1.555 3.60907-3.473 3.60907-1.919 0-3.474-1.61584-3.474-3.60907 0-1.99324 1.555-3.60908 3.474-3.60908 1.918 0 3.473 1.61584 3.473 3.60908z"/><path d="m8.20288 13.0947c-.68896-.399-.925-1.283-.52724-1.9742.39776-.6913 1.2788-.9281 1.96776-.529 0 0 3.2925 2.5032 5.9551 2.5032 2.6625 0 5.8539-2.5032 5.8539-2.5032.6889-.3991 1.57-.1623 1.9677.529.3978.6912.1618 1.5751-.5272 1.9742 0 0-5.8539 2.3142-5.8539 5.6865v13.0072c0 .7982-.6449 1.4452-1.4405 1.4452s-1.4405-.647-1.4405-1.4452c0 0 0-7.1571 0-13.0072 0-3.3723-5.95512-5.6865-5.95512-5.6865z"/></g><path d="m18.915 3.74121c0 1.8903-1.5114 3.41539-3.3668 3.41539-1.8555 0-3.3669-1.52509-3.3669-3.41539s1.5114-3.41539 3.3669-3.41539c1.8554 0 3.3668 1.52509 3.3668 3.41539z" fill="#007d98" stroke="#332b29" stroke-width=".651639"/><circle cx="27.3549" cy="8.01691" fill="#ff6656" r="3.41539" stroke="#332b29" stroke-width=".651639"/><circle cx="3.74121" cy="8.01691" fill="#a1fd59" r="3.41539" stroke="#332b29" stroke-width=".651639"/></svg>