<svg width="15" height="14" viewBox="0 0 15 14" fill="none" xmlns="http://www.w3.org/2000/svg">
<path d="M7.34683 4.9184V7.69391M2.05872 9.22031C1.42769 10.3133 1.11226 10.86 1.15939 11.3084C1.2005 11.6996 1.40579 12.0549 1.72398 12.2861C2.08865 12.5511 2.71929 12.5511 3.98051 12.5511H10.7132C11.9744 12.5511 12.6049 12.5511 12.9696 12.2861C13.2878 12.0549 13.4932 11.6996 13.5343 11.3084C13.5814 10.86 13.2661 10.3133 12.635 9.22031L9.2699 3.39174C8.63886 2.29875 8.32321 1.75235 7.91128 1.56895C7.55198 1.40898 7.14144 1.40898 6.78215 1.56895C6.37039 1.75228 6.05493 2.29868 5.42442 3.39075L2.05872 9.22031ZM7.38206 9.77554V9.84493L7.31227 9.84507V9.77554H7.38206Z" stroke="#FF6656" stroke-width="1.5" stroke-linecap="round" stroke-linejoin="round"/>
</svg>
