<svg width="40" height="41" viewBox="0 0 40 41" fill="none" xmlns="http://www.w3.org/2000/svg">
<circle cx="20" cy="20.5" r="20" fill="#FF6656" fill-opacity="0.24"/>
<path d="M20 16.0001V20.0001M12.3789 22.1999C11.4695 23.775 11.0149 24.5629 11.0828 25.2092C11.1421 25.7729 11.4379 26.2851 11.8965 26.6182C12.422 27.0001 13.3309 27.0001 15.1485 27.0001H24.8515C26.6691 27.0001 27.5778 27.0001 28.1034 26.6182C28.5619 26.2851 28.8579 25.7729 28.9172 25.2092C28.9851 24.5629 28.5307 23.775 27.6212 22.1999L22.7715 13.7999C21.8621 12.2247 21.4071 11.4372 20.8135 11.1729C20.2957 10.9424 19.704 10.9424 19.1862 11.1729C18.5928 11.4371 18.1381 12.2246 17.2295 13.7984L12.3789 22.1999ZM20.0508 23.0001V23.1001L19.9502 23.1003V23.0001H20.0508Z" stroke="#FF6656" stroke-width="2" stroke-linecap="round" stroke-linejoin="round"/>
</svg>
