<svg xmlns="http://www.w3.org/2000/svg" version="1.1" xmlns:xlink="http://www.w3.org/1999/xlink" xmlns:svgjs="http://svgjs.dev/svgjs" width="22" height="22"><svg width="22" height="22" viewBox="0 0 22 22" fill="none" xmlns="http://www.w3.org/2000/svg">
<path d="M5.57238 8.50176C5.10441 8.24267 4.94408 7.66878 5.21425 7.22C5.48443 6.77119 6.08287 6.61744 6.55084 6.87653C6.55084 6.87653 8.78725 8.50176 10.5958 8.50176C12.4043 8.50176 14.572 6.87653 14.572 6.87653C15.04 6.61744 15.6385 6.77119 15.9086 7.21996C16.1788 7.66878 16.0185 8.24263 15.5505 8.50176C15.5505 8.50176 11.5743 10.0043 11.5743 12.1937C11.5743 15.6389 11.5743 20.6386 11.5743 20.6386C11.5743 21.1568 11.1362 21.5769 10.5958 21.5769C10.0554 21.5769 9.61734 21.1568 9.61734 20.6386C9.61734 20.6386 9.61734 15.9919 9.61734 12.1937C9.61734 10.0043 5.57238 8.50176 5.57238 8.50176Z" fill="#332B29"></path>
<path d="M12.7433 2.42898C12.7433 3.58075 11.7762 4.53215 10.5609 4.53215C9.3457 4.53215 8.37855 3.58075 8.37855 2.42898C8.37855 1.27721 9.3457 0.32582 10.5609 0.32582C11.7762 0.32582 12.7433 1.27721 12.7433 2.42898Z" fill="#627EEA" stroke="#332B29" stroke-width="0.651639"></path>
<path d="M20.7966 5.20498C20.7966 6.35282 19.8188 7.30815 18.5812 7.30815C17.3437 7.30815 16.3659 6.35282 16.3659 5.20498C16.3659 4.05715 17.3437 3.10182 18.5812 3.10182C19.8188 3.10182 20.7966 4.05715 20.7966 5.20498Z" fill="#FF6656" stroke="#332B29" stroke-width="0.651639"></path>
<path d="M4.75658 5.20492C4.75658 6.35276 3.77875 7.30808 2.5412 7.30808C1.30366 7.30808 0.32582 6.35276 0.32582 5.20492C0.32582 4.05709 1.30366 3.10176 2.5412 3.10176C3.77875 3.10176 4.75658 4.05709 4.75658 5.20492Z" fill="#A1FD59" stroke="#332B29" stroke-width="0.651639"></path>
</svg><style>@media (prefers-color-scheme: light) { :root { filter: none; } }
@media (prefers-color-scheme: dark) { :root { filter: none; } }
</style></svg>