<svg width="17" height="18" viewBox="0 0 17 18" fill="none" xmlns="http://www.w3.org/2000/svg">
<path d="M12.3827 4.41249V4.41249C12.4514 3.51834 11.7445 2.75488 10.8477 2.75488H5.84614C4.94935 2.75488 4.24236 3.51834 4.31115 4.41249V4.41249M12.3827 4.41249L12.0824 8.31612C11.9322 10.268 10.3046 11.7753 8.3469 11.7753V11.7753M12.3827 4.41249V4.41249C13.737 4.41249 14.7822 5.60399 14.6058 6.94679L14.5404 7.44454C14.3713 8.73147 13.2744 9.69366 11.9764 9.69366V9.69366M4.31115 4.41249L4.61142 8.31612C4.76157 10.268 6.38921 11.7753 8.3469 11.7753V11.7753M4.31115 4.41249V4.41249C2.9568 4.41249 1.91161 5.60399 2.08804 6.94679L2.15344 7.44454C2.32252 8.73147 3.4194 9.69366 4.71739 9.69366V9.69366M8.3469 11.7753V13.163M8.3469 13.163L9.03005 13.5729C10.0193 14.1665 10.514 14.4633 10.5111 14.7497C10.5102 14.8369 10.4866 14.9224 10.4425 14.9976C10.2976 15.2447 9.72071 15.2447 8.56701 15.2447H8.1268C6.97309 15.2447 6.39624 15.2447 6.25135 14.9976C6.20725 14.9224 6.18358 14.8369 6.1827 14.7497C6.17981 14.4633 6.67446 14.1665 7.66375 13.5729L8.3469 13.163Z" stroke="#627EEA" stroke-width="1.5" stroke-linejoin="round"/>
<path d="M7.75104 5.87044C7.87667 5.61589 7.93948 5.48862 8.0074 5.4258C8.19903 5.24855 8.49478 5.24855 8.68641 5.4258C8.75433 5.48862 8.81714 5.61589 8.94277 5.87044V5.87044C8.98005 5.94598 8.99869 5.98375 9.0218 6.01627C9.08506 6.10532 9.17573 6.1712 9.27997 6.20384C9.31803 6.21577 9.35972 6.22182 9.44308 6.23394V6.23394C9.72399 6.27476 9.86445 6.29517 9.94518 6.34035C10.173 6.46783 10.2644 6.7491 10.155 6.98613C10.1163 7.07013 10.0146 7.1692 9.81135 7.36734V7.36734C9.75102 7.42614 9.72086 7.45554 9.69707 7.48756C9.63193 7.57524 9.5973 7.68184 9.59846 7.79106C9.59888 7.83095 9.606 7.87246 9.62025 7.95549V7.95549C9.66823 8.23527 9.69222 8.37515 9.6742 8.4659C9.62335 8.72194 9.38409 8.89577 9.12487 8.86501C9.033 8.85411 8.90737 8.78806 8.65612 8.65597V8.65597C8.58155 8.61677 8.54427 8.59717 8.50646 8.58444C8.40295 8.54959 8.29086 8.54959 8.18735 8.58444C8.14954 8.59717 8.11226 8.61677 8.0377 8.65597V8.65597C7.78644 8.78806 7.66082 8.85411 7.56895 8.86501C7.30972 8.89577 7.07046 8.72194 7.01961 8.4659C7.00159 8.37515 7.02558 8.23527 7.07357 7.95549V7.95549C7.08781 7.87246 7.09493 7.83095 7.09535 7.79106C7.09651 7.68184 7.06188 7.57524 6.99674 7.48756C6.97295 7.45554 6.94279 7.42614 6.88246 7.36734V7.36734C6.6792 7.1692 6.57756 7.07013 6.53881 6.98613C6.42945 6.7491 6.52084 6.46783 6.74863 6.34035C6.82936 6.29517 6.96982 6.27476 7.25073 6.23394V6.23394C7.3341 6.22182 7.37578 6.21577 7.41385 6.20384C7.51808 6.1712 7.60876 6.10532 7.67202 6.01627C7.69512 5.98375 7.71376 5.94598 7.75104 5.87044V5.87044Z" stroke="#627EEA" stroke-width="1.5" stroke-linejoin="round"/>
</svg>
