<svg width="30" height="30" viewBox="0 0 30 30" fill="none" xmlns="http://www.w3.org/2000/svg">
<g id="BNB Chain">
<path id="Coin" d="M28.812 18.4316C26.9142 26.046 19.2021 30.6956 11.5737 28.7967C3.95927 26.8931 -0.682875 19.1809 1.21492 11.5665C3.11271 3.95215 10.8202 -0.697469 18.4299 1.20148C26.063 3.07715 30.7051 10.8126 28.812 18.4316Z" fill="#F0B90B"/>
<g id="BNB">
<path d="M20.4531 14.3041L20.442 11.9368H20.4506L18.4399 10.7531L14.9943 12.7847L11.5695 10.7531L9.56001 11.9368V14.3041L13.0056 16.3259V20.3793L15.0065 21.5519L17.0075 20.3793V16.3259L20.4531 14.3041Z" fill="white"/>
<path d="M14.9955 4.68896L9.55879 7.89442L11.5597 9.07808L14.9955 7.04649L18.4411 9.07808L20.442 7.89442L14.9955 4.68896Z" fill="white"/>
<path d="M8.12305 19.1858L8.11203 15.1422L6.11231 13.9598V20.3805L11.5588 23.5749V21.2076L8.12305 19.1858Z" fill="white"/>
<path d="M8.11203 13.4549V11.0986L10.1228 9.91495L8.11203 8.73129L6.11108 9.91495V12.2713L8.11203 13.4549Z" fill="white"/>
<path d="M14.9946 8.73129L12.9937 9.91495L14.9946 11.0986L17.0054 9.91495L14.9946 8.73129Z" fill="white"/>
<path d="M11.5597 17.164L9.55879 15.9803V18.3476L11.5597 19.5203V17.164Z" fill="white"/>
<path d="M14.9955 23.2392L12.9946 22.0555V24.4118L14.9955 25.5955L17.0063 24.4118V22.0555L14.9955 23.2392Z" fill="white"/>
<path d="M21.8769 8.73129L19.8759 9.91495L21.8769 11.0986V13.4549L23.8876 12.2713V9.91495L21.8769 8.73129Z" fill="white"/>
<path d="M23.8889 13.9585L21.8879 15.1422L21.8769 19.1858L18.4423 21.2063V23.5737L23.8889 20.3792V13.9585Z" fill="white"/>
<path d="M20.4425 18.3476L18.4415 19.5202V17.1639L20.4425 15.9802V18.3476Z" fill="white"/>
</g>
</g>
</svg>
