<svg width="32" height="32" viewBox="0 0 32 32" fill="none" xmlns="http://www.w3.org/2000/svg">
<g id="WBTC">
<g id="Wrapped Bitcoin">
<path fill-rule="evenodd" clip-rule="evenodd" d="M15.9941 1.77197C23.8473 1.77197 30.2163 8.13716 30.2163 15.9942C30.2163 23.8474 23.8473 30.2164 15.9941 30.2164C8.13705 30.2164 1.77185 23.8474 1.77185 15.9942C1.77185 8.14099 8.13705 1.77197 15.9941 1.77197Z" fill="#F4F4F4"/>
<path d="M23.4611 7.80821C19.2381 3.94472 12.762 3.94472 8.53889 7.80821L7.73942 7.02786C12.3986 2.7283 19.5785 2.7283 24.2415 7.02786L23.4611 7.80821Z" fill="#4F4B58"/>
<path d="M24.1839 8.52352L24.9643 7.74317V7.72404C29.2638 12.3832 29.2638 19.5631 24.9643 24.2261L24.1839 23.4458C28.0474 19.2227 28.0474 12.7504 24.1839 8.52352Z" fill="#4F4B58"/>
<path d="M7.80806 23.4534C3.95222 19.2303 3.95222 12.7619 7.80806 8.53882L7.02771 7.75847C2.72815 12.4176 2.72815 19.5976 7.02771 24.2605L7.80806 23.4534Z" fill="#4F4B58"/>
<path d="M8.53088 24.1726C12.7539 28.036 19.2301 28.036 23.4531 24.1726L24.2526 24.9567C19.5935 29.2525 12.4135 29.2525 7.75053 24.9567L8.53088 24.1726Z" fill="#4F4B58"/>
<path fill-rule="evenodd" clip-rule="evenodd" d="M18.3619 14.0051C18.3619 15.5658 15.9214 15.3783 15.1448 15.3783V12.628C15.9175 12.6242 18.3619 12.3793 18.3619 14.0051ZM18.9969 18.2779C18.9969 19.9839 16.0705 19.7888 15.1372 19.7888V16.7592C16.0744 16.7631 18.9969 16.4953 18.9969 18.2779ZM20.9248 13.3892C20.7679 11.7597 19.3641 11.2127 17.5853 11.0443V8.79893H16.2121V11.0023C15.8487 11.0023 15.4815 11.0023 15.1142 11.0137V8.79893H13.7448V11.0596H10.96V12.5285C10.96 12.5285 11.9737 12.5094 11.9584 12.5285C12.3371 12.4865 12.6852 12.7542 12.7388 13.1329V19.3221C12.7311 19.4522 12.6699 19.5708 12.5743 19.6588C12.4748 19.7429 12.3486 19.785 12.2185 19.7774C12.2338 19.7927 11.2201 19.7774 11.2201 19.7774L10.9486 21.4184H13.7219V23.7135H15.0989V21.449H16.193V23.6982H17.57V21.4299C19.892 21.2883 21.5139 20.7145 21.7128 18.5418C21.8773 16.7937 21.0548 16.0133 19.739 15.6958C20.5423 15.298 21.0434 14.5789 20.9248 13.3892Z" fill="#F09242"/>
<path fill-rule="evenodd" clip-rule="evenodd" d="M15.9903 2.88129C8.75674 2.88512 2.89265 8.75302 2.89265 15.9904C2.89265 23.2277 8.76056 29.0918 15.9979 29.0918C23.2353 29.0918 29.1032 23.2277 29.1032 15.9904C29.0955 8.75302 23.2276 2.89277 15.9903 2.88894V2.88129ZM15.9903 30.2164C8.13705 30.2164 1.77185 23.8474 1.77185 15.9942C1.77185 8.13716 8.13705 1.77197 15.9941 1.77197C23.8473 1.77197 30.2163 8.13716 30.2163 15.9904C30.2087 23.8436 23.8435 30.2088 15.9903 30.2164Z" fill="#231E30"/>
</g>
</g>
</svg>
