<svg width="38" height="38" viewBox="0 0 38 38" fill="none" xmlns="http://www.w3.org/2000/svg">
<g id="Tether">
<path id="Coin" d="M37.1283 23.5038C34.6375 33.4977 24.5153 39.6003 14.5031 37.1079C4.50915 34.6095 -1.58367 24.4873 0.907185 14.4934C3.39804 4.49949 13.5141 -1.60314 23.5019 0.889223C33.5202 3.35104 39.6131 13.5038 37.1283 23.5038Z" fill="#009393"/>
<path id="Tether_2" fill-rule="evenodd" clip-rule="evenodd" d="M12.1517 11.1599H26.129C26.4625 11.1599 26.7706 11.3327 26.9369 11.6131L31.0092 18.4775C31.2203 18.8335 31.1576 19.2828 30.8564 19.5715L19.6476 30.3135C19.2845 30.6614 18.7004 30.6614 18.3373 30.3135L7.14369 19.586C6.83548 19.2906 6.77776 18.8282 7.00441 18.47L11.3572 11.5911C11.5268 11.3232 11.8276 11.1599 12.1517 11.1599ZM24.3243 14.2246V16.1507H20.3427V17.4861C23.1391 17.6288 25.2371 18.2149 25.2527 18.9174L25.2526 20.3819C25.237 21.0845 23.1391 21.6706 20.3427 21.8133V25.0905H17.6989V21.8133C14.9025 21.6706 12.8044 21.0845 12.7889 20.3819L12.789 18.9174C12.8045 18.2149 14.9025 17.6288 17.6989 17.4861V16.1507H13.7173V14.2246H24.3243ZM19.0208 20.8071C22.005 20.8071 24.4994 20.3115 25.1098 19.6497C24.5921 19.0884 22.7198 18.6467 20.3427 18.5254V19.9236C19.9166 19.9453 19.4744 19.9568 19.0208 19.9568C18.5672 19.9568 18.1249 19.9453 17.6989 19.9236V18.5254C15.3218 18.6467 13.4494 19.0884 12.9318 19.6497C13.5422 20.3115 16.0365 20.8071 19.0208 20.8071Z" fill="white"/>
</g>
</svg>
