<svg width="30" height="30" viewBox="0 0 30 30" fill="none" xmlns="http://www.w3.org/2000/svg">
<g id="TRON Coin">
<path id="Coin" d="M28.812 18.4316C26.9142 26.046 19.2021 30.6956 11.5737 28.7967C3.95927 26.8931 -0.682875 19.1809 1.21492 11.5665C3.11271 3.95215 10.8202 -0.697469 18.4299 1.20148C26.063 3.07715 30.7051 10.8126 28.812 18.4316Z" fill="#FF060A"/>
<path id="TRON" d="M23.4887 13.0669C22.6553 12.2975 21.5026 11.1225 20.5637 10.2892L20.5082 10.2503C20.4157 10.176 20.3115 10.1178 20.1998 10.0781C17.936 9.65584 7.40003 7.68642 7.19448 7.71142C7.13689 7.71948 7.08183 7.74037 7.03337 7.77253L6.9806 7.81419C6.91561 7.88019 6.86625 7.95993 6.83615 8.04752L6.82227 8.08363V8.28085V8.31141C8.00836 11.6141 12.6916 22.4334 13.6138 24.9723C13.6694 25.1445 13.7749 25.4723 13.9721 25.489H14.0166C14.1221 25.489 14.5721 24.8945 14.5721 24.8945C14.5721 24.8945 22.6165 15.1391 23.4303 14.1002C23.5357 13.9723 23.6287 13.8346 23.7081 13.6891C23.7284 13.5753 23.7188 13.4581 23.6804 13.3491C23.6419 13.2401 23.5759 13.1428 23.4887 13.0669ZM16.636 14.203L20.0693 11.3558L22.0831 13.2113L16.636 14.203ZM15.3027 14.0169L9.39167 9.17251L18.9554 10.9364L15.3027 14.0169ZM15.836 15.2863L21.8859 14.3113L14.9694 22.6446L15.836 15.2863ZM8.5889 9.65584L14.8082 14.9335L13.9083 22.6501L8.5889 9.65584Z" fill="white"/>
</g>
</svg>
