<svg width="29" height="29" viewBox="0 0 29 29" fill="none" xmlns="http://www.w3.org/2000/svg">
<g id="Dogecoin">
<path id="Element" d="M14.4666 28.6888C22.3213 28.6888 28.6888 22.3213 28.6888 14.4666C28.6888 6.61189 22.3213 0.244385 14.4666 0.244385C6.61189 0.244385 0.244385 6.61189 0.244385 14.4666C0.244385 22.3213 6.61189 28.6888 14.4666 28.6888Z" fill="#988430"/>
<path id="Element_2" d="M14.4666 27.9432C21.9095 27.9432 27.9432 21.9095 27.9432 14.4666C27.9432 7.02367 21.9095 0.98999 14.4666 0.98999C7.02367 0.98999 0.98999 7.02367 0.98999 14.4666C0.98999 21.9095 7.02367 27.9432 14.4666 27.9432Z" fill="#BA9F33"/>
<g id="Dog">
<path d="M9.65401 3.3562C9.69302 2.59558 9.8759 2.59086 9.8759 2.59086C9.8759 2.59086 9.94554 2.5587 9.84831 2.64435C9.75485 2.72668 9.747 3.05672 9.73625 3.50924L9.73493 3.56452C9.73044 3.75081 9.7586 3.94473 9.7898 4.1596C9.83912 4.49934 9.89605 4.89146 9.84359 5.38856C9.79289 5.88521 9.57762 6.24136 9.38808 6.55495C9.36853 6.58729 9.34926 6.61918 9.33047 6.65072C9.18706 6.8912 9.0784 7.10151 9.0784 7.10151L8.45647 7.51298C8.45647 7.51298 7.87843 7.59162 7.35372 7.95219C7.03232 8.17408 6.71335 8.58098 6.44971 9.05493C6.29703 9.32226 6.16962 9.63229 6.06572 9.88514C6.05637 9.90789 6.04721 9.93019 6.03823 9.95194C5.89493 10.3062 5.84023 10.5851 5.79389 10.8214C5.74979 11.0463 5.71326 11.2326 5.61518 11.4084C5.44302 11.7103 5.40681 11.9036 5.39958 11.9586C5.4699 11.8404 5.90357 11.114 5.86155 11.2627C5.82238 11.4407 5.71357 11.6974 5.53557 11.9886C5.42661 12.1684 5.40605 12.3447 5.38422 12.5318C5.37039 12.6504 5.35605 12.7733 5.3184 12.9042C5.24922 13.1506 5.1598 13.4268 5.07945 13.6749C4.98793 13.9576 4.9082 14.2038 4.88361 14.3282C4.83747 14.5617 4.87198 14.8642 4.92282 15.3099L4.92293 15.3109C4.93729 15.4496 4.9349 15.6039 4.93248 15.7609C4.93021 15.9072 4.92791 16.0558 4.93909 16.1963C4.95753 16.3904 5.02001 16.5846 5.07091 16.6587C5.15805 16.7905 5.18562 16.9549 5.209 17.0943C5.21801 17.1481 5.2264 17.1981 5.23733 17.2411C5.26271 17.3399 5.30444 17.4206 5.34468 17.4984C5.37038 17.5481 5.39548 17.5967 5.41533 17.648C5.4481 17.7228 5.46973 17.8489 5.49372 17.9888C5.51202 18.0954 5.5317 18.2101 5.55873 18.3161C5.60516 18.4803 5.6687 18.6392 5.74831 18.7901L5.73216 18.8248C5.73216 18.8248 5.25851 17.9278 5.07563 17.2827C4.96926 16.8943 4.83744 16.3511 4.7681 15.4655C4.69952 14.5871 4.79675 13.9053 4.90525 13.2601C4.98314 12.7969 5.19931 12.3364 5.31511 12.1134L5.30536 12.1297C5.30536 12.1297 5.71683 9.83871 6.1283 9.0272C6.39652 8.4839 6.76867 8.03311 7.04847 7.7812C7.16225 7.6748 7.26709 7.6242 7.34216 7.58796C7.36011 7.5793 7.37635 7.57146 7.39061 7.56388C7.55171 7.47527 7.89194 7.42467 8.08808 7.3955C8.14799 7.38659 8.19446 7.37968 8.21827 7.3743C8.27634 7.36272 8.65977 7.20773 8.9164 6.98584C9.10619 6.81905 9.20578 6.60616 9.26033 6.48955C9.27157 6.46551 9.2809 6.44557 9.28871 6.43096C9.37249 6.28183 9.40072 6.05624 9.42552 5.85806C9.43148 5.81039 9.43725 5.7643 9.44355 5.72125C9.45398 5.64986 9.46774 5.57778 9.48253 5.5003C9.51374 5.3368 9.54954 5.14929 9.56836 4.89358C9.592 4.57241 9.60921 4.23451 9.63793 3.67091L9.63828 3.66411C9.64316 3.56832 9.64837 3.46602 9.65401 3.3562Z" fill="#806638"/>
<path d="M17.1094 5.77435C17.4122 5.77435 17.5902 5.70044 17.5902 5.70044L17.7198 5.7073L17.5093 6.13553L16.943 6.18125L14.1247 6.14193C14.1247 6.14193 13.022 6.0287 13.274 6.03327C13.4492 6.03561 13.9953 5.96252 14.6002 5.88156C15.3368 5.78297 16.1606 5.6727 16.5084 5.6727C16.7369 5.6727 16.8157 5.70407 16.8858 5.73195C16.9418 5.75427 16.9923 5.77435 17.1094 5.77435Z" fill="#806638"/>
<path d="M24.2941 18.9578L24.2944 18.9588L24.294 18.9591L24.2941 18.9578Z" fill="#806638"/>
<path d="M24.2941 18.9578C24.288 18.941 24.201 18.6988 24.1742 18.4779C24.1632 18.387 24.1681 18.325 24.1728 18.2669C24.1798 18.1788 24.1861 18.0996 24.1349 17.9417C24.0966 17.8218 24.035 17.8046 23.9969 17.794C23.9843 17.7905 23.9742 17.7877 23.9685 17.7821C23.9453 17.7597 23.9291 17.5186 23.9337 17.3868C23.9383 17.255 23.9291 17.084 23.906 17.0099C23.8714 16.9822 23.8482 16.959 23.7973 16.788C23.7941 16.7784 23.7909 16.769 23.7879 16.76L23.7823 16.7434C23.7345 16.6016 23.7093 16.5268 23.6841 16.4806C23.6729 16.4602 23.6531 16.4405 23.6334 16.4209C23.6042 16.3918 23.5753 16.363 23.5753 16.3326C23.5753 16.2659 23.6151 16.2201 23.6425 16.1886C23.6568 16.172 23.6678 16.1594 23.6678 16.1498C23.6649 16.1132 23.636 16.1184 23.6105 16.1229C23.5957 16.1256 23.5821 16.128 23.5753 16.122C23.5643 16.1088 23.5771 16.0637 23.5901 16.0178C23.6043 15.9678 23.6188 15.9168 23.6032 15.9047C23.5985 15.9001 23.5823 15.9133 23.5635 15.9288C23.5358 15.9515 23.5022 15.9791 23.4898 15.9626C23.4771 15.9474 23.4631 15.8582 23.4461 15.7506C23.4321 15.6615 23.4161 15.5598 23.3973 15.4771C23.379 15.3939 23.3601 15.3214 23.3448 15.2623C23.3272 15.1948 23.3142 15.1449 23.3118 15.1165C23.3072 15.0657 22.994 14.1725 22.917 13.9527L22.9165 13.9513C22.8551 13.7677 22.8034 13.5809 22.7616 13.3918C22.7513 13.3432 22.7423 13.2719 22.7345 13.21C22.7249 13.1336 22.7171 13.0715 22.7107 13.0843C22.7058 13.0941 22.7043 13.1201 22.7027 13.1464C22.7005 13.1822 22.6983 13.2188 22.6876 13.2161C22.6781 13.2134 22.6543 13.0761 22.6325 12.9506C22.6172 12.8622 22.6028 12.7796 22.5952 12.7538C22.59 12.7338 22.5766 12.6985 22.5599 12.6547C22.5243 12.5617 22.4742 12.4304 22.4581 12.3261C22.4368 12.1838 22.3922 11.8307 22.3582 11.561L22.3494 11.4914C22.3437 11.4466 22.3386 11.406 22.3339 11.3692C22.3098 11.1806 22.2985 11.0919 22.2985 11.0343C22.3042 10.8658 22.2949 10.6971 22.2708 10.5303C22.225 10.2389 22.1336 9.88518 22.0534 9.6796C22.0161 9.5859 21.9638 9.45695 21.9049 9.31175C21.7197 8.85503 21.4692 8.23736 21.4134 8.04971C21.4134 7.98723 21.4943 8.02198 21.4943 8.02198C21.4943 8.02198 21.6953 8.52595 21.8433 8.91426C21.9867 9.30272 22.1231 9.64485 22.1578 9.6796C22.1856 9.71419 22.4029 10.0956 22.5 10.7199C22.5555 11.0768 22.5905 11.4178 22.6212 11.7161C22.6442 11.9396 22.6647 12.1391 22.6895 12.3034C22.6938 12.3312 22.6979 12.3593 22.702 12.3876C22.7251 12.5453 22.7492 12.7098 22.7982 12.8745C22.8399 13.0154 22.8972 13.1593 22.9688 13.339C23.0041 13.4277 23.0428 13.5251 23.0849 13.6351C23.1935 13.9149 23.2744 14.1483 23.3183 14.3495C23.3461 14.4895 23.3587 14.611 23.3693 14.7131C23.3782 14.7981 23.3856 14.8697 23.3993 14.9275C23.4063 14.9551 23.4143 14.9897 23.4238 15.031C23.4518 15.1527 23.4933 15.3332 23.5658 15.5676C23.6631 15.8819 23.8062 16.2866 23.9032 16.5385C24.093 17.0425 24.1776 17.4633 24.2062 17.6876C24.2315 17.9184 24.3169 18.716 24.2941 18.9578Z" fill="#806638"/>
<path fill-rule="evenodd" clip-rule="evenodd" d="M7.21876 12.2205C7.23995 12.1756 7.26458 12.143 7.28503 12.1209C7.33152 12.1317 7.37689 12.147 7.42045 12.1667C7.39575 12.1669 7.37107 12.1684 7.34654 12.1714C7.38799 12.178 7.43889 12.2172 7.43889 12.2172C7.43889 12.2172 7.45505 12.1826 7.50823 12.1894C7.52499 12.1912 7.54039 12.1994 7.55118 12.2124C7.56196 12.2253 7.56728 12.242 7.56599 12.2588C7.56599 12.2689 7.54755 12.285 7.52887 12.3014C7.51317 12.3152 7.4973 12.3291 7.49208 12.3397C7.48065 12.3628 7.51509 12.3837 7.54984 12.4022C7.56056 12.4079 7.57722 12.4096 7.59514 12.4093C7.59514 12.4093 7.39404 12.4094 7.35473 12.4371C7.32603 12.4573 7.44635 12.4936 7.5422 12.5226C7.57768 12.5333 7.60984 12.543 7.6298 12.5505C7.70371 12.5782 7.86327 12.7053 7.90488 12.8071C7.9442 12.9042 9.34976 13.4705 9.34976 13.4705L9.55349 13.4601L9.29782 14.5344L9.0805 15.5978L9.51514 16.6493L10.3975 16.9994H11.3634L11.597 15.862L12.1215 15.1898L11.9493 15.9119L12.4091 16.8554L11.8474 17.6573L8.85869 17.5707L7.17318 17.0159C7.17318 17.0159 7.05309 17.0095 7.01835 17.0552C7.13821 17.1943 7.19077 17.3178 7.26062 17.482C7.30799 17.5934 7.36331 17.7234 7.45298 17.8897C7.51639 18.006 7.59289 18.1321 7.66393 18.2492C7.7073 18.3207 7.74862 18.3888 7.78368 18.4493C7.84452 18.5527 7.90006 18.6592 7.9501 18.7683C7.9501 18.7683 8.42863 19.0717 8.52113 19.1174C8.44569 19.1521 8.40252 19.1831 8.3378 19.2296C8.32918 19.2358 8.32018 19.2423 8.31067 19.2491C8.40647 19.3 8.47872 19.2861 8.55543 19.2714C8.62505 19.258 8.69833 19.244 8.79621 19.277C8.84064 19.292 8.87796 19.3672 8.92743 19.4668C9.0298 19.673 9.18421 19.984 9.5614 20.0838C9.78572 20.1415 10.4377 19.8389 10.5509 19.781C10.607 19.7523 10.683 19.6805 10.7454 19.6154L11.0593 20.2095L12.881 20.7805L14.608 21.502L14.7543 21.6033L14.612 21.6382L12.7763 22.2833L11.2667 23.6727L9.94678 24.8726C9.94678 24.8726 9.83181 25.2192 9.38676 25.3819L9.5265 25.2005L9.45258 23.0805L8.72199 22.2855L7.55692 21.5018L6.76857 20.7365L6.15593 19.5944L5.99637 19.4003L5.7629 18.7369C5.75415 18.7319 5.74484 18.728 5.73516 18.7253C5.73973 20.0385 5.26578 20.3645 5.26578 20.3645C5.26578 20.3645 5.32125 20.4454 5.39059 20.5425C5.39244 20.5451 5.39429 20.5477 5.39615 20.5503L5.40196 20.5584C5.46848 20.651 5.54111 20.7522 5.54558 20.9031C5.54918 21.0088 5.48447 21.1394 5.41724 21.2751C5.35654 21.3976 5.29378 21.5243 5.27736 21.6405C5.25744 21.7996 5.26829 21.9518 5.28199 22.1441C5.28422 22.1755 5.28653 22.2079 5.28879 22.2416C5.29669 22.3436 5.27554 22.4452 5.23786 22.6262C5.22028 22.7107 5.19907 22.8126 5.17556 22.9399C5.14847 23.0905 5.13249 23.2891 5.11296 23.5319C5.09591 23.744 5.07614 23.9898 5.04389 24.2668C5.04191 24.2846 5.03993 24.3019 5.03795 24.3193C5.91888 25.1764 6.91155 25.9095 7.98845 26.4989L7.98863 26.4997C9.32321 27.2299 10.7721 27.7282 12.2734 27.9735L18.9758 26.9461L23.8111 24.4207C23.8176 24.4145 23.8241 24.4082 23.8305 24.4019C23.8354 24.3972 23.8402 24.3925 23.8451 24.3878L23.9365 21.4023L23.7654 20.2603L22.702 20.1909C22.702 20.1909 21.8098 20.4636 20.9475 20.7468L21.0142 20.6928C21.4187 20.2697 22.1956 19.6293 22.362 19.5091C22.3488 19.6029 22.2876 19.7752 22.2142 19.9818C22.1845 20.0654 22.1528 20.1546 22.1215 20.2465C22.1677 20.1656 22.3504 19.9945 22.4591 19.8974C22.5677 19.799 22.9358 19.5846 23.116 19.4796L23.1449 19.4628C23.1273 19.5394 23.118 19.6177 23.1171 19.6964C23.1171 19.6964 23.2596 19.3474 23.3914 19.0953C23.5233 18.8433 23.5972 18.4434 23.5972 18.4434L23.5966 18.4429C23.5966 18.4429 23.5111 18.5586 23.4163 18.6232C23.3585 18.355 23.3585 18.1656 23.444 17.851C23.3211 18.1674 23.1423 18.1836 22.9668 18.1994L22.9585 18.2001C22.8734 17.7932 22.8896 16.9936 22.9128 16.8107C22.8906 16.8751 22.8325 16.9558 22.7785 17.0307C22.7589 17.0579 22.7398 17.0843 22.7232 17.109C22.7116 17.0535 22.633 16.9954 22.5752 16.961C22.5383 16.939 22.5278 16.8912 22.5159 16.8373C22.5092 16.8069 22.5021 16.7745 22.4896 16.7437C22.2885 16.8639 22.1522 16.8871 22.1522 16.8871C22.1522 16.8871 22.4272 16.746 22.6375 16.1681C22.8282 15.6506 22.7666 15.3504 22.7091 15.0701C22.6955 15.0035 22.682 14.938 22.6723 14.871C22.4204 15.6825 21.8885 16.3275 21.8885 16.3275C21.8885 16.3275 21.8932 16.2813 21.8771 16.1495C21.8322 16.2392 21.8031 16.319 21.7699 16.4101C21.7054 16.5867 21.6254 16.8062 21.3845 17.2245C21.088 17.7395 20.798 17.8058 20.626 17.7915L20.7164 17.4695C21.202 16.6181 21.6162 15.3154 21.6018 14.3216C21.5861 13.3615 21.1905 12.8556 20.9871 12.6183L20.7043 11.0777L17.0654 10.8026L15.3802 12.4094L13.0868 12.7699L12.8218 13.2999C12.8222 13.2941 12.8226 13.2895 12.8229 13.2861L12.8233 13.28L12.7494 12.4732L12.3334 12.2212L11.9951 11.8946L11.6759 12.4956L11.6178 12.5536C11.6413 12.454 11.6549 12.3522 11.6581 12.2495L11.5378 11.3641L11.0131 10.7005L10.3962 11.0426L9.88619 11.1243L8.42973 11.993L8.29081 12.0462L8.92126 11.5056L8.83527 11.3324L8.91524 11.2786L8.20553 10.4047L7.86797 8.74236L7.79863 7.85693L7.20916 7.81761L6.6427 8.45113L6.06024 9.50755L5.72954 10.5411L5.58156 11.1583L5.35296 11.9073L5.38771 11.9651C5.34222 12.1545 5.33965 12.1976 5.33272 12.3135C5.33085 12.3447 5.32866 12.3813 5.32523 12.4275C5.36388 12.1073 5.61813 11.7564 5.82345 11.4731C5.8642 11.4169 5.90304 11.3633 5.93786 11.3131C6.04195 11.1629 6.09971 11.0381 6.10443 11.0149C6.11131 10.989 6.10759 10.9577 6.10346 10.9229C6.09651 10.8645 6.08842 10.7964 6.1276 10.7282C6.14826 10.692 6.19391 10.6767 6.2509 10.6575C6.32127 10.6338 6.40893 10.6043 6.48817 10.5225C6.56434 10.4445 6.63188 10.335 6.69729 10.229C6.79466 10.0712 6.88732 9.92107 6.99672 9.89372C7.25793 9.82666 7.47067 9.92374 7.52157 10.1572C7.55603 10.3233 7.40285 10.4427 7.27192 10.5448C7.20942 10.5936 7.15199 10.6384 7.12244 10.6824C7.0478 10.7936 7.04983 10.8793 7.05558 11.1221C7.05688 11.1767 7.05836 11.2393 7.0592 11.3119C7.06377 11.7072 7.17304 12.1466 7.21876 12.2205ZM10.6866 12.9461L10.4846 12.7692C10.6199 12.7412 10.7363 12.7227 10.8141 12.7394C10.8222 12.7415 10.8302 12.7435 10.8381 12.7454C11.0063 12.7871 11.1067 12.8119 11.2303 13.0263C11.3388 13.2018 11.4362 13.2602 11.4722 13.2769L11.4749 13.2832C11.4989 13.2906 11.5238 13.2945 11.5488 13.2948C11.5211 13.318 11.4632 13.3687 11.4864 13.5005C11.4924 13.5347 11.5018 13.5712 11.5113 13.6083C11.5382 13.7123 11.5662 13.821 11.5236 13.8962C11.4541 13.8176 11.3589 13.7797 11.2649 13.7423C11.1735 13.706 11.0834 13.6701 11.0191 13.5979C10.9185 13.4865 10.8733 13.3692 10.8339 13.2669C10.7885 13.1489 10.7507 13.0507 10.6444 13.0044L10.6866 12.9461Z" fill="#D8C47C"/>
<path fill-rule="evenodd" clip-rule="evenodd" d="M5.52614 11.746L5.11466 12.992L4.82343 14.4369L4.83959 15.616L4.91183 15.9315C4.90429 15.967 4.89952 15.9898 4.89952 15.9898L4.93884 16.4985L5.12842 17.1966L5.31129 17.6538L5.48929 18.2133L5.64398 18.5891L5.76879 18.8757L5.87745 19.5208L6.40215 20.0756L6.68195 20.2005L6.84296 20.1181L8.45778 21.5892L11.699 22.4121L13.6201 21.8461L16.0267 20.8288L16.63 20.1819C16.6192 20.1868 16.2531 20.35 15.6263 20.3433C15.6628 20.3143 15.7106 20.2542 15.7641 20.1867C15.8512 20.0772 15.9536 19.9482 16.048 19.9018C16.0901 19.8804 16.1296 19.8636 16.1674 19.8474C16.2726 19.8023 16.3656 19.7626 16.471 19.6452C16.4954 19.6169 16.5167 19.5905 16.5369 19.5655C16.6357 19.4432 16.7073 19.3546 16.968 19.2453C17.4074 19.0556 17.1052 18.8105 17.1052 18.8105C17.1536 18.763 17.2053 18.719 17.26 18.6788C17.3734 18.5934 17.5051 18.4893 17.4936 18.3065C17.4775 17.9992 17.4197 17.5529 17.1676 17.294C17.2709 17.2726 17.4138 17.254 17.5666 17.2342C17.7765 17.207 18.0047 17.1774 18.1735 17.1346C18.5109 17.049 18.6659 16.9287 18.6659 16.9287C18.6659 16.9287 18.4717 16.5982 18.7861 16.2653C18.8617 16.1853 18.934 16.113 19.0028 16.0441C19.2201 15.8268 19.4027 15.6441 19.5467 15.3613C19.5213 15.3581 19.4944 15.3536 19.4652 15.3488C19.2449 15.3125 18.8993 15.2556 18.1526 15.5393C18.1982 15.5608 18.2423 15.5855 18.2844 15.6132C18.2844 15.6132 17.7643 15.7566 17.5747 15.9162C17.441 16.0292 17.3546 16.134 17.2754 16.23C17.1586 16.3715 17.0576 16.4939 16.8441 16.5959C16.655 16.6862 16.4651 16.716 16.2842 16.7443C16.1224 16.7697 15.9677 16.7939 15.827 16.8594C15.641 16.9459 15.5539 17.0244 15.4883 17.0835C15.4487 17.1192 15.417 17.1478 15.3761 17.1669C15.3858 17.1785 15.3865 17.1934 15.3874 17.2096C15.3886 17.2321 15.3899 17.2573 15.4154 17.2801C15.4131 17.2834 15.4098 17.2883 15.4057 17.2944C15.3606 17.3616 15.2121 17.583 15.0617 17.583C15.0778 17.6454 15.2165 17.6916 15.2165 17.6916C15.2165 17.6916 15.1149 17.7657 14.8559 17.7841C14.8699 17.7986 14.8837 17.8133 14.8978 17.8282C15.0165 17.9537 15.149 18.0938 15.457 18.2881C15.4495 18.3036 15.4358 18.3211 15.4205 18.3405C15.3789 18.3935 15.326 18.4606 15.3599 18.5402C15.4108 18.6488 15.5428 18.7968 16.0696 18.917C15.9984 18.9201 15.924 18.9267 15.8452 18.9337C15.6269 18.9532 15.3748 18.9756 15.0638 18.9332C14.9899 18.9243 14.9267 18.916 14.8715 18.9088C14.6107 18.8747 14.5258 18.8636 14.3102 18.917C14.3205 18.9273 14.3371 18.9338 14.3573 18.9417C14.3915 18.955 14.4359 18.9722 14.4766 19.0187C14.4655 19.0194 14.4449 19.0186 14.4177 19.0175C14.2751 19.0119 13.9489 18.999 13.8247 19.1621C13.674 19.3576 13.6065 19.6759 13.6136 19.8974C13.5263 19.8946 13.379 19.908 13.181 19.9899C12.9723 20.0748 12.7705 20.1006 12.5764 20.1255C12.4567 20.1409 12.34 20.1559 12.2263 20.1841C12.0342 20.2316 11.8431 20.0876 11.6702 19.9574C11.5747 19.8853 11.4847 19.8175 11.4033 19.7887C11.1747 19.7032 10.8716 19.4975 10.8716 19.4975L10.2315 19.435L8.94621 18.8917L7.39333 17.3446L7.27798 16.5915L6.8502 15.4773L6.08959 14.46L6.07317 14.0573L7.12128 12.1921L7.59523 10.8096L6.0164 10.9414L5.52614 11.746ZM6.55333 19.5751L6.63898 19.7518L6.58274 19.6732C6.58274 19.6732 6.56696 19.634 6.55333 19.5751ZM7.16559 17.1178L7.11505 17.0674C7.13161 17.0798 7.14856 17.097 7.16559 17.1178Z" fill="#E6DB9D"/>
<path fill-rule="evenodd" clip-rule="evenodd" d="M8.45813 9.06C8.43501 9.07633 8.4107 9.09082 8.38542 9.10335C8.33865 9.17793 8.29031 9.26871 8.25449 9.36922C8.15726 9.64201 8.14111 9.94025 8.14111 9.94025L8.13653 10.0257C8.13653 10.0257 7.96082 10.294 7.89148 10.3749C7.53385 9.96835 7.58392 9.37182 7.59244 9.27042C7.59278 9.2663 7.59306 9.263 7.59324 9.26056C7.473 9.416 7.35961 9.46172 7.32502 9.46172C7.30642 9.46172 7.29584 9.43971 7.2857 9.41862C7.27698 9.40046 7.26858 9.38299 7.25568 9.3808C7.24519 9.3808 7.19567 9.40034 7.13695 9.42352C7.10529 9.43602 7.07084 9.44961 7.03851 9.46172C6.9106 8.47644 7.30835 8.13823 7.38764 8.07081C7.39298 8.06627 7.3969 8.06293 7.39908 8.06074C7.3366 7.99612 7.3366 7.88274 7.3366 7.88274C7.3366 7.88274 7.32517 7.87131 7.30201 7.84357C7.59339 7.76463 7.96067 7.62153 8.3031 7.46669C8.43493 7.40878 8.57117 7.34645 8.71457 7.27254C9.14113 7.04789 9.37394 6.98809 9.38244 6.98594L9.40549 7.06336C9.46137 6.99965 9.52646 6.93359 9.60248 6.86548C10.1574 6.36836 10.3745 6.19737 10.3745 6.19737L11.2715 5.74658L12.3743 6.18122L11.8264 8.32849L11.4011 9.33432L11.357 9.326C11.33 9.43183 11.2963 9.5089 11.2686 9.56043L11.3134 9.55192V10.1623L11.0797 10.8304C11.0797 10.8304 11.0602 10.874 11.0341 10.9243L11.0982 10.8326L12.046 9.34593L12.3856 8.87545C12.3872 8.87077 12.388 8.86828 12.388 8.86828L12.8272 7.81674L14.078 6.59375L16.02 6.46208L16.2095 7.4679L17.1575 7.79388L17.5006 8.31724L17.7353 8.15111L19.7701 9.92958L20.0789 10.8268L20.0869 10.8421L20.3436 11.5843C20.24 11.5352 20.1275 11.5077 20.013 11.5034C19.9362 11.5012 19.7759 11.5127 19.6045 11.5251C19.3839 11.541 19.1449 11.5582 19.0421 11.5491C19.0065 11.5459 18.969 11.5423 18.929 11.5384C18.764 11.5222 18.5579 11.502 18.2768 11.4983C17.9279 11.4983 17.7728 11.3898 17.7728 11.3898C17.7728 11.3898 17.6873 11.4246 17.5393 11.4292C17.4759 11.4292 17.4155 11.4219 17.3464 11.4137C17.2542 11.4027 17.1466 11.3898 16.996 11.3898C16.8492 11.3898 16.7452 11.4743 16.6602 11.5434L16.6585 11.5448C16.5939 11.5973 16.5491 11.6391 16.5311 11.6563C16.6016 11.658 16.6722 11.6525 16.7417 11.6398C16.7241 11.6431 16.7065 11.6487 16.6888 11.6565C16.7071 11.6549 16.7264 11.6531 16.7464 11.6509C16.6674 11.6639 16.5854 11.727 16.5047 11.8202C16.5064 11.8201 16.5082 11.8201 16.5099 11.82C16.454 11.8834 16.3981 11.9617 16.3417 12.0476C16.3339 12.0601 16.3262 12.0727 16.3186 12.0855L16.3173 12.0849C16.2955 12.1188 16.2736 12.1536 16.2516 12.189C16.1313 12.3948 15.9995 12.5336 15.9256 12.5959C15.7889 12.7202 15.6003 12.7833 15.3813 12.8565C15.3559 12.865 15.3299 12.8737 15.3036 12.8826C15.1913 12.9206 15.0658 12.9867 14.9297 13.0584C14.6512 13.2051 14.3284 13.3752 13.9836 13.3752C13.8744 13.3752 13.7871 13.3441 13.704 13.3144C13.6252 13.2863 13.55 13.2595 13.4634 13.2618C13.4081 13.263 13.3536 13.2764 13.304 13.3011L13.3019 13.296C13.2473 13.3197 13.1954 13.3507 13.1478 13.3805C12.989 13.4767 12.8558 13.6099 12.7595 13.7688C12.7717 13.6255 12.719 13.3687 12.7138 13.3457C12.709 13.3245 12.6895 13.3287 12.6684 13.3331C12.6666 13.3335 12.6647 13.3339 12.6629 13.3343C12.6515 13.2025 12.5937 12.8833 12.5937 12.8833C12.5928 12.9163 12.5874 12.949 12.5775 12.9804C12.5497 12.8186 12.4757 12.6083 12.4757 12.6083H12.4803V11.9633L12.8572 11.5403L14.6603 10.8722L15.668 9.86463L15.4333 9.04725L15.1113 9.48477L14.739 9.39943L14.8253 9.6652L14.5272 10.2548L13.9446 10.5622L13.339 10.8882C13.339 10.8882 13.1749 10.9732 13.0083 10.9275C12.9089 10.9009 12.9096 10.8082 12.9101 10.7253C12.9105 10.6713 12.9108 10.6215 12.8835 10.597C12.8699 10.5853 12.8375 10.5932 12.7936 10.604C12.78 10.6074 12.7652 10.611 12.7496 10.6144L12.4763 11.04L12.3515 11.3937L12.2144 11.9647L12.1912 12.2168C12.1912 12.2168 12.0825 12.2468 12.0778 12.1891C12.0699 12.1412 12.0544 12.0949 12.0321 12.0519C12.0107 12.1645 11.9797 12.2751 11.9396 12.3824C11.8704 12.572 11.7569 12.6575 11.6875 12.6854C11.6388 12.7063 11.593 12.7335 11.5513 12.7663C11.5513 12.7663 11.5397 12.6531 11.5558 12.5722C11.5646 12.5106 11.5694 12.4304 11.5712 12.4005C11.5715 12.3951 11.5717 12.3913 11.5719 12.3896C11.572 12.3883 11.5719 12.3884 11.5719 12.3896C11.5639 12.4034 11.5546 12.4165 11.5443 12.4286C11.4818 12.2395 11.4704 11.8737 11.4704 11.8737C11.4771 11.8804 11.4848 11.8858 11.4934 11.8899C11.477 11.8659 11.4674 11.838 11.4656 11.809C11.458 11.823 11.4541 11.8387 11.4542 11.8547C11.373 11.7807 11.3288 11.6901 11.3085 11.6484C11.3003 11.6316 11.2959 11.6228 11.2946 11.6261C11.2903 11.6335 11.2864 11.6412 11.2831 11.6491C11.2672 11.6168 11.2556 11.5827 11.2485 11.5475C11.2426 11.5182 11.2456 11.4832 11.2485 11.4491C11.2514 11.4156 11.2542 11.3831 11.2485 11.3579C11.2306 11.3768 11.2094 11.3923 11.186 11.4036C11.186 11.4036 11.1791 11.3458 11.1745 11.3065C11.1675 11.2674 11.1675 11.2603 11.1907 11.2094C10.978 11.198 10.9271 11.0778 10.9271 11.0778L10.9318 11.0709C10.9189 11.0516 10.9082 11.0166 10.8992 10.9874C10.8921 10.964 10.886 10.9442 10.8809 10.939C10.8693 10.9275 10.8531 10.9506 10.8531 10.9506C10.8484 10.9622 10.8254 10.9738 10.8254 10.9738C10.8286 10.981 10.8344 10.9867 10.8415 10.9899C10.5334 11.0361 10.2929 11.2073 10.2929 11.2073C10.2888 11.1967 10.2819 11.1874 10.2729 11.1805C10.264 11.1736 10.2533 11.1692 10.242 11.1679C10.2009 11.1609 10.1963 11.2303 10.1963 11.2303C10.1963 11.2303 10.1245 11.2513 9.98584 11.3437C9.92709 11.3828 9.87499 11.4319 9.81528 11.4882C9.73404 11.5647 9.63873 11.6545 9.49344 11.7506C9.44244 11.7863 9.42679 11.8294 9.40848 11.8798C9.37953 11.9595 9.34393 12.0575 9.15131 12.1736C8.8617 12.3525 8.64076 12.3292 8.54447 12.319C8.53626 12.3182 8.52888 12.3174 8.52252 12.3169C8.4416 12.31 8.39771 12.2314 8.40228 12.162C8.33566 12.162 8.21753 12.2125 8.09114 12.2665C7.94574 12.3287 7.78941 12.3955 7.68799 12.3955C7.77806 12.3725 8.04171 12.1898 8.0763 12.1274C8.10861 12.0581 8.20111 11.9147 8.29819 11.8015C8.35739 11.7289 8.44684 11.6535 8.51086 11.5996C8.54689 11.5693 8.57486 11.5457 8.58485 11.5332C8.60802 11.4986 8.55026 11.4755 8.51566 11.4708C8.57342 11.4084 8.83006 11.2373 8.83006 11.2373H8.82945L8.92652 11.0315L9.50158 10.4357C9.50585 10.4296 9.51006 10.4236 9.51423 10.4176C9.52997 10.3949 9.54502 10.3732 9.5597 10.3541C9.85093 9.98427 9.78174 9.81786 9.78174 9.81786C9.65068 9.8459 9.55314 9.74852 9.50742 9.66302C9.4864 9.62459 9.47451 9.58183 9.47268 9.53806C9.49458 9.54747 9.51904 9.54913 9.54202 9.54278C9.56678 9.53244 9.56579 9.48698 9.5653 9.46424C9.56524 9.46151 9.56518 9.45911 9.56518 9.45713C9.56518 9.43869 9.54263 9.43412 9.51947 9.43412C9.52885 9.4273 9.53676 9.41865 9.54273 9.4087C9.5487 9.39875 9.5526 9.3877 9.55421 9.37621C9.53738 9.37899 9.52037 9.38057 9.50331 9.38093C9.48213 9.37929 9.46119 9.37541 9.44083 9.36935C9.42378 9.36971 9.40677 9.37124 9.38993 9.37392C9.3962 9.36772 9.40026 9.35964 9.40151 9.35091C9.40151 9.3453 9.39715 9.34241 9.39213 9.33908C9.38679 9.33554 9.3807 9.33151 9.37834 9.32318C9.22351 9.46643 8.71481 9.39709 8.71481 9.39709H8.7142C8.86488 9.33418 8.91141 9.29887 9.03067 9.20834C9.07436 9.17517 9.12782 9.1346 9.19974 9.08254C9.22217 9.06601 9.24407 9.04884 9.26544 9.03119L8.45813 9.06ZM10.1686 9.10191C10.1652 9.36591 10.1328 9.63904 10.0556 9.91588C10.1107 9.82014 10.2227 9.65452 10.4226 9.46643C10.5268 9.36831 10.6178 9.28111 10.6948 9.20114L10.1686 9.10191Z" fill="#CAAE5B"/>
<path d="M11.3187 27.2963C11.3127 27.3019 11.3068 27.3074 11.3008 27.3129C11.3105 27.3285 11.3201 27.3538 11.3201 27.3925C11.3793 27.3585 11.4338 27.3464 11.4819 27.3358C11.5221 27.3269 11.5578 27.319 11.5883 27.3001C11.596 27.3166 11.6037 27.3415 11.6127 27.3707C11.6441 27.4725 11.6915 27.6258 11.8102 27.6491C11.9696 27.6839 12.1407 27.5798 12.3142 27.4481C12.3476 27.4215 12.3819 27.3935 12.4166 27.3652C12.5595 27.2487 12.7087 27.127 12.8273 27.0712C12.8814 27.1707 12.9292 27.2733 12.9707 27.3786C13.0229 27.3369 13.0856 27.2609 13.1586 27.1723C13.3569 26.9317 13.6319 26.5981 13.9832 26.6064C14.1222 26.278 14.3544 25.9975 14.651 25.7996C15.0972 25.4968 15.3769 25.4737 15.726 25.5014C15.8647 25.3213 16.0356 25.1684 16.23 25.0506C16.2367 25.0533 16.2449 25.057 16.2543 25.0613C16.3256 25.0939 16.4705 25.16 16.6462 25.0783C16.7247 25.0423 16.8071 24.9657 16.896 24.883C17.0351 24.7538 17.1902 24.6095 17.3721 24.5814C17.5328 24.5593 17.6962 24.5936 17.8344 24.6784C17.8344 24.6784 18.7031 23.816 19.3025 23.5294C19.2793 23.46 19.2331 23.1988 19.9358 22.6208C19.9571 22.6395 19.9588 22.6764 19.9602 22.7072C19.9614 22.7336 19.9624 22.7555 19.9752 22.7579C19.9866 22.7579 20.158 22.684 20.3751 22.5175C20.6433 22.3164 20.9645 22.106 21.1587 22.0482C21.5244 21.9396 21.9124 22.1615 21.9124 22.1615C21.9454 22.1383 21.9822 22.1211 22.0211 22.1106L22.0254 22.1098C22.1155 22.094 22.1813 22.0825 22.2314 22.0648C22.2299 22.104 22.236 22.1521 22.2428 22.2055C22.2568 22.316 22.2735 22.4487 22.2314 22.5688C22.3038 22.6095 22.3804 22.6421 22.46 22.6659C22.4561 22.6745 22.4517 22.6844 22.4468 22.6954C22.403 22.7939 22.3208 22.9792 22.1919 23.0728C22.2412 23.0965 22.2729 23.1217 22.3051 23.1473C22.3513 23.184 22.3984 23.2214 22.4993 23.2557C22.43 23.3527 22.3164 23.5193 22.2658 23.6214C22.2439 23.6682 22.1977 23.7782 22.1456 23.9021L22.1454 23.9024L22.1451 23.9031L22.145 23.9034C22.0761 24.0672 21.9973 24.2547 21.9513 24.3519C21.9174 24.4197 21.8788 24.5101 21.8411 24.5984C21.7836 24.7328 21.7282 24.8624 21.6947 24.9005C21.6815 24.9154 21.6602 24.9418 21.6333 24.9751C21.5465 25.0825 21.4014 25.2622 21.2832 25.3627C21.4203 25.3118 21.9815 25.1408 22.2195 25.0761C22.1486 25.18 21.7894 25.7129 21.4441 26.2254C19.7907 27.2165 17.945 27.8437 16.0301 28.0654C14.1152 28.2871 12.1751 28.0981 10.3389 27.5111L10.3395 27.5099C9.47677 27.2333 8.64353 26.8701 7.85263 26.4254V26.3984C7.87208 26.3862 7.88925 26.3708 7.90337 26.3527C7.90941 26.344 7.91483 26.3347 7.91985 26.3261C7.92826 26.3117 7.93553 26.2992 7.94269 26.2949C7.96586 26.2833 8.07451 26.2492 8.13227 26.2602C8.15129 26.2638 8.18059 26.273 8.21423 26.2836C8.28278 26.3053 8.36937 26.3326 8.42366 26.3295C8.48162 26.3279 8.54294 26.3115 8.61125 26.2931C8.73907 26.2588 8.89134 26.2179 9.09177 26.2556C9.39868 26.3124 9.54975 26.47 9.69508 26.6216C9.76869 26.6984 9.84084 26.7736 9.93102 26.8335C10.0875 26.9405 10.2487 26.9151 10.3094 26.9056C10.3196 26.904 10.3269 26.9028 10.3309 26.9028H10.3932C10.397 26.9028 10.4083 26.8928 10.4235 26.8794C10.4557 26.851 10.5052 26.8073 10.5366 26.8105C10.5887 26.8131 10.6143 26.8383 10.6371 26.8608C10.6548 26.8782 10.6708 26.894 10.696 26.896C10.7575 26.9033 10.8449 26.8899 10.9344 26.8762C11.0434 26.8595 11.1555 26.8423 11.2279 26.8614C11.267 26.8736 11.3026 26.8951 11.3315 26.9241C11.3605 26.953 11.3821 26.9886 11.3943 27.0276C11.4221 27.1131 11.3989 27.2218 11.3318 27.2843L11.3187 27.2963Z" fill="#CAAE5B"/>
<path d="M9.14946 23.2613C9.14946 23.2613 9.10374 23.0902 8.68007 22.6487C8.624 22.5905 8.57801 22.5368 8.53668 22.4886C8.48939 22.4335 8.44818 22.3855 8.405 22.3459C8.27008 22.2186 8.17259 22.1539 8.07979 22.0922C8.03423 22.062 7.9898 22.0325 7.94262 21.9967C7.80602 21.8953 7.66419 21.8379 7.52584 21.782C7.34577 21.7091 7.17161 21.6387 7.0226 21.4766C6.75911 21.1899 6.45203 20.6422 6.23867 20.0825C6.02836 19.523 5.97045 19.345 5.97045 19.3288C5.97045 19.3127 6.02836 19.204 6.10228 19.2202C6.15486 19.2317 6.17003 19.3075 6.1811 19.3628C6.1856 19.3852 6.18942 19.4043 6.19478 19.4143C6.23161 19.4711 6.27337 19.5244 6.3196 19.5738C6.33539 19.5919 6.35215 19.6106 6.36952 19.6299C6.47161 19.7436 6.59456 19.8806 6.66173 20.0709C6.64557 19.8813 6.5808 19.671 6.5808 19.671C6.5808 19.671 6.9877 19.9276 7.33441 20.1957C7.38604 20.2353 7.43316 20.2712 7.47632 20.304L7.47726 20.3047C7.72528 20.4932 7.84199 20.5819 7.92876 20.7274C7.95585 20.7728 7.99269 20.838 8.03436 20.9118C8.1495 21.1155 8.30147 21.3844 8.38595 21.4812C8.50101 21.613 10.0776 22.1099 10.0776 22.1099L10.8275 22.6691L11.1998 23.4852L10.9084 23.9424L10.349 24.0626L9.44038 23.6557L9.14946 23.2613Z" fill="#CAAE5B"/>
<path d="M20.8031 11.6147C20.8955 11.9121 20.934 12.2237 20.9165 12.5347L21.2741 13.3539L21.298 14.3077L20.253 17.7314C20.253 17.7314 20.7731 20.8403 20.6483 21.0858C20.5234 21.324 20.1628 21.8048 20.1628 21.8048L20.1637 21.8041C20.365 21.7199 20.5584 21.6179 20.7416 21.4993C20.9752 21.34 21.1971 21.2029 21.3983 21.1571C21.4561 21.1437 21.5287 21.1333 21.6081 21.1218C21.8016 21.094 22.036 21.0602 22.1981 20.963C22.3362 20.8843 22.4836 20.7342 22.5822 20.6337L22.5825 20.6334C22.6141 20.6012 22.6408 20.574 22.6604 20.5561C22.733 20.4933 22.9332 20.454 23.0727 20.4266C23.0979 20.4216 23.1211 20.4171 23.1412 20.4128C23.2731 20.3781 23.5065 20.4221 23.6268 20.6347C23.747 20.8473 23.6961 21.0809 23.6961 21.0809L23.9528 21.2519C23.9528 21.2519 24.0428 20.4677 24.1862 20.3365C24.3133 20.2202 24.3278 20.0946 24.3455 19.9402C24.3467 19.9299 24.3479 19.9196 24.3492 19.909C24.3503 19.8992 24.3515 19.8893 24.3528 19.8793C24.3656 19.734 24.3434 19.5508 24.3338 19.4714C24.3313 19.451 24.3296 19.4373 24.3296 19.4331C24.3296 19.4274 24.3312 19.418 24.3333 19.4051C24.3391 19.3705 24.3491 19.31 24.3458 19.2226C24.3355 19.1359 24.3185 19.0501 24.2949 18.966L24.1862 17.8678L24.0491 17.2622L23.8156 16.5247L23.7347 16.2102L23.649 15.9189L23.5474 15.7525L23.3694 15.0613L23.0711 14.0602L22.8029 13.1123L22.5972 12.22C22.5972 12.22 22.5039 11.6196 22.4169 11.187L22.3587 10.7632L22.2501 10.0719L21.9011 9.16792L21.5011 8.16697L21.2376 8.36113C21.2376 8.36113 20.8092 8.37759 20.6711 8.88126C20.5344 9.3801 20.2858 9.5257 20.2159 9.56665L20.2139 9.56781C20.1469 9.60712 20.1005 9.63486 20.163 9.984C20.3177 10.2992 20.6507 11.1407 20.8031 11.6147Z" fill="#CAAE5B"/>
<path fill-rule="evenodd" clip-rule="evenodd" d="M7.17789 11.7181C7.17789 11.7181 6.98373 11.7761 6.89123 11.8777C6.79872 11.9748 6.7594 12.0557 6.63459 12.2198C6.50978 12.384 6.50277 12.5181 6.40097 12.7238C6.29932 12.925 6.07499 13.2278 6.04725 13.3364C6.01952 13.4451 5.97334 13.9537 5.91558 14.1941C5.86468 14.4346 5.97334 14.7306 5.97334 14.7306L6.10501 14.7027C6.10501 14.7027 6.10501 14.8738 6.23683 14.9895C6.36851 15.1027 6.39167 14.6056 6.39167 14.6056L6.88406 12.9434L7.62609 12.4394L7.70701 12.0325L7.17789 11.7181Z" fill="#E6DB9D"/>
<path fill-rule="evenodd" clip-rule="evenodd" d="M7.53795 12.4718C7.53795 12.4718 7.18881 12.4949 7.01782 12.6198C6.94848 12.6706 6.92075 12.7122 6.84683 12.7747C6.71044 12.8879 6.5716 12.992 6.5047 13.1404C6.43064 13.2882 6.34971 13.5126 6.29424 13.9356C6.27108 14.1136 6.27108 14.2778 6.25492 14.4212C6.23176 14.6153 6.19716 14.7701 6.2156 14.8783C6.23877 15.1002 6.46767 15.2159 6.48992 15.4678L6.96387 15.2275L7.41009 13.4681L8.358 12.8737L7.82156 12.2727L7.53734 12.4708L7.53795 12.4718Z" fill="#E6DB9D"/>
<path fill-rule="evenodd" clip-rule="evenodd" d="M9.7786 12.8556C9.79297 12.8789 9.81321 12.898 9.83729 12.9109C9.86136 12.9239 9.88842 12.9303 9.91576 12.9295C10.1215 12.9295 10.3109 12.9804 10.3896 13.0844C10.5214 13.2509 10.8867 13.7826 10.8867 13.7826L11.7605 14.097L11.8169 13.068L10.8621 12.4047L9.77555 12.8046V12.8555H9.77799L9.7786 12.8556Z" fill="#D8C47C"/>
<path fill-rule="evenodd" clip-rule="evenodd" d="M7.13101 20.4501C7.13101 20.4501 7.3206 20.7529 7.78297 21.0396C8.19916 21.2916 8.85798 21.5205 9.44531 21.6569C9.78272 21.7379 10.1203 21.8002 10.4231 21.8049C11.2392 21.8163 11.8009 21.583 12.4969 21.5067C12.8738 21.4674 13.3362 21.4373 13.817 21.3238C14.4342 21.1758 14.7995 21.0092 15.2966 20.7752C15.6572 20.6087 15.9879 20.4839 16.2559 20.3244C16.6328 20.1025 16.9079 19.8551 17.227 19.7812C17.1877 19.8899 17.1461 20.084 16.8317 20.2852C16.9981 20.2805 17.227 20.2691 17.227 20.2691C17.227 20.2691 17.0051 20.4007 16.6144 20.6967C16.3739 20.8796 16.0549 21.1891 15.729 21.3948C15.5185 21.5266 15.2896 21.6234 15.1393 21.7024C14.7736 21.9035 14.6261 22.0052 14.3857 22.251C14.4712 22.2464 14.4782 22.251 14.4782 22.251C14.4782 22.251 14.1753 22.2903 13.9581 22.4058C13.9124 22.4058 13.8331 22.3897 13.6945 22.429C13.5858 22.4636 13.4424 22.5424 13.2946 22.5838C13.0841 22.6463 13.0149 22.6186 13.0149 22.6186L13.0495 22.6879C13.0495 22.6879 12.7752 22.6832 12.6838 22.6925C12.6999 22.697 12.6953 22.7041 12.6953 22.7041C12.6793 22.7067 12.6638 22.7122 12.6496 22.7202C12.6056 22.7487 12.5572 22.7698 12.5064 22.7825C12.4786 22.7871 12.4555 22.7871 12.4207 22.7941C12.4323 22.8219 12.5225 22.977 12.5641 23.0684C12.5295 23.0916 12.0092 23.4846 12.0092 23.4846C12.0254 23.51 12.0386 23.5372 12.0486 23.5656C12.0647 23.6163 12.0717 23.6904 12.0879 23.725C12.127 23.7943 12.1502 23.8059 12.1502 23.8059C12.1502 23.8059 12.0879 23.8175 11.9791 23.8452C11.8867 23.8684 11.7733 23.9075 11.6133 23.9307C11.5642 23.9371 11.5148 23.941 11.4653 23.9423C11.4885 23.9932 11.5902 24.1873 11.4029 24.4115C11.2156 24.6357 11.1578 24.6683 11.1 24.8116C11.071 24.7896 11.04 24.7702 11.0075 24.7536C10.9452 24.7259 10.8596 24.6845 10.8295 24.6288C10.812 24.7029 10.7889 24.7756 10.7602 24.8461C10.7024 25.001 10.6169 25.1537 10.6008 25.2692C10.5383 25.1999 10.4228 25.0635 10.2632 25.0912C10.1037 25.1189 9.97657 25.3363 9.94884 25.3987C9.94884 25.3594 9.9211 25.3294 9.91424 25.3756C9.90952 25.4265 9.82174 25.958 9.33163 26.3881C9.32706 26.2794 9.32706 26.039 9.31547 25.9605C9.26975 26.0062 9.21382 26.0737 8.88084 26.2171C8.55486 26.3604 8.60652 26.5038 8.60652 26.5038C8.60652 26.5038 8.57879 26.2752 8.7545 26.0344C8.9325 25.7941 9.04116 25.6807 9.04116 25.6622C9.03829 25.6435 9.03027 25.6258 9.01799 25.6113C8.99483 25.5882 8.94865 25.5604 8.94865 25.542C8.97639 25.5306 9.25147 25.3987 9.23531 25.1258C9.21916 24.8809 9.11522 24.7536 9.04116 24.6636C9.02973 24.652 9.14997 24.5665 9.13366 24.5388C9.12208 24.5226 8.97426 24.4138 8.95566 24.3559C8.96003 24.3213 8.96779 24.2873 8.97883 24.2542C8.99498 24.2033 9.00656 24.1686 9.00199 24.134C8.99041 24.0762 8.92793 23.9167 8.90949 23.9005C8.92564 23.9051 9.04116 23.9005 9.04116 23.9005C9.04116 23.9005 8.94881 23.7525 8.9325 23.6832C8.91619 23.6139 8.8816 23.4311 8.86316 23.3965C8.90248 23.4011 8.99955 23.408 8.99955 23.3965C9.00428 23.3618 8.91406 23.304 8.95383 23.2594C8.98157 23.264 9.03476 23.2871 9.08551 23.3519C9.05777 23.2778 9.01159 23.1346 8.91436 23.0768C8.96008 23.0607 9.11553 23.0189 9.25192 23.0998C9.38832 23.1808 9.4348 23.294 9.4348 23.294C9.4348 23.294 9.51572 23.3565 9.64069 23.449C9.78394 23.5622 9.96651 23.7233 10.2579 23.8373C10.3204 23.872 10.4798 23.872 10.5955 23.8489C10.6458 23.8369 10.6941 23.8174 10.7387 23.7911C10.7548 23.7816 10.7719 23.7738 10.7896 23.7679C10.7648 23.7181 10.7362 23.6701 10.7041 23.6245C10.7434 23.6245 10.7896 23.6293 10.7896 23.6293C10.7896 23.6293 10.8173 23.5668 10.6925 23.4464C10.7203 23.4186 10.755 23.4007 10.755 23.3539C10.7157 23.3493 10.6464 23.2915 10.6302 23.2684C10.6532 23.2522 10.688 23.199 10.7273 23.1829C10.6925 23.1552 10.607 23.0395 10.5677 23.0281C10.6053 23.0141 10.6416 22.9971 10.6764 22.9772C10.6764 22.9772 10.4822 22.9263 10.4197 22.8846C10.3573 22.8389 10.2649 22.7598 10.2094 22.7367C10.1515 22.7135 10.0499 22.7021 10.0083 22.6557C10.0474 22.6673 10.1099 22.6557 10.1562 22.6557C10.1908 22.6557 10.2071 22.6603 10.2186 22.6603C10.214 22.6442 10.214 22.6094 10.3042 22.598C10.3476 22.5914 10.3897 22.5782 10.429 22.5587C10.429 22.5587 10.3434 22.5541 10.2462 22.4616C10.1489 22.3691 10.0682 22.2952 10.0127 22.2836C9.95493 22.272 9.84627 22.3229 9.77922 22.3182C9.68671 22.3068 9.64739 22.2604 9.64739 22.2604C9.64739 22.2604 9.34001 22.2882 8.65803 21.8721C8.06841 21.5114 7.81177 21.1924 7.81177 21.1924C7.75659 21.1724 7.70326 21.1476 7.65236 21.1184C7.43047 21.0028 7.12294 20.7624 7.13223 20.4478L7.13101 20.4501Z" fill="#B79947"/>
<path fill-rule="evenodd" clip-rule="evenodd" d="M15.6367 6.5743C15.6902 6.59167 15.7377 6.62373 15.7738 6.6668C15.8825 6.79162 15.9518 7.02738 15.7045 7.27944C15.8016 7.31403 15.8417 7.32516 15.9264 7.31403C15.8409 7.41584 15.6467 7.63315 15.6352 7.82274C15.6236 7.97757 15.7207 8.0239 15.7207 8.0239C15.7207 8.0239 15.5727 8.19489 15.5658 8.48109C15.6357 8.40228 15.7122 8.32958 15.7944 8.26377C15.9656 8.12738 16.2013 7.97254 16.3609 7.87546C16.3587 7.91615 16.3642 7.95689 16.377 7.99555C16.377 7.99555 16.6751 7.7505 16.9257 7.85931C17.0389 7.91021 16.988 8.06962 16.988 8.06962C16.988 8.06962 17.143 8.01186 17.2516 8.12052C17.3603 8.22918 17.5139 8.50944 17.5927 8.6181C17.6273 8.669 17.7175 8.76607 17.8099 8.91634C17.936 9.12671 18.0414 9.34889 18.1244 9.57972C18.129 9.45948 18.159 9.27234 18.5013 9.39014C18.8434 9.51038 19.2317 9.76244 19.5577 10.2588C19.8837 10.7552 19.9645 11.3155 20.1286 11.5289C20.295 11.7346 20.4661 12.0767 20.4777 12.2202C20.4893 12.3636 20.4268 12.8258 20.769 14.0765C20.866 13.6882 21.014 12.8258 21.014 12.8258L21.0949 12.0652L21.1874 9.7117L18.7299 7.67003L16.8088 6.27591L15.558 6.39615L15.6367 6.5743Z" fill="#B79947"/>
<path fill-rule="evenodd" clip-rule="evenodd" d="M20.2027 10.0767C20.2027 10.0767 20.168 9.8481 19.5901 9.45948C19.0121 9.07575 18.5613 9.07575 18.1452 8.74977C17.8261 8.49313 17.4933 7.90351 17.2766 7.70935C17.0661 7.51749 17.0315 6.96261 17.0315 6.96261L17.7412 6.36826L18.7967 4.84261L19.689 3.86011L20.1166 4.45446L20.711 5.15259L21.0415 6.55358L21.1618 8.60423L20.2017 10.0768L20.2027 10.0767Z" fill="#B79947"/>
<path fill-rule="evenodd" clip-rule="evenodd" d="M20.1627 26.8561C20.1627 26.8561 20.1779 26.866 20.2073 26.8822C21.8498 26.1127 23.3214 25.0219 24.5354 23.6742C24.5221 23.2064 24.5049 22.7268 24.486 22.5491C24.4469 22.1722 24.4746 21.7885 24.463 21.5666C24.4514 21.3447 24.3266 20.4407 24.2689 20.2072C24.2064 19.9737 24.086 19.858 24.0677 19.858C24.0515 19.8628 23.9543 20.2974 23.9543 20.4067C23.9543 20.5159 23.9311 20.779 23.9311 20.846C23.915 20.8413 23.9081 20.8003 23.9081 20.7836C23.885 20.8413 23.8572 20.9431 23.8457 20.9547C23.8341 20.9663 23.8618 20.8576 23.8457 20.8345C23.8295 20.8113 23.7999 20.8229 23.8063 20.7651C23.8091 20.7309 23.8145 20.6969 23.8225 20.6635C23.8225 20.6635 23.7532 20.7651 23.7024 21.024C23.6515 21.2807 23.6515 21.2877 23.6331 21.3107C23.6169 21.3386 23.5244 21.4309 23.5197 21.4657C23.5151 21.528 23.6053 21.5905 23.6122 21.6251C23.6168 21.683 23.5313 21.9511 23.5035 22.0823C23.4758 22.2135 23.4874 22.4706 23.4578 22.6024C23.4346 22.7227 23.4121 22.792 23.333 22.8427C23.3908 22.8543 23.4462 22.8705 23.4462 22.8705C23.4462 22.8705 23.5271 23.2126 23.3214 23.504C23.2475 23.6056 23.2291 23.652 23.1504 23.7445C22.9954 23.9155 22.8752 24.1102 22.8636 24.2369C22.8556 24.1995 22.8502 24.1616 22.8475 24.1235C22.8475 24.1235 22.6071 24.4033 22.5053 24.5628C22.3737 24.7686 22.1909 24.757 22.1396 24.8079C22.0882 24.8588 22.0771 24.9512 22.0939 25.0252C22.0481 25.0366 21.9622 25.053 21.9043 25.231C21.8765 25.3233 21.8072 25.4138 21.6985 25.476C21.5899 25.5382 21.4581 25.5569 21.391 25.5731C21.4488 25.5892 21.4719 25.5892 21.4997 25.6077C21.4651 25.6654 21.3055 25.7557 21.1275 25.8713C20.9495 25.98 20.8639 26.1394 20.82 26.2435C20.7742 26.3406 20.7067 26.403 20.5981 26.4146C20.6438 26.4424 20.7115 26.507 20.7461 26.5279C20.6951 26.5394 20.6089 26.5394 20.4548 26.6713C20.293 26.8054 20.2375 26.8447 20.1634 26.8563L20.1627 26.8561Z" fill="#B79947"/>
<path fill-rule="evenodd" clip-rule="evenodd" d="M16.9465 27.9276C17.035 27.8655 17.1309 27.8147 17.232 27.7763C17.5925 27.633 17.974 27.6053 18.1242 27.5591C18.2676 27.5134 18.3809 27.4503 18.5589 27.4157C18.5542 27.4562 18.5502 27.4943 18.5459 27.5303C18.0211 27.6953 17.4868 27.828 16.9458 27.9276H16.9465Z" fill="#E6DB9D"/>
<path fill-rule="evenodd" clip-rule="evenodd" d="M18.0637 8.9277L17.2476 7.75104L16.6766 7.31168C16.6766 7.31168 16.2697 6.5628 16.2419 6.53964C16.2188 6.52349 15.835 6.48188 15.59 6.46573L15.6357 6.57896C15.6892 6.59633 15.7367 6.62839 15.7728 6.67146C15.8815 6.79628 15.9508 7.03204 15.7035 7.2841C15.8006 7.31869 15.8407 7.32982 15.9254 7.31869C15.8399 7.4205 15.6457 7.63781 15.6342 7.8274C15.6226 7.98223 15.7196 8.02841 15.7196 8.02841C15.7196 8.02841 15.5717 8.19955 15.5648 8.4856C15.6347 8.40679 15.7112 8.33409 15.7934 8.26828C15.9646 8.13112 16.2003 7.9769 16.3599 7.87982C16.3577 7.92056 16.3632 7.96134 16.376 8.00006C16.376 8.00006 16.6741 7.75501 16.9247 7.86367C17.0379 7.91457 16.987 8.07413 16.987 8.07413C16.987 8.07413 17.142 8.01637 17.2506 8.12503C17.3593 8.23369 17.5141 8.51333 17.5928 8.62215C17.6274 8.67305 17.7176 8.77012 17.8099 8.92024C17.9361 9.13065 18.0415 9.35288 18.1245 9.58377C18.129 9.49127 18.1476 9.36188 18.3074 9.36188L18.0646 8.92724L18.0637 8.9277Z" fill="#B79947"/>
<path fill-rule="evenodd" clip-rule="evenodd" d="M5.82915 12.2708C5.82915 12.2708 5.77139 12.1274 5.82915 11.8478C5.88691 11.5681 5.97713 11.4363 6.00715 11.0248C6.03717 10.6133 6.30539 10.1001 6.30539 10.1001L7.04741 9.76266L7.57227 9.90591L7.7271 10.6088L7.06356 10.9745C7.06356 10.9745 7.02897 11.1294 6.84167 11.2542C6.65438 11.379 6.39546 11.4761 6.33313 11.6033C6.29586 11.6812 6.26867 11.7636 6.2522 11.8484C6.2522 11.8484 6.06262 11.809 5.94939 11.9339C5.82915 12.0611 5.83372 12.1743 5.82915 12.2714V12.2708Z" fill="#E6DB9D"/>
<path fill-rule="evenodd" clip-rule="evenodd" d="M12.7785 8.24351C12.8527 8.22551 12.9238 8.19665 12.9895 8.15786C12.9618 8.23192 12.9618 8.31285 12.8416 8.48856C12.7213 8.66428 12.7167 8.68973 12.6197 8.8723C12.5226 9.06188 12.511 9.33467 12.4185 9.45476C12.46 9.43461 12.5044 9.42138 12.5502 9.41559C12.5502 9.41559 12.4578 9.49652 12.4185 9.58201C12.3792 9.66751 12.3098 9.84551 12.1389 9.95432C11.9679 10.0631 11.7504 10.1323 11.5169 10.389C11.2833 10.6409 11.043 10.96 10.9226 11.0747C10.9851 10.9661 11.0706 10.7488 11.0937 10.6055C11.1169 10.4623 11.089 10.291 11.1283 10.1015C11.1676 9.9121 11.1676 9.77556 11.3569 9.44485C11.5462 9.11415 11.8702 7.96523 11.8702 7.96523L12.5683 7.74334L12.7788 8.24275L12.7785 8.24351Z" fill="#B79947"/>
<path fill-rule="evenodd" clip-rule="evenodd" d="M12.2752 7.82044C12.2752 7.82044 12.0649 8.12326 12.0071 8.39147C11.9493 8.65969 12.0024 8.63653 11.9678 8.76835C11.9471 8.84873 11.9471 8.93303 11.9678 9.01341C12.0406 8.89607 12.1403 8.79775 12.2587 8.7266C12.4576 8.60651 12.6194 8.52086 12.7159 8.41921C12.813 8.31055 12.8939 8.13255 13.1042 7.99616C13.0187 7.98457 12.8985 7.94526 12.8756 7.95044C12.9613 7.85336 13.2177 7.70538 13.4767 7.52738C13.7333 7.34451 13.7171 7.27075 14.1333 7.08817C13.9969 7.11134 13.9322 7.07659 13.8188 7.08817C13.8645 6.9911 14.0245 6.94477 14.1845 6.78536C14.3446 6.62595 14.0829 6.39004 14.0829 6.39004L12.8637 7.12749L12.2743 7.82105L12.2752 7.82044Z" fill="#B79947"/>
<path fill-rule="evenodd" clip-rule="evenodd" d="M8.967 7.2702L8.99474 7.04831L9.34388 6.48886L9.70917 5.50635V4.16313L9.68144 3.38636L9.73919 2.87766L9.78309 2.71596L9.82941 2.65348L10.1275 2.80832L10.5391 3.36777L10.5784 4.4475L10.1784 6.1513L9.03634 7.39745L8.967 7.2702Z" fill="#CAAE5B"/>
<path fill-rule="evenodd" clip-rule="evenodd" d="M9.8755 6.22052C9.8755 6.22052 10.1498 5.5454 10.2754 4.94664C10.2986 4.8264 10.3447 4.70631 10.3563 4.60923C10.4141 4.04277 10.4302 3.8093 10.3563 3.49947C10.2986 3.27088 10.0767 3.06484 9.96099 2.90513C9.84776 2.73856 9.79457 2.67653 9.81774 2.64148C9.8409 2.60643 9.93097 2.54913 10.0188 2.55598C10.1121 2.5587 10.2038 2.58036 10.2885 2.61966C10.3732 2.65896 10.449 2.71507 10.5113 2.78458C10.6893 2.99032 10.8303 3.6886 10.8303 3.6886L10.9785 4.60999L11.3554 5.7705L9.8758 6.22144L9.8755 6.22052Z" fill="#B79947"/>
<path fill-rule="evenodd" clip-rule="evenodd" d="M12.4529 5.51785C12.4529 5.51785 12.402 5.54086 12.3097 5.51785C12.3136 5.55559 12.307 5.59368 12.2907 5.62794C12.2744 5.6622 12.2489 5.69128 12.2172 5.712C12.1201 5.67268 11.2113 5.75132 11.2113 5.75132C11.2113 5.75132 10.7883 5.67726 10.6565 5.11781C10.5641 4.7455 10.7258 4.23238 10.6726 3.89482C10.5917 3.3977 10.4785 3.30047 10.4669 3.14579C10.4553 2.9911 10.4437 2.95163 10.4437 2.85456C10.3928 2.84297 10.3628 2.82682 10.312 2.82682C10.3005 2.7811 10.3235 2.74117 10.2727 2.66025C10.3005 2.67183 10.49 2.695 10.7119 2.9053C10.8948 3.07645 10.8948 3.13878 10.9224 3.17352C10.957 3.20812 11.2368 3.44784 11.357 3.6868C11.4773 3.92576 11.7107 4.68774 11.7639 4.81255C11.7801 4.86345 11.8148 4.91436 11.9011 5.02987C12.0352 5.19644 12.2316 5.47182 12.4535 5.51754L12.4529 5.51785Z" fill="#987938"/>
<path fill-rule="evenodd" clip-rule="evenodd" d="M10.9549 3.18515C11.095 3.41139 11.2208 3.64613 11.3316 3.88801C11.468 4.19539 11.549 4.44746 11.7201 4.65319C11.6276 4.38513 11.4635 3.85799 11.3664 3.67069C11.2577 3.47257 11.0358 3.25907 10.9549 3.18515Z" fill="#A88F33"/>
<path fill-rule="evenodd" clip-rule="evenodd" d="M9.10464 8.47691L9.3151 8.21342V8.02612C9.3151 8.02612 9.54857 7.96364 9.80049 7.707C10.0524 7.45037 10.4015 6.95797 10.7091 6.98799C11.0166 7.02274 11.0466 7.6561 11.0582 7.83426C11.0698 8.01241 11.1091 8.41672 11.1715 8.63419C11.2408 8.85151 10.4224 9.67445 10.4224 9.67445L9.86663 10.0975L9.10464 8.47691Z" fill="#D8C47C"/>
<path fill-rule="evenodd" clip-rule="evenodd" d="M17.4418 6.17422C17.1687 6.07467 16.8816 6.01852 16.5911 6.0078C16.1056 5.99165 15.3959 6.01938 14.7 6.02395C13.951 6.02853 13.2713 5.76732 12.3281 5.72114C12.1733 5.62864 11.7795 5.22402 10.5503 6.08171C10.6242 6.07714 11.4427 5.89213 11.7269 6.24828C12.0136 6.602 11.9327 7.20305 11.8935 7.3463C11.8194 7.66542 11.5789 8.13008 11.482 8.45606C11.3851 8.78204 11.408 8.95333 11.3386 9.18193C11.2693 9.41052 11.1167 9.52406 11.2068 9.78755C11.327 9.71364 11.3897 9.71364 11.5905 9.26285C11.7914 8.81206 11.7501 8.49065 12.0831 8.1092C12.4091 7.72547 12.9517 7.20061 13.1581 7.06879C13.3644 6.93696 15.0029 6.08628 16.7184 6.8978C17.1321 6.85391 17.4418 6.17422 17.4418 6.17422Z" fill="#B79947"/>
<path fill-rule="evenodd" clip-rule="evenodd" d="M11.2415 5.85968C11.2398 5.84231 11.236 5.82521 11.2301 5.80878C11.2141 5.77497 11.193 5.74378 11.1676 5.71627C11.1676 5.71627 10.7607 5.64236 10.555 5.66537C10.1943 5.70469 9.86828 6.15091 9.71573 6.37981C9.56318 6.60871 9.37359 6.96227 9.16786 7.145C9.17011 7.12719 9.16601 7.10917 9.15628 7.0941C9.15628 7.0941 9.16786 7.11025 9.14485 7.13341C9.12183 7.15658 9.12168 7.16801 9.13326 7.17913L9.16801 7.21373C9.17944 7.21373 9.49856 7.07032 9.9332 6.6651C10.3956 6.24204 10.7493 6.02503 10.9343 5.95066C11.033 5.90873 11.1359 5.87821 11.2415 5.85968Z" fill="#B79947"/>
<path fill-rule="evenodd" clip-rule="evenodd" d="M19.1343 4.12139C19.1343 4.12139 19.0602 4.21374 18.9677 4.31554C18.762 4.53286 18.4938 4.77776 18.2649 5.02982C18.0477 5.27031 17.8026 5.4576 17.5274 5.772C17.2522 6.08639 16.9331 6.43538 16.8523 6.53718C16.7784 6.63899 16.7206 6.8054 16.7206 6.8909C16.6813 6.86316 16.6351 6.83314 16.6351 6.83314C16.6546 6.86944 16.6778 6.90356 16.7045 6.93494C16.7622 7.01586 16.8523 7.11782 16.8986 7.18C16.9555 7.25915 16.9962 7.34866 17.0187 7.44349C17.0464 7.44806 17.2244 7.48281 17.4465 7.11751C17.6685 6.75222 17.9596 6.35233 17.9596 6.35233L18.422 5.66563L18.7134 5.08316L19.0791 4.43121L19.1347 4.12139H19.1343Z" fill="#987938"/>
<path fill-rule="evenodd" clip-rule="evenodd" d="M19.6082 3.65459C19.6082 3.65459 19.3284 3.88318 19.2197 4.02034C19.111 4.1575 18.8539 4.51746 18.8539 4.51746L18.9464 4.50588L19.4158 4.08983L19.5987 3.76385L19.608 3.6552L19.6082 3.65459Z" fill="#A88F33"/>
<path fill-rule="evenodd" clip-rule="evenodd" d="M19.5231 22.0267C19.5231 22.0267 19.5185 21.8372 19.6249 21.7239C19.7335 21.6105 20.0086 21.4441 20.2768 20.8199C20.545 20.1957 20.5749 20.0547 20.5749 20.0547C20.5749 20.0547 20.0941 20.4662 19.7977 20.5633C19.867 20.4199 19.9063 20.3182 19.9411 20.2442C19.9018 20.2096 19.7354 20.1702 19.7192 20.1518C19.8116 20.0593 19.8625 19.8327 20.0498 19.6824C20.2902 19.4995 20.7294 19.1853 21.0708 18.9052C21.4122 18.6251 22.0833 17.9736 22.169 17.784C22.2199 17.8579 22.2313 17.9041 22.2313 17.9041C22.2313 17.9041 21.8939 18.3435 21.7182 18.6231C21.5632 18.8636 21.5748 19 21.5748 19L21.8939 18.8628C21.8939 18.8628 21.9863 19.205 21.5679 19.7252C21.7508 19.6559 21.8246 19.6975 21.9285 19.6396C21.7574 19.7484 21.5216 19.8964 21.2997 20.3031C21.0824 20.71 20.7864 21.184 20.2872 21.4798C19.8017 21.7919 19.5218 22.0254 19.5218 22.0254L19.5231 22.0267Z" fill="#A67A2E"/>
<path fill-rule="evenodd" clip-rule="evenodd" d="M18.27 6.41486C18.27 6.41486 18.0804 6.81002 18.0526 7.11756C18.0481 7.19163 18.0295 7.24938 18.0295 7.33488C18.0249 7.60996 18.0456 7.91749 17.9838 8.06075C17.9606 8.00299 17.949 7.96367 17.9259 7.94066C17.8913 8.03773 17.8288 8.34055 17.7779 8.45378C17.7549 8.37987 17.704 8.12323 17.7087 7.82042C17.7134 7.5176 17.7201 7.45969 17.7201 7.39736C17.7087 7.48971 17.6462 7.61468 17.623 7.68859C17.5884 7.62626 17.5491 7.54534 17.5028 7.47828C17.4751 7.524 17.4405 7.59152 17.4104 7.62626C17.4057 7.59853 17.3943 7.52446 17.3873 7.42053C17.3827 7.30029 17.3757 7.14545 17.3827 7.11299C17.3941 7.05066 17.4914 6.8056 17.6971 6.58128C17.9422 6.31306 18.1942 5.79765 18.2681 5.63809C18.342 5.47853 18.6564 4.81515 18.6564 4.81515H18.8969L18.5478 5.61035C18.5478 5.61035 18.3375 6.04499 18.2288 6.2047C18.1202 6.36441 17.8913 6.82206 17.7895 7.00006C17.8634 6.90299 17.9259 6.85208 17.9999 6.75958C18.0715 6.69481 18.2703 6.41516 18.2703 6.41516L18.27 6.41486Z" fill="#806638"/>
<path fill-rule="evenodd" clip-rule="evenodd" d="M19.6126 3.62441C19.5733 3.74531 19.5113 3.85756 19.4297 3.95511C19.2863 4.12625 18.9788 4.355 18.8287 4.53757C18.6915 4.71557 18.4172 5.20111 18.5419 5.77671C18.5876 5.6519 18.6737 5.40456 18.9026 5.12476C19.1315 4.84495 19.3766 4.5237 19.497 4.27407C19.617 4.02201 19.6332 3.82328 19.6332 3.82328L19.6789 3.76553L19.6512 3.6337L19.6119 3.62441H19.6126Z" fill="#B79947"/>
<path fill-rule="evenodd" clip-rule="evenodd" d="M19.6251 3.5965L19.6135 3.62423C19.6135 3.62423 19.6481 3.63581 19.6413 3.68214C19.6417 3.74553 19.6379 3.80887 19.6297 3.87172C19.6182 3.95265 19.5951 4.01498 19.5905 4.06588C19.5905 4.17454 19.6067 4.29935 19.4534 4.60917C19.4076 4.69467 19.3794 4.76858 19.3563 4.81948C19.2985 4.9443 19.2869 4.96289 19.236 5.02065C19.317 4.97493 19.6083 4.79205 19.7562 4.81948C19.6545 4.87724 19.4995 4.99062 19.4025 5.1386C19.4256 5.14317 19.5227 5.16177 19.6768 5.1386C19.9334 5.09928 20.2201 5.00678 20.472 5.02522C20.7472 5.04137 20.6385 4.69467 20.6385 4.69467L20.3209 3.99654L19.7199 3.57364L19.6251 3.5965Z" fill="#B79947"/>
<path fill-rule="evenodd" clip-rule="evenodd" d="M21.1923 8.82605C21.1923 8.82605 20.924 8.55783 20.8154 7.63735C20.7067 6.71261 20.7299 5.3514 20.7299 5.3514L20.5126 4.81968C20.5126 4.81968 20.4669 4.46597 20.353 4.3343C20.2392 4.20263 20.0156 3.98058 19.9138 3.87192C19.812 3.76327 19.6965 3.61529 19.6271 3.59212C19.6617 3.53437 19.8167 3.20839 20.4108 3.20382C21.0048 3.19924 21.188 3.52979 21.25 3.65003C21.3121 3.77028 21.5922 4.2901 21.6961 5.28068C21.7932 6.27005 21.7979 6.34411 21.7817 6.68624C21.7702 6.87582 21.7077 7.31503 21.5989 7.78426C21.4995 8.18202 21.3908 8.62595 21.192 8.82696L21.1923 8.82605Z" fill="#987938"/>
<path fill-rule="evenodd" clip-rule="evenodd" d="M20.3508 9.6145C20.4402 9.62095 20.5295 9.60081 20.6075 9.55659C20.693 9.55202 21.0028 9.59134 21.2408 9.28853C21.257 9.35772 21.2987 9.54516 21.1899 9.71158C21.2478 9.65367 21.3333 9.63066 21.3449 9.6145C21.3495 9.7 21.4304 9.96349 21.0883 10.6039C21.1806 10.5022 21.2893 10.5068 21.3864 10.4952C21.3911 10.6154 21.4557 11.0199 21.2847 11.2374C21.1715 11.3854 20.9865 11.339 20.9865 11.339C20.9892 11.3067 20.9892 11.2743 20.9865 11.242C20.9819 11.1795 20.9587 11.1171 20.975 11.0755C20.8857 11.0347 20.8042 10.9783 20.7346 10.909C20.5334 10.7194 20.2722 10.3958 20.2538 10.1554C20.2306 9.88714 20.4711 9.82938 20.4711 9.82938C20.4509 9.81136 20.4337 9.79028 20.4202 9.7669C20.4086 9.72774 20.397 9.66525 20.3508 9.6145Z" fill="#806638"/>
<path fill-rule="evenodd" clip-rule="evenodd" d="M18.5683 6.7061C18.5683 6.7061 18.5567 6.68995 18.4944 6.76386C18.506 6.68995 18.5176 6.62046 18.5222 6.5534C18.5517 6.49132 18.5898 6.43375 18.6355 6.38241C18.6008 6.4516 18.5776 6.51408 18.5776 6.51408C18.5776 6.51408 18.6633 6.35452 18.7881 6.25745C18.8736 6.18811 18.9822 6.1558 19.0284 6.09103C19.0793 6.02169 19.0677 6.01011 19.0793 5.99852C19.0793 5.99852 19.1927 5.92461 19.3661 5.70714C19.3891 5.6794 19.4239 5.64938 19.4471 5.62165C19.4862 5.60549 19.5787 5.56389 19.6874 5.50826C19.8008 5.44593 19.9279 5.36044 20.0065 5.32539C20.1613 5.25605 20.3256 5.26306 20.4018 5.15424C20.4596 5.13809 20.5219 4.96466 20.5105 4.81684C20.596 4.85143 21.0352 5.12422 21.1856 5.7207C21.2943 6.14376 21.1 6.79571 21.019 7.11026C20.9381 7.42481 20.9267 7.65813 20.8133 7.80138C20.6699 7.99112 20.2077 8.25857 20.0943 8.39101C19.9972 8.49967 19.706 8.77474 19.7174 8.97347C19.729 9.12145 19.9116 9.20206 19.951 9.2301C19.9905 9.25815 19.9902 9.29259 20.0643 9.27582C20.1383 9.25906 20.1659 9.22492 20.1961 9.22492C20.2307 9.2295 20.2307 9.23651 20.2468 9.23651C20.2585 9.23616 20.2702 9.23457 20.2816 9.23178C20.2816 9.23178 20.27 9.44224 19.7776 9.5061C19.7429 9.51082 19.7083 9.52225 19.6642 9.52926C19.7221 9.50152 19.7567 9.50152 19.8192 9.41603C19.7499 9.40445 19.551 9.39287 19.5001 9.37671C19.5162 9.34897 19.5694 9.27491 19.6133 9.24032C19.6526 9.20572 19.6087 9.1946 19.5742 9.21258C19.5146 9.2531 19.4574 9.29707 19.403 9.34425C19.3453 9.39515 19.2943 9.46449 19.2018 9.52713C19.1741 9.43462 19.1787 9.25891 19.2875 9.13181C19.2596 9.13638 19.2064 9.2173 19.1557 9.20115C19.1465 9.11682 19.152 9.03155 19.1718 8.94908C19.1996 8.845 19.3498 8.66242 19.3498 8.66242L20.0757 7.36537L20.2305 6.38287L18.5683 6.7061Z" fill="#806638"/>
<path fill-rule="evenodd" clip-rule="evenodd" d="M18.5283 6.76157C18.5283 6.76157 18.489 6.7893 18.5676 6.84249C18.556 6.85864 18.5283 6.9164 18.4935 6.95572C18.4544 7.00144 18.4126 7.02979 18.3965 7.0691C18.3619 7.15003 18.3341 7.2055 18.3341 7.24025C18.3341 7.27499 18.3226 7.49688 18.2255 7.64014C18.1907 7.69104 18.1514 7.77653 18.1237 7.83429C18.0659 7.93594 18.015 8.01717 18.0034 8.06289C17.9804 8.14381 17.9643 8.3657 17.9643 8.3657C17.9643 8.3657 18.0152 8.30322 18.0336 8.2802C18.0057 8.33796 17.9757 8.40029 17.9318 8.44662C17.9596 8.42346 18.0405 8.3657 18.1769 8.24546C18.3665 8.08605 18.6624 7.81783 19.0231 7.60539C18.9143 7.64471 18.822 7.64471 18.7481 7.65629C18.8058 7.59853 19.3259 6.98818 19.5987 6.93042C19.6153 6.90942 19.6235 6.88305 19.6219 6.85636L19.3883 6.83335L18.9143 6.93499L18.8451 6.56924L18.5283 6.76111V6.76157Z" fill="#987938"/>
<path fill-rule="evenodd" clip-rule="evenodd" d="M19.2822 8.8423C19.2822 8.8423 19.2197 8.90463 19.162 9.05962C19.1175 9.01318 19.0794 8.96107 19.0486 8.90463C18.9631 8.76138 18.8314 8.57865 18.5239 8.68274C18.5193 8.58566 18.5123 8.53476 18.5239 8.46542C18.5748 8.45399 18.7296 8.32918 18.8845 8.14645C18.9933 8.02164 19.0949 7.87823 19.1643 7.69566C19.21 7.66092 19.2891 7.60316 19.3929 7.5361C19.5408 7.43445 19.7188 7.29562 19.7466 7.14079C19.6772 7.16852 19.5293 7.23786 19.3072 7.22643C19.3929 7.18711 19.5245 7.14551 19.5084 6.97437C19.5431 6.9512 19.5709 6.93505 19.5709 6.93505C19.5448 6.92636 19.5174 6.92243 19.4899 6.92347C19.4852 6.90731 19.4784 6.8843 19.439 6.89573C19.3997 6.90716 19.3933 6.90731 19.3881 6.92347C19.372 6.92819 19.3188 6.92347 19.2795 6.95136C19.2402 6.97924 19.1315 7.07145 19.0899 7.0876C19.1061 7.05986 19.1291 7.01841 19.1291 7.01841C19.1291 7.01841 19.0158 7.02984 18.9349 7.06413C18.7869 7.11503 18.6159 7.20754 18.4425 7.2976C18.4587 7.26987 18.4657 7.25188 18.4771 7.2467C18.4885 7.24152 18.5164 7.23527 18.5164 7.23055C18.5164 7.22582 18.505 7.18483 18.5119 7.16822C18.5637 7.05838 18.6249 6.95319 18.6947 6.85382C18.7757 6.74501 18.7918 6.59017 18.7918 6.59017L19.1455 6.41217L20.1396 6.18358L20.7847 6.2229L20.7038 6.66912L20.3228 7.44817L19.9968 8.15788L19.6245 8.59267L19.2822 8.8423Z" fill="#483925"/>
<path fill-rule="evenodd" clip-rule="evenodd" d="M20.894 6.91122C20.894 6.91122 20.5056 7.39203 20.3969 7.4661C20.4662 7.31812 20.894 6.43726 21.0488 6.19221C21.0143 6.16447 20.9679 6.16447 21.0766 5.73502C20.9842 5.95218 20.9518 6.06557 20.8756 6.12333C20.7994 6.18108 20.7899 6.16264 20.7384 6.16264C20.7481 6.14505 20.7521 6.12486 20.7498 6.10489C20.7498 6.10489 20.4239 6.06557 20.2012 6.06557C19.9786 6.06557 19.5378 6.18581 19.2926 6.28289C19.0985 6.36381 18.9898 6.36381 18.9205 6.41456C18.8511 6.47232 18.8118 6.5348 18.7771 6.55095C18.7493 6.56711 18.6177 6.60871 18.5875 6.6526C18.5597 6.69832 18.5136 6.74968 18.5136 6.76126C18.5136 6.77284 18.502 6.78915 18.5367 6.77741C18.5482 6.77284 18.6338 6.72651 18.7309 6.66876C18.8626 6.59484 19.0221 6.50935 19.1378 6.45845C19.4683 6.32662 19.5724 6.34979 19.7203 6.32205C19.8751 6.29432 20.0971 6.22955 20.245 6.22955C20.3929 6.22497 20.6727 6.22955 20.7375 6.24113C20.7098 6.26429 20.6866 6.29203 20.6982 6.38911C20.6982 6.41684 20.675 6.44687 20.6525 6.51392C20.5833 6.7035 20.4515 7.0179 20.3781 7.17746C20.2765 7.39462 20.161 7.57735 20.1038 7.69058C20.0467 7.80381 19.921 8.10205 19.7964 8.26161C19.6719 8.42117 19.6069 8.51825 19.5679 8.55299C19.5288 8.58774 19.2487 8.79332 19.2696 8.86739C19.3205 8.85123 19.6419 8.73023 19.8752 8.4675C20.1086 8.20477 20.155 8.04444 20.3376 7.90104C20.5202 7.75763 20.6636 7.5173 20.7491 7.31858C20.8207 7.13357 20.8046 7.07581 20.8946 6.91168L20.894 6.91122Z" fill="#62593C"/>
<path fill-rule="evenodd" clip-rule="evenodd" d="M12.5225 10.5C12.5225 10.5 12.4716 10.7103 12.3559 10.8144C12.2427 10.9162 12.0415 11.0039 12.0185 11.1751C11.9908 11.3461 12.2197 11.4317 12.2197 11.4317C12.2197 11.4317 12.0947 11.6375 12.0947 11.7923C12.0947 11.9519 12.0902 11.9819 12.1063 12.1344C12.088 12.1462 12.0724 12.1618 12.0606 12.1801C12.0606 12.1801 12.072 12.3281 12.1854 12.4205C12.2988 12.5128 12.3957 12.5684 12.4535 12.5453C12.4623 12.5641 12.47 12.5835 12.4766 12.6032C12.4766 12.6032 12.5623 12.3859 12.62 12.1963C12.6778 12.0021 12.7287 12.0297 12.7517 11.7685C12.7747 11.5073 13.026 11.0588 13.026 11.0588L13.1975 10.6755L12.9178 10.4582L12.5225 10.5Z" fill="#806638"/>
<path fill-rule="evenodd" clip-rule="evenodd" d="M13.0432 10.8766C12.9855 10.9358 12.9323 10.9992 12.8839 11.0662C12.81 11.168 12.7523 11.2603 12.6436 11.2998C12.5349 11.3393 12.4656 11.339 12.4725 11.4478C12.4793 11.5566 12.5811 11.6026 12.6389 11.6581C12.7014 11.7158 12.7523 11.8129 12.7245 11.9217C12.7591 11.9056 12.8216 11.887 12.8794 11.7622C12.9371 11.6374 13.3411 10.8767 13.3411 10.8767L13.0432 10.8766Z" fill="#483925"/>
<path fill-rule="evenodd" clip-rule="evenodd" d="M14.0643 10.5298C14.0643 10.5298 13.9625 10.375 14.0874 10.2384C14.2124 10.1019 14.3902 10.0443 14.4596 9.95879C14.4464 9.94251 14.4287 9.93048 14.4087 9.9242C14.4547 9.84183 14.5249 9.7756 14.6098 9.73446C14.5753 9.69987 14.5289 9.67213 14.4782 9.67213C14.3648 9.67213 14.2953 9.74147 14.1914 9.74147C14.0897 9.74147 14.0781 9.69057 14.0781 9.69057C14.0781 9.69057 14.2493 9.67442 14.233 9.59807C14.2168 9.51715 14.1872 9.51715 14.1872 9.51715C14.1872 9.51715 14.5178 9.37999 14.5756 9.30684C14.6333 9.23369 14.6265 9.14728 14.638 9.11268C14.6772 9.11268 14.9061 8.99244 14.9986 9.04334C15.0911 9.09424 15.0263 9.23292 15.0263 9.23292C15.0263 9.23292 15.3063 9.02246 15.4489 8.81612C15.5738 8.8277 15.6318 8.73062 15.7233 8.73062C15.8366 8.73062 16.0146 8.88546 16.0492 9.21601C16.0724 9.40559 16.107 9.51425 16.0724 9.84952C16.0562 10.0391 16.0608 10.4439 16.1181 10.6447C16.1573 10.8043 16.2498 10.7881 16.2498 10.7881C16.2356 10.8368 16.2075 10.8802 16.1689 10.913C16.1064 10.9707 16.0995 11.1234 16.1064 11.1812C16.1156 11.2234 16.1272 11.2651 16.1411 11.306C16.1411 11.306 16.0672 11.3915 16.0486 11.4494C16.0325 11.5071 15.9563 11.5465 15.9006 11.5465C15.845 11.5465 15.8729 11.5417 15.799 11.5465C15.7251 11.5512 15.7019 11.5626 15.6556 11.5465C15.6093 11.5303 15.5747 11.5117 15.5933 11.3636C15.6094 11.2156 15.0222 10.8712 15.0222 10.8712L14.0621 10.5291L14.0643 10.5298Z" fill="#B79947"/>
<path fill-rule="evenodd" clip-rule="evenodd" d="M12.9609 11.9909C12.9609 11.9909 13.1712 12.2707 14.0359 12.2707C14.4474 12.2707 14.5908 12.2314 14.676 12.2082C14.7685 12.1851 15.1152 12.0488 15.4643 11.6372C15.7787 11.265 15.7094 11.1125 15.7094 11.1125L15.5265 11.0847L14.9322 11.1657L13.1735 11.9147L12.9601 11.9909H12.9609Z" fill="#62593C"/>
<path fill-rule="evenodd" clip-rule="evenodd" d="M13.6069 12.0603C13.6069 12.0603 12.8578 12.2269 12.8578 11.7529C12.8578 11.2905 13.3202 10.805 13.4359 10.7195C13.5561 10.6338 13.8428 10.5366 13.8428 10.5366H14.5341L14.6657 10.8858L14.608 11.6394L13.6069 12.0603Z" fill="#222014"/>
<path fill-rule="evenodd" clip-rule="evenodd" d="M14.2984 10.6779C14.2984 10.6779 14.1551 10.5461 13.8291 10.7236C13.5031 10.9012 13.2395 11.2722 13.2233 11.6092C13.2072 11.9073 13.4684 12.1293 13.8753 12.1409C14.1781 12.1523 14.3608 12.1177 14.4533 12.0952C14.4302 12.0675 14.3099 11.9172 14.3099 11.9172L14.2984 10.6779Z" fill="#D8C47C"/>
<path fill-rule="evenodd" clip-rule="evenodd" d="M14.1571 10.7516C14.1571 10.7516 14.1226 10.7239 14.02 10.7794C13.9345 10.8251 13.8097 10.9459 13.7126 11.0314C13.6501 11.0823 13.6108 11.1053 13.5754 11.1446C13.432 11.3158 13.3118 11.5956 13.3813 11.7343C13.4508 11.873 13.6795 12.0325 14.2621 11.9239L14.1555 10.7518L14.1571 10.7516Z" fill="#E6DB9D"/>
<path fill-rule="evenodd" clip-rule="evenodd" d="M13.9674 11.0384C13.9674 11.0384 13.8749 11.1818 13.8749 11.4107C13.8749 11.6442 14.0068 12.0163 14.4923 12.0441C14.8645 12.0672 15.1141 11.5078 15.3846 11.2905C15.5903 11.124 15.7151 11.1193 15.7151 11.1193C15.7151 11.1193 15.5048 10.8907 14.9431 10.5946C14.3882 10.2964 13.7663 10.257 13.4287 10.7148C13.5883 10.7033 14.1038 10.5714 14.1038 10.5714L14.3559 10.6524L13.9674 11.0384Z" fill="#222014"/>
<path fill-rule="evenodd" clip-rule="evenodd" d="M14.6932 11.3413C14.6771 11.3067 14.6655 11.2604 14.7325 11.249C14.7996 11.2376 14.8296 11.2443 14.8528 11.2947C14.8759 11.3451 14.8985 11.3872 14.8642 11.4081C14.8296 11.4265 14.7395 11.4084 14.6932 11.3413ZM14.5846 11.0154C14.5846 11.0154 14.5614 11.0315 14.573 10.9992C14.5775 10.96 14.6077 10.8905 14.6816 10.9069C14.7555 10.9232 14.7395 11.0039 14.7273 11.0271C14.7152 11.0503 14.6534 11.0894 14.6071 11.0728C14.6012 11.0713 14.5958 11.0684 14.5912 11.0644C14.5867 11.0605 14.5831 11.0554 14.5809 11.0498C14.5786 11.0442 14.5777 11.0381 14.5783 11.0321C14.5788 11.026 14.5807 11.0202 14.5839 11.0151L14.5846 11.0154Z" fill="#62593C"/>
<path fill-rule="evenodd" clip-rule="evenodd" d="M8.32617 11.1631C8.32617 11.1631 8.50905 11.3003 8.72149 11.2949C8.9318 11.2902 9.2023 11.073 9.32712 10.9342C9.40103 10.8533 9.46427 10.7678 9.53285 10.7007C9.59076 10.643 9.62993 10.6152 9.65766 10.5759C9.69698 10.5302 9.73859 10.4443 9.75947 10.4164C9.70856 10.4557 9.63465 10.5252 9.5583 10.5714C9.48439 10.6171 9.32483 10.703 9.26006 10.7262C9.19773 10.7494 8.55035 11.0919 8.55035 11.0919L8.32617 11.1631Z" fill="#9F8E57"/>
<path fill-rule="evenodd" clip-rule="evenodd" d="M8.60672 9.45491C8.60672 9.45491 8.70837 9.38557 8.90496 9.34153C9.09454 9.29581 9.47599 9.2606 9.47599 9.2606L9.79039 9.39776L9.9152 9.87172L9.68661 10.3643L9.39538 10.5471L9.06467 10.0154L8.60748 9.45583L8.60672 9.45491Z" fill="#9F8E57"/>
<path fill-rule="evenodd" clip-rule="evenodd" d="M8.1943 9.87791L8.08548 9.95914C8.08548 9.95914 8.11337 9.90824 8.13638 9.75341C8.1594 9.59857 8.27979 9.22169 8.4555 9.00437C8.63122 8.78706 8.62665 8.79864 8.62665 8.79864C8.61048 8.79568 8.59386 8.7962 8.57791 8.80017C8.56196 8.80414 8.54704 8.81146 8.53414 8.82165C8.55731 8.77044 8.70528 8.58757 8.85326 8.49613C9.00124 8.40469 9.059 8.37589 9.21383 8.45041C9.36867 8.52493 9.40799 8.56364 9.52137 8.55907C9.63475 8.5545 9.73168 8.43426 9.73168 8.43426C9.73168 8.43426 9.75484 8.50817 9.66935 8.67931C9.58385 8.85045 9.24629 9.19944 9.24629 9.19944L8.54344 9.68026L8.1943 9.87837V9.87791Z" fill="#D8C47C"/>
<path fill-rule="evenodd" clip-rule="evenodd" d="M8.10415 10.0214C8.10415 10.0214 8.00707 10.0792 7.95617 10.2957C7.90527 10.5176 8.00189 10.7881 8.05782 10.8736C8.11375 10.9591 8.2407 11.1927 8.50404 11.2043C8.56922 11.204 8.63368 11.1906 8.69362 11.165C8.78555 11.1228 8.87178 11.0692 8.95026 11.0054C9.06364 10.9199 9.15599 10.846 9.14441 10.839C9.11668 10.8274 8.44628 10.2725 8.44628 10.2725L8.19422 9.99122L8.10415 10.0214Z" fill="#62593C"/>
<path fill-rule="evenodd" clip-rule="evenodd" d="M8.73775 10.9414C8.73775 10.9414 8.87415 10.9299 8.95507 10.879C9.03599 10.8281 8.48111 10.278 8.48111 10.278L8.52043 10.8723L8.73775 10.9414Z" fill="#483925"/>
<path fill-rule="evenodd" clip-rule="evenodd" d="M8.14809 9.97965C8.14809 9.97965 8.07875 10.1115 8.07875 10.1462C8.06717 10.2595 8.10191 10.6155 8.12965 10.7287C8.15739 10.8489 8.30765 11.0315 8.50195 11.0315C8.62204 11.0315 8.78861 10.9576 8.78861 10.9391C8.78861 10.916 8.61747 10.8934 8.5713 10.8073C8.54356 10.7616 8.53198 10.6479 8.52558 10.533C8.521 10.4591 8.521 10.3782 8.54874 10.3501C8.61122 10.2808 8.62265 10.0819 8.62265 10.0819L8.84454 9.66968H8.5527L8.20356 9.887L8.14809 9.97965Z" fill="#987938"/>
<path fill-rule="evenodd" clip-rule="evenodd" d="M8.06292 10.1069C8.06292 10.1069 8.29152 9.80405 8.49756 9.73456C8.7036 9.66507 8.7958 9.70682 8.7958 9.70682L8.67556 10.0144L8.50441 10.2039L8.516 10.301C8.516 10.301 8.48811 10.5577 8.65925 10.7357C8.83039 10.9137 8.95749 10.9068 9.03156 10.9068C9.10562 10.9068 9.31822 10.8443 9.42687 10.5877C9.52395 10.3473 9.60487 10.039 9.41072 9.72999C9.22099 9.42245 8.88586 9.41056 8.8211 9.41056C8.75633 9.41056 8.24778 9.43601 8.06292 10.1064V10.1069Z" fill="#222014"/>
<path fill-rule="evenodd" clip-rule="evenodd" d="M13.9329 11.1355C13.8474 11.0962 13.9284 10.8559 14.0139 10.7818C14.0994 10.7077 14.208 10.6224 14.3978 10.6107C14.4669 10.6061 14.534 10.65 14.5226 10.6963C14.5064 10.7818 14.3862 10.902 14.2775 10.9875C14.1272 11.1055 14.03 11.1794 13.9329 11.1355Z" fill="white"/>
<path fill-rule="evenodd" clip-rule="evenodd" d="M9.30903 9.82472C9.37151 9.82015 9.45244 9.87044 9.46859 9.9381C9.48474 10.012 9.42927 10.16 9.30903 10.16C9.21195 10.16 9.16105 10.0398 9.16105 10.0052C9.16215 9.97671 9.17009 9.94895 9.18422 9.92424C9.18879 9.91722 9.20037 9.8363 9.30903 9.82472Z" fill="white"/>
<path fill-rule="evenodd" clip-rule="evenodd" d="M8.4073 9.87802C8.4073 9.87802 8.24774 9.95193 8.17383 10.1066C8.12101 10.2208 8.10504 10.3487 8.12811 10.4724C8.13969 10.5301 8.19745 10.6734 8.23677 10.7243C8.27609 10.7752 8.32927 10.8099 8.36859 10.8052C8.40791 10.8005 8.48868 10.6965 8.48868 10.6342C8.48868 10.5719 8.4934 10.3082 8.5696 10.1648C8.63666 10.0216 8.40776 9.87817 8.40776 9.87817L8.4073 9.87802Z" fill="#D8C47C"/>
<path fill-rule="evenodd" clip-rule="evenodd" d="M8.4303 9.86632C8.40256 9.88248 8.35639 9.90564 8.36782 9.93566C8.3794 9.9634 8.47648 9.98138 8.51122 10.049C8.55054 10.1184 8.55054 10.1923 8.53896 10.227C8.56916 10.2127 8.59656 10.1931 8.61988 10.1691C8.67078 10.1114 8.73311 10.0329 8.7863 10.0329C8.82105 10.0329 8.85564 10.049 8.8881 10.049C8.939 10.049 8.98975 10.0329 8.99676 9.97971C9.00819 9.91036 8.89968 9.84788 8.8372 9.85946C8.84878 9.81375 8.86494 9.74623 8.81404 9.6999C8.76314 9.65358 8.60373 9.73465 8.56898 9.75781C8.53424 9.78098 8.4303 9.86632 8.4303 9.86632Z" fill="#E6DB9D"/>
<path fill-rule="evenodd" clip-rule="evenodd" d="M12.1043 14.7235L12.4464 14.6225L12.5435 14.6918C12.5435 14.6918 12.6127 14.8398 12.7215 14.8582C12.6868 14.9321 12.5966 14.9954 12.6013 15.0478C12.606 15.1002 12.6522 15.1403 12.6522 15.1403C12.6522 15.1403 12.3446 15.6489 12.9504 16.1614C12.807 16.2191 12.6244 16.2985 12.5274 16.3442C12.5966 16.3604 12.7445 16.39 12.807 16.446C12.8695 16.5021 12.8695 16.52 12.9273 16.5547C12.985 16.5894 13.0196 16.6356 13.0082 16.6563C12.9689 16.6332 12.837 16.564 12.814 16.6286C12.791 16.6932 12.243 16.6679 12.243 16.6679L11.3183 16.8459C11.3183 16.8459 11.3528 16.7534 11.2558 16.6679C11.1425 16.5663 11.0039 16.6725 10.8559 16.5593C10.6617 16.4113 10.6547 16.2402 10.5924 16.1755C10.6547 16.1362 10.782 16.0785 11.0848 16.0384C11.0732 16.0152 11.0339 15.9459 11.057 15.8835C11.0848 15.8026 11.2003 15.7517 11.1657 15.6549C11.2166 15.6434 11.2396 15.6434 11.3669 15.4838C11.4871 15.3242 11.561 15.2897 11.6535 15.2781C11.746 15.2665 11.8015 15.2781 11.9726 15.1185C12.0927 15.0053 12.0536 14.9082 12.0536 14.9082C12.0536 14.9082 12.1319 14.8831 12.1043 14.7235Z" fill="#CAAE5B"/>
<path fill-rule="evenodd" clip-rule="evenodd" d="M8.52775 18.279C8.54578 18.2991 8.56681 18.3163 8.59008 18.3299C8.64799 18.3693 8.73348 18.4156 8.79124 18.4848C8.8144 18.4502 8.87216 18.3877 8.97412 18.4848C9.07607 18.5819 9.20271 18.5127 9.2815 18.5357C9.36243 18.5636 9.367 18.575 9.367 18.575C9.367 18.575 9.41272 18.5357 9.51497 18.4941C9.57746 18.4709 9.65137 18.4548 9.73229 18.4317C9.80621 18.4156 9.88713 18.3924 9.94275 18.3924C9.99365 18.427 10.1762 18.621 10.9091 18.3347C11.6004 18.0665 11.7598 18.0364 11.8755 18.0779C11.887 18.0501 11.8986 17.997 12.0766 18.004C12.0766 17.9301 11.9286 17.678 11.9286 17.678L11.1126 17.3983H10.6662L9.32768 17.6434L8.58596 18.0666L8.5282 18.28L8.52775 18.279Z" fill="#CAAE5B"/>
<path fill-rule="evenodd" clip-rule="evenodd" d="M8.08172 17.8099C8.08172 17.8099 8.09788 17.9347 8.28289 18.0665C8.46576 18.1982 8.52322 18.2768 8.52322 18.2768C8.52322 18.2768 8.55796 18.2311 8.5857 18.1845C8.61344 18.1336 8.6366 18.0758 8.68278 18.0597C8.77528 18.0204 8.98559 18.0943 9.03192 18.0827C9.07124 18.0713 9.05966 17.9903 9.10126 17.9903C9.19834 17.9856 9.26067 18.0527 9.29541 18.0527C9.33016 18.0527 9.4155 18.0481 9.42708 18.0297C9.43867 18.0112 9.44324 17.8192 9.57506 17.7267C9.71847 17.625 9.89418 17.6689 9.94082 17.6921C9.94082 17.7267 9.94539 17.8123 10.0379 17.8169C10.1304 17.8215 10.1395 17.8053 10.2208 17.8331C10.302 17.8608 10.3988 17.8285 10.4427 17.9647C10.482 17.9533 10.5745 17.9417 10.5513 17.8099C10.597 17.7753 10.637 17.7521 10.7342 17.6157C10.7574 17.5811 10.7965 17.5418 10.8267 17.4909C10.9076 17.4909 11.0047 17.4748 11.1341 17.588C11.0948 17.6157 11.0716 17.6337 11.0602 17.6619C11.094 17.6954 11.1249 17.7318 11.1525 17.7706C11.1873 17.8163 11.2104 17.8724 11.2543 17.884C11.3514 17.9117 11.511 17.8724 11.689 17.884C11.8601 17.8955 12.0034 17.9579 12.0658 17.9972C12.089 17.9858 12.089 17.981 12.1468 17.9926C12.2045 18.0042 12.2484 18.0088 12.1861 17.9349C12.2207 17.951 12.26 17.9858 12.2947 17.951C12.3295 17.9163 12.3571 17.8655 12.4541 17.8539C12.5512 17.8424 12.586 17.8585 12.6253 17.7569C12.6762 17.632 12.5005 17.632 12.5005 17.632C12.5005 17.632 12.5814 17.558 12.6716 17.4609C12.7803 17.3593 12.9051 17.2274 12.9351 17.0656C12.986 16.7673 12.6948 16.7282 12.6948 16.7282L11.2822 17.1628L9.55525 17.0772L8.08264 17.81L8.08172 17.8099Z" fill="#987938"/>
<path fill-rule="evenodd" clip-rule="evenodd" d="M6.81248 13.7295C6.81248 13.7295 6.76676 13.7872 6.73856 13.9236C6.71037 14.06 6.72241 14.0439 6.69924 14.1409C6.67608 14.238 6.39156 15.2044 6.49823 15.5303C6.60491 15.8563 6.78962 15.9766 6.90513 16.24C6.9283 16.2978 6.95085 16.3326 6.96289 16.3835C7.00221 16.5544 6.96762 16.6863 7.01379 16.8574C7.02995 16.9152 7.0717 16.9822 7.13403 17.0516C7.27119 17.1948 7.49476 17.3312 7.59122 17.4283C7.72747 17.5717 7.92177 17.8631 8.16911 17.8907C8.30094 17.9068 8.48823 17.8513 8.64307 17.759C8.78023 17.6733 8.86496 17.5533 9.00882 17.4847C9.11047 17.4338 9.21913 17.4153 9.31621 17.3922C9.51737 17.3529 9.70009 17.3465 9.80875 17.369C9.97517 17.4038 10.3682 17.524 10.586 17.524C10.7562 17.5212 10.9254 17.498 11.09 17.4547C11.4205 17.3576 11.8204 17.191 12.084 17.1171C12.2389 17.0714 12.3637 17.0593 12.4909 17.0316C12.7083 16.9807 12.8908 16.9114 12.9949 16.7795C12.9256 16.6986 12.8401 16.5738 12.3776 16.5784C11.8529 16.59 11.2471 16.8812 10.9488 16.9275C10.6506 16.9738 10.5212 17.013 10.1882 16.8928C9.86179 16.7713 9.85097 16.691 9.85097 16.691C9.85097 16.691 9.50823 16.4513 9.36482 15.8402C9.22142 15.229 9.36482 14.7837 9.73713 14.3605C9.83421 14.2519 9.81104 14.1548 9.81104 14.1548C9.81104 14.1548 10.0561 13.8242 9.98904 13.5147C9.91513 13.2072 9.44117 13.2697 9.44117 13.2697L6.81248 13.7295Z" fill="#62593C"/>
<path d="M6.92603 13.2213C6.91054 13.2381 6.8935 13.2535 6.87513 13.267C6.94919 13.0427 7.06928 12.8995 7.34893 12.7632C7.63559 12.6383 8.18818 12.6157 8.80082 12.7983C9.41345 12.9808 9.82965 13.1636 9.82965 13.5705C9.82965 13.7128 9.75369 13.7829 9.6409 13.8868C9.59626 13.928 9.54584 13.9745 9.49209 14.0328C9.39977 14.1285 9.29885 14.2572 9.20269 14.3798C9.16647 14.426 9.13092 14.4713 9.09677 14.5137C8.99027 14.6436 8.88824 14.7591 8.77977 14.8546C8.92175 14.8195 8.98654 14.8346 9.00769 14.8696C9.01804 14.8868 8.94383 14.916 8.84701 14.9541C8.68303 15.0187 8.45418 15.1088 8.46146 15.209C8.46426 15.2453 8.61324 15.3016 8.76138 15.3576C8.89519 15.4081 9.02833 15.4585 9.05249 15.4935C9.08012 15.5308 9.10334 15.5712 9.12168 15.6138C9.1264 15.66 9.1264 15.764 9.05249 15.8149C8.9795 15.8686 8.89456 15.8226 8.75514 15.7473C8.74436 15.7415 8.73325 15.7354 8.72179 15.7293C8.54608 15.6322 8.34491 15.4265 8.34491 15.4265C8.30105 15.4519 8.25216 15.4675 8.20166 15.4722C8.14591 15.4798 8.09192 15.497 8.0421 15.5231C8.0421 15.5231 7.90373 15.1281 7.73259 15.209C7.58073 15.2801 7.54795 15.2909 7.54203 15.291C7.54204 15.2897 7.54196 15.289 7.54196 15.289C7.54196 15.289 7.53945 15.291 7.54203 15.291C7.54192 15.3023 7.53433 15.3528 7.39045 15.209C7.2033 15.0263 7.18471 14.9454 7.18014 14.883C7.17846 14.8503 7.1835 14.8177 7.19484 14.7872C7.03686 14.6261 6.91441 14.4197 6.84038 14.1877C6.67741 13.6747 6.86101 13.34 6.9184 13.2353C6.92128 13.2301 6.92384 13.2254 6.92603 13.2213Z" fill="#222014"/>
<path fill-rule="evenodd" clip-rule="evenodd" d="M9.83532 16.0598C9.83532 16.0598 9.796 16.083 9.796 16.0946C9.79251 16.1057 9.79097 16.1174 9.79143 16.1291C9.79143 16.136 9.84233 16.1246 9.84919 16.1176C9.85147 16.113 9.83532 16.0718 9.83532 16.0598Z" fill="#62593C"/>
<path fill-rule="evenodd" clip-rule="evenodd" d="M9.49175 15.9512C9.51476 15.9559 9.55408 15.9512 9.5841 15.9628C9.60726 15.9743 9.62342 15.9975 9.60025 16.0252C9.57709 16.053 9.55454 16.0946 9.50318 16.0876C9.44542 16.083 9.38995 16.053 9.38995 16.0298C9.38898 16.0152 9.39093 16.0005 9.39569 15.9866C9.40045 15.9727 9.40793 15.9599 9.41768 15.9489C9.44085 15.9304 9.45243 15.942 9.49175 15.9512Z" fill="#62593C"/>
<path fill-rule="evenodd" clip-rule="evenodd" d="M6.8282 16.157C6.84503 16.1601 6.86228 16.1601 6.8791 16.157C6.9137 16.1522 7.27442 16.0198 7.6513 16.0436C7.93344 16.0606 8.21308 16.1066 8.48583 16.1807C8.95978 16.3055 9.54925 16.5529 9.9307 16.694C10.0324 16.7332 10.1319 16.8027 10.205 16.8302C10.4964 16.9436 10.5078 16.9436 10.679 16.9737C10.8801 17.0014 11.0859 16.9343 11.3009 16.8882C11.5644 16.8302 12.0152 16.8025 12.4105 16.7448C12.5383 16.727 12.6644 16.6984 12.7874 16.6593C12.7874 16.6593 12.473 16.9737 11.7192 17.0869C11.4146 17.1332 11.105 17.137 10.7992 17.0985C10.5587 17.0753 10.3993 17.0406 10.2791 17.006C10.1427 16.9666 9.86289 16.8626 9.51847 16.7774C9.27799 16.7149 9.00977 16.6687 8.70238 16.611C7.94405 16.4721 7.12111 16.3127 6.8279 16.1579L6.8282 16.157Z" fill="#222014"/>
<path d="M6.33756 13.0011C6.37037 13.0304 6.40328 13.0598 6.43537 13.0891C6.35445 13.0154 6.27596 12.9409 6.19504 12.8602C6.11412 12.7796 6.03548 12.7056 5.95456 12.6316L5.71423 12.4098C5.69434 12.3899 5.67387 12.3712 5.6534 12.3524C5.63341 12.3342 5.61341 12.3159 5.59399 12.2965L5.48076 12.1831C5.15478 11.8805 4.83566 11.5844 4.50968 11.2861C4.75439 11.5217 5.00287 11.7572 5.25134 11.9927L5.25238 11.9937C5.3231 12.0607 5.39382 12.1277 5.46445 12.1947C5.48525 12.2131 5.50798 12.2328 5.53059 12.2523C5.55069 12.2697 5.57077 12.2871 5.58926 12.3034C5.60914 12.3233 5.6296 12.342 5.65005 12.3607C5.67006 12.379 5.69007 12.3973 5.7095 12.4168L5.94999 12.6454C6.03091 12.7193 6.11168 12.7933 6.19032 12.8673C6.23774 12.9118 6.28766 12.9565 6.33756 13.0011Z" fill="#B79947"/>
<path fill-rule="evenodd" clip-rule="evenodd" d="M5.85265 13.5336C5.83401 13.5302 5.81541 13.5269 5.79686 13.5235C5.73278 13.512 5.66906 13.5006 5.60542 13.4895L5.12003 13.4086L4.14896 13.2537C4.11608 13.249 4.08358 13.2443 4.05116 13.2396C4.00379 13.2328 3.9565 13.2259 3.90847 13.2191L3.66357 13.1912C3.5949 13.1843 3.52622 13.1769 3.45699 13.1695C3.36542 13.1596 3.27279 13.1497 3.17804 13.1405C2.85412 13.106 2.5302 13.0716 2.20628 13.0439L2.19995 13.043L2.2001 13.0434L2.22214 13.0464C2.51452 13.0916 2.8069 13.1296 3.09929 13.1651L4.73857 13.387L5.12003 13.4433L5.60542 13.5127C5.76498 13.5358 5.93139 13.559 6.09095 13.5751C6.04441 13.5674 5.9984 13.5594 5.95278 13.5514L6.09324 13.5704C6.09324 13.5704 6.00074 13.5562 5.85265 13.5336ZM2.20851 13.0443L2.2001 13.0434L2.20628 13.0439L2.20851 13.0443ZM5.85265 13.5336C5.37687 13.4608 4.32722 13.3009 3.92707 13.2444C3.38879 13.1675 2.31412 13.0553 2.20851 13.0443C2.21305 13.045 2.21759 13.0457 2.22214 13.0464L3.09929 13.1651C3.12548 13.1683 3.15168 13.1715 3.17788 13.1746C3.23794 13.1816 3.29897 13.1893 3.36024 13.197C3.46174 13.2097 3.56393 13.2225 3.66342 13.2325L3.90847 13.2607C3.94953 13.2665 3.98999 13.2736 4.03047 13.2806C4.06973 13.2875 4.10913 13.2944 4.14896 13.3001L4.73857 13.387L5.95278 13.5514C5.91922 13.5455 5.88586 13.5395 5.85265 13.5336Z" fill="#B79947"/>
<path d="M5.97733 13.8729L5.97772 13.8728L5.95977 13.8779C5.6906 13.957 5.42276 14.0339 5.14966 14.1064L4.98314 14.151L3.69554 14.5111C3.63007 14.5302 3.56458 14.5494 3.49904 14.5687L3.08757 14.682C3.02378 14.7004 2.95948 14.7177 2.89468 14.735L2.66248 14.8C2.66248 14.8 2.68989 14.7916 2.73792 14.777C2.71585 14.783 2.69372 14.7891 2.67153 14.7953L2.68333 14.7914C2.81578 14.7469 2.95054 14.7017 3.083 14.6635L3.49447 14.5319C3.63074 14.4894 3.76663 14.4482 3.90242 14.4069C4.04073 14.3649 4.17902 14.3229 4.31742 14.2798C4.43434 14.2508 4.5505 14.221 4.66653 14.1912C4.82789 14.1498 4.98933 14.1083 5.15194 14.0693C5.41704 14.0024 5.69609 13.9357 5.97517 13.8734L5.97403 13.8737L5.97667 13.873L5.97517 13.8734L5.97733 13.8729Z" fill="#B79947"/>
<path fill-rule="evenodd" clip-rule="evenodd" d="M2.83566 15.5628C2.83699 15.5623 2.83846 15.5618 2.84006 15.5611C2.89572 15.5398 2.94995 15.5163 3.00364 15.4919C3.04452 15.4745 3.08533 15.4571 3.12612 15.4396C3.26069 15.382 3.39536 15.3244 3.53178 15.2692L4.22991 14.9618C4.29204 14.935 4.35401 14.9089 4.41578 14.8828C4.58857 14.81 4.75982 14.7377 4.9282 14.6542C5.03529 14.6045 5.14496 14.5578 5.25475 14.5111C5.3796 14.4579 5.50472 14.4047 5.62633 14.3468C5.59653 14.3545 5.5678 14.3628 5.53915 14.371L5.62376 14.3337C5.62376 14.3337 5.55298 14.3589 5.45419 14.3949C5.45062 14.3959 5.44704 14.3968 5.44345 14.3977L5.26058 14.4555C5.14049 14.4948 5.02025 14.5364 4.9 14.5872C4.75157 14.6515 4.60851 14.7228 4.46585 14.794C4.38193 14.8358 4.29812 14.8776 4.21346 14.9179L3.52675 15.2484L3.22127 15.3909C3.17424 15.4124 3.13015 15.4325 3.08973 15.4508L2.83566 15.5628ZM3.08973 15.4508L3.14106 15.4282C3.13075 15.433 3.12045 15.4378 3.11015 15.4426L3.10896 15.4432C3.07392 15.4596 3.03889 15.4759 3.00364 15.4919C2.96824 15.507 2.93279 15.522 2.89724 15.537C2.94305 15.517 3.0091 15.4874 3.08973 15.4508Z" fill="#B79947"/>
<path d="M2.98824 16.2032L3.74916 15.7917L4.12604 15.586C4.25314 15.5189 4.37338 15.4496 4.49819 15.3756C4.57457 15.3354 4.64842 15.2926 4.72225 15.2499C4.77138 15.2214 4.82065 15.1929 4.8705 15.1652C4.93291 15.1305 4.99592 15.0976 5.05894 15.0646C5.12193 15.0317 5.18499 14.9987 5.24738 14.964C5.28345 14.9445 5.31953 14.9251 5.35558 14.9057C5.57134 14.7895 5.78645 14.6738 5.99641 14.541C5.74965 14.6401 5.51443 14.7547 5.28022 14.8688C5.25775 14.8797 5.23509 14.8908 5.21263 14.9017L5.01848 14.9988C4.9528 15.026 4.8894 15.0585 4.82889 15.0958C4.73096 15.1493 4.63709 15.2054 4.54207 15.2623C4.51383 15.2791 4.48532 15.2962 4.45674 15.3132C4.43059 15.3283 4.40474 15.3433 4.37908 15.3582L4.37793 15.3589C4.27922 15.4161 4.18313 15.4719 4.08443 15.5303L3.71868 15.7524C3.52606 15.8723 3.33345 15.9908 3.14312 16.1079L3.14282 16.108C3.0955 16.1371 3.04832 16.1662 3.00132 16.1951C2.9926 16.2002 2.98824 16.2032 2.98824 16.2032Z" fill="#B79947"/>
<path d="M5.96982 14.7339L5.97736 14.7281L5.96699 14.7359C5.84688 14.82 5.73007 14.9074 5.61298 14.995C5.53991 15.0496 5.46669 15.1044 5.39254 15.1585L5.01658 15.4478L4.54853 15.7983C4.51359 15.8233 4.47852 15.8483 4.44345 15.8733L4.44304 15.8736C4.37467 15.9223 4.30627 15.971 4.23874 16.02C4.04868 16.158 3.85877 16.2983 3.6793 16.4494L3.67479 16.4528L3.67833 16.4502C3.67478 16.4532 3.67124 16.4562 3.66771 16.4592C3.87375 16.3274 4.06775 16.1911 4.26206 16.0477C4.35899 15.9762 4.45475 15.9035 4.55049 15.8308C4.6466 15.7579 4.74286 15.6848 4.8401 15.6131L5.41113 15.1743C5.59985 15.0316 5.79311 14.8842 5.97538 14.73C5.97353 14.7313 5.97168 14.7326 5.96982 14.7339Z" fill="#B79947"/>
<path d="M11.0937 14.7749C11.0983 14.7517 11.1169 14.7401 11.2417 14.7517C11.3202 14.759 11.662 14.7279 11.9583 14.7009C12.1332 14.685 12.2924 14.6705 12.3722 14.6662C12.5895 14.6501 13.3547 14.6615 13.727 14.7401C14.0993 14.8188 14.476 14.9113 14.6586 14.9575C14.8415 15.0084 14.8991 15.0267 14.8921 15.0498C14.8875 15.073 14.8464 15.0955 14.8227 15.0891C14.8165 15.0879 14.7679 15.0735 14.6965 15.0524C14.5032 14.9953 14.1434 14.889 14.0068 14.8605C13.8197 14.8215 13.1721 14.7171 12.8181 14.7234C12.738 14.7245 12.6696 14.7248 12.6079 14.7251C12.415 14.726 12.288 14.7266 12.0761 14.7511C11.7963 14.7859 11.3339 14.832 11.1952 14.8136C11.0804 14.8001 11.0816 14.7979 11.0891 14.7839C11.0906 14.7812 11.0923 14.7781 11.0934 14.7743L11.0937 14.7749Z" fill="#B79947"/>
<path d="M4.9672 16.3466L4.96744 16.3469C5.0355 16.2911 5.10186 16.2338 5.16951 16.1754C5.21456 16.1365 5.2602 16.0971 5.30728 16.0573C5.36137 16.0091 5.41368 15.959 5.46597 15.909C5.51885 15.8584 5.57178 15.8077 5.6264 15.7591C5.6951 15.6979 5.76563 15.6393 5.83567 15.581C5.87633 15.5473 5.91707 15.5134 5.95695 15.4794C5.97545 15.4626 5.99485 15.4458 6.0145 15.4287C6.04891 15.3989 6.08412 15.3684 6.11651 15.336C6.12401 15.3285 6.13152 15.3205 6.13921 15.3123C6.1551 15.2954 6.17172 15.2777 6.19042 15.2621C6.20064 15.2489 6.21175 15.2383 6.22294 15.2277C6.23348 15.2177 6.24411 15.2076 6.25414 15.1951L6.2641 15.1862C6.26342 15.1866 6.26274 15.187 6.26206 15.1874C6.26092 15.188 6.25977 15.1887 6.25859 15.1894C6.26054 15.1868 6.26245 15.184 6.26434 15.1812C6.23611 15.1849 6.21263 15.2013 6.19127 15.2162C6.183 15.222 6.17505 15.2276 6.16726 15.2321C6.1339 15.2488 6.10286 15.2698 6.07491 15.2946C6.019 15.3409 5.96573 15.3903 5.91535 15.4426C5.87155 15.4873 5.82815 15.533 5.7848 15.5787C5.72755 15.6389 5.67039 15.6991 5.61253 15.7569C5.56677 15.8029 5.51518 15.8491 5.46815 15.8913C5.46304 15.8959 5.45797 15.9004 5.45297 15.9049L5.28656 16.0482C5.17805 16.1453 5.0694 16.2446 4.96772 16.3461L4.9672 16.3466Z" fill="#B79947"/>
<path d="M6.34806 15.4236L6.34998 15.4217C6.26906 15.4887 6.19468 15.5628 6.11848 15.639L6.08483 15.672L5.77817 15.9615C5.73881 15.9956 5.70003 16.0297 5.66296 16.0666L5.56241 16.1651L5.44139 16.2794C5.44871 16.2737 5.45737 16.2666 5.46721 16.2584L5.44107 16.284C5.50564 16.2357 5.56353 16.1853 5.62278 16.1337C5.64212 16.1169 5.66165 16.0999 5.68156 16.0828C5.73389 16.0335 5.78222 15.9842 5.83053 15.9348C5.85468 15.9102 5.87882 15.8855 5.90345 15.8609L6.13204 15.6436C6.20858 15.5748 6.28072 15.5013 6.34806 15.4236Z" fill="#B79947"/>
<path d="M5.52657 17.5094L5.53336 17.496C5.584 17.3689 5.64967 17.2486 5.7141 17.1306C5.72254 17.1151 5.7311 17.0994 5.73947 17.084C5.74785 17.0698 5.75617 17.0556 5.76441 17.0414L6.07165 16.4367C6.07936 16.4204 6.08705 16.4042 6.09464 16.3883C6.11896 16.3371 6.1423 16.2881 6.16222 16.2402C6.1752 16.2125 6.18721 16.1853 6.19899 16.1588C6.2186 16.1145 6.23759 16.0717 6.25929 16.0299C6.26704 16.0157 6.27453 16.0016 6.28196 15.9876C6.31211 15.9307 6.34144 15.8755 6.38411 15.8217C6.38411 15.9072 6.36125 15.9813 6.33351 16.0552C6.30647 16.1291 6.27565 16.2017 6.24116 16.2725C6.20641 16.3418 6.16709 16.4159 6.12777 16.4829C6.11506 16.5046 6.10164 16.5265 6.08811 16.5486C6.05979 16.5948 6.03105 16.6417 6.00753 16.6887L5.77406 17.1002C5.75726 17.1286 5.74056 17.1571 5.72387 17.1856C5.66019 17.2943 5.59675 17.4026 5.52901 17.5071C5.53032 17.5037 5.53164 17.5004 5.53297 17.497C5.53079 17.5012 5.52866 17.5053 5.52657 17.5094Z" fill="#B79947"/>
<path d="M7.00185 18.4039C6.97899 18.0202 7.20759 17.7174 7.20759 17.7174C7.16732 17.8281 7.12169 17.9888 7.07795 18.1429C7.05134 18.2366 7.02543 18.3279 7.00185 18.4039Z" fill="#B79947"/>
<path d="M7.27693 19.2485C7.34398 18.8439 7.42491 18.021 7.42491 18.021C7.39588 18.6886 7.37823 18.771 7.31795 19.0528C7.30607 19.1083 7.29253 19.1715 7.27693 19.2485Z" fill="#B79947"/>
<path d="M8.93478 19.31C8.93761 19.3016 8.93912 19.2971 8.93912 19.2971V19.2964C8.93768 19.3009 8.93623 19.3054 8.93478 19.31Z" fill="#B79947"/>
<path d="M8.93478 19.31C8.89506 19.4278 8.59653 20.3216 8.58998 20.5825C8.60265 20.5333 8.61735 20.4753 8.63367 20.411C8.71168 20.1034 8.82675 19.6497 8.93478 19.31Z" fill="#B79947"/>
<path d="M9.73908 17.6552C9.73908 17.6552 10.294 18.5707 10.7102 19.352C10.5975 18.9588 10.3385 18.2377 9.73908 17.6552Z" fill="#B79947"/>
<path d="M11.2299 19.0028C11.5346 19.5414 11.8093 20.0963 12.0528 20.665C12.0067 20.272 11.8817 19.5993 11.2299 19.0028Z" fill="#B79947"/>
<path d="M9.40176 14.6381C9.37402 14.6335 9.32784 14.6612 9.33942 14.6727L9.33882 14.6731C9.37341 14.717 9.57229 14.8327 9.6046 14.835C9.62761 14.8395 9.68537 14.8117 9.67851 14.8002C9.67635 14.7966 9.66982 14.7884 9.66153 14.778C9.64349 14.7554 9.6171 14.7223 9.60917 14.7032C9.6209 14.7149 9.69024 14.6986 9.69481 14.687C9.6982 14.6784 9.68639 14.6446 9.67817 14.621C9.67528 14.6127 9.67284 14.6057 9.67165 14.6015C9.66104 14.5986 9.6499 14.5981 9.63908 14.6001C9.62826 14.6021 9.61804 14.6066 9.60917 14.6131C9.60239 14.6187 9.59685 14.6257 9.59289 14.6335C9.58893 14.6414 9.58664 14.65 9.58616 14.6588C9.58272 14.6531 9.57884 14.6477 9.57457 14.6427C9.56772 14.6381 9.52779 14.6311 9.51682 14.6427C9.51472 14.6449 9.51284 14.6473 9.51098 14.6496C9.50311 14.6597 9.49537 14.6695 9.4711 14.6658C9.45567 14.6635 9.44512 14.6574 9.43474 14.6515C9.42491 14.6458 9.41524 14.6403 9.40176 14.6381Z" fill="#62593C"/>
<path fill-rule="evenodd" clip-rule="evenodd" d="M9.76705 14.0023C9.75094 14.0252 9.64751 14.2534 9.64224 14.2889C9.63793 14.2774 9.62968 14.2674 9.61907 14.2612C9.60292 14.2566 9.54973 14.2612 9.54973 14.2889C9.54973 14.3167 9.59545 14.4718 9.64681 14.5526C9.6591 14.5698 9.67054 14.5863 9.68132 14.6019C9.72135 14.6597 9.75223 14.7044 9.78321 14.719C9.79555 14.7246 9.80957 14.7254 9.82243 14.7211C9.8353 14.7168 9.84606 14.7078 9.85255 14.6958C9.85712 14.6843 9.8687 14.5988 9.86413 14.3976C9.85956 14.1964 9.85255 14.0023 9.84096 13.9907C9.82938 13.9791 9.78321 13.9793 9.76705 14.0023Z" fill="#62593C"/>
<path d="M9.8525 15.1282C9.85477 15.1171 9.85224 15.1103 9.85024 15.1049C9.84808 15.099 9.84655 15.0949 9.8525 15.0889C9.86393 15.0773 9.92657 15.0543 9.93815 15.0657C9.94098 15.0686 9.9403 15.0768 9.93938 15.088C9.93881 15.0949 9.93815 15.1029 9.93815 15.1114C9.93815 15.134 9.93815 15.1572 9.92657 15.1738C9.91041 15.1969 9.86424 15.2085 9.84107 15.2017C9.81791 15.1948 9.81334 15.1623 9.81334 15.1559C9.82477 15.1514 9.8525 15.1398 9.8525 15.1282Z" fill="#62593C"/>
<path d="M10.2472 14.8786C10.2472 14.867 10.2865 14.8438 10.3097 14.8438C10.3371 14.8438 10.3428 14.8612 10.3463 14.8719C10.3472 14.8747 10.348 14.8771 10.349 14.8786C10.3526 14.88 10.355 14.8801 10.3571 14.8801C10.3616 14.8803 10.3641 14.8804 10.372 14.8947C10.3836 14.9156 10.3999 14.9525 10.3882 14.9756C10.3764 14.9988 10.3304 15.0148 10.319 15.0102C10.3028 14.9987 10.2519 14.8947 10.2472 14.8786Z" fill="#62593C"/>
<path d="M9.35298 15.1039C9.45568 15.0662 9.50328 15.0148 9.50328 15.0148C9.49631 14.99 9.48238 14.9676 9.46313 14.9504C9.44388 14.9332 9.42011 14.9219 9.39462 14.9178C9.33686 14.8947 9.2791 14.9179 9.2282 14.9918C9.17848 15.064 9.21049 15.1098 9.22705 15.1334L9.2282 15.1351C9.243 15.1329 9.25717 15.1303 9.27071 15.1275C9.27155 15.1351 9.27733 15.1476 9.29993 15.1646C9.30968 15.1725 9.32128 15.1799 9.33327 15.1876C9.36384 15.2073 9.39699 15.2285 9.40859 15.2617C9.41601 15.2829 9.42003 15.2978 9.42287 15.3084C9.42622 15.3208 9.42796 15.3273 9.43175 15.3311C9.43632 15.3356 9.51725 15.3311 9.55657 15.3079C9.56387 15.3036 9.57237 15.2988 9.58134 15.2937C9.62068 15.2715 9.66907 15.2441 9.66523 15.2317L9.66568 15.2321C9.66568 15.2206 9.54087 15.1351 9.40905 15.1072C9.39586 15.1046 9.38865 15.1087 9.38159 15.1127C9.37625 15.1158 9.37101 15.1188 9.36333 15.1188C9.3589 15.117 9.35549 15.1109 9.35298 15.1039Z" fill="#62593C"/>
<path d="M7.72826 15.0611C7.68208 15.6669 7.81375 15.7917 7.81375 15.7917C7.96645 15.5467 7.89468 15.0773 7.89468 15.0773C7.83998 15.0657 7.78416 15.0603 7.72826 15.0611Z" fill="#62593C"/>
<path d="M8.88775 15.9511L8.84204 15.9743H8.84158C8.84158 15.9743 8.88074 16.0043 8.97782 16.002C9.05188 16.0091 9.07033 15.9511 9.0749 15.9165C9.08191 15.882 9.04716 15.7847 8.97325 15.7731C8.89918 15.7683 8.88775 15.9511 8.88775 15.9511Z" fill="#62593C"/>
<path d="M8.6365 15.1975C8.6365 15.1975 8.68221 15.1814 8.73814 15.2368C8.74742 15.2368 8.76302 15.2359 8.78251 15.2347C8.85911 15.23 8.99588 15.2217 9.04568 15.253C9.10816 15.2923 9.1266 15.3269 9.1266 15.3269C9.1266 15.3269 8.89313 15.3778 8.76588 15.3269C8.63649 15.283 8.6365 15.1975 8.6365 15.1975Z" fill="#62593C"/>
<path d="M8.49764 15.7015C8.49764 15.7015 8.52065 15.5421 8.67564 15.5351C8.83505 15.5235 8.86522 15.6783 8.86522 15.6783L8.77272 15.7708C8.77272 15.7686 8.70338 15.6715 8.4984 15.7015H8.49764Z" fill="#62593C"/>
<path d="M9.43679 15.4726C9.43679 15.4726 9.35587 15.4217 9.27723 15.4564C9.20332 15.4912 9.20789 15.6276 9.20789 15.6276C9.22452 15.6341 9.24248 15.6364 9.26023 15.6344C9.27797 15.6324 9.29495 15.6261 9.30969 15.616C9.36059 15.5814 9.42521 15.5235 9.43679 15.4726Z" fill="#62593C"/>
<path d="M9.55988 15.6088C9.57188 15.618 9.58646 15.6292 9.58908 15.6553L9.58954 15.6547C9.59285 15.6679 9.59386 15.6859 9.59492 15.7048C9.59755 15.7519 9.60052 15.805 9.64044 15.805C9.69637 15.805 9.74666 15.7085 9.74209 15.6733C9.73751 15.6381 9.69591 15.6085 9.66817 15.5924C9.65859 15.5863 9.64966 15.5791 9.64115 15.5722C9.6245 15.5588 9.60944 15.5467 9.59411 15.5467C9.58247 15.5466 9.57114 15.5504 9.56194 15.5575C9.55274 15.5647 9.54619 15.5747 9.54336 15.586C9.54336 15.5961 9.5509 15.6019 9.55988 15.6088Z" fill="#62593C"/>
<path d="M9.94965 15.5928C9.94279 15.6206 10.0353 15.5928 10.0353 15.5928C10.0385 15.5961 10.0399 15.6036 10.0417 15.6131C10.0463 15.6377 10.0533 15.6753 10.0999 15.6853C10.1555 15.6922 10.2249 15.6529 10.2249 15.6344C10.2211 15.6095 10.2115 15.5857 10.197 15.5651C10.192 15.557 10.1918 15.5524 10.1916 15.5485C10.1914 15.5434 10.1912 15.5395 10.1808 15.5303C10.1624 15.5142 10.0999 15.5419 10.0999 15.5419C10.0902 15.5339 10.0779 15.5297 10.0653 15.5303C10.0433 15.5324 10.0228 15.5423 10.0076 15.5582C9.97754 15.5582 9.95651 15.5651 9.94965 15.5928Z" fill="#62593C"/>
<path d="M10.5786 15.5235C10.6016 15.5049 10.5739 15.4887 10.5739 15.4887C10.5739 15.4887 10.6248 15.4887 10.6316 15.4726C10.6479 15.4494 10.6248 15.4333 10.597 15.438C10.5669 15.4426 10.4584 15.4541 10.4306 15.4541C10.4195 15.4541 10.4085 15.4566 10.3985 15.4614C10.3885 15.4662 10.3796 15.4732 10.3727 15.4819C10.3381 15.4935 10.2804 15.5398 10.2804 15.5628C10.2804 15.5796 10.3135 15.5781 10.3583 15.576C10.3749 15.5752 10.3932 15.5744 10.412 15.5744C10.4815 15.5692 10.5624 15.5396 10.5786 15.5235Z" fill="#62593C"/>
<path d="M10.6595 14.8488C10.6987 14.8488 10.7334 14.7749 10.7334 14.7749V14.7754C10.7564 14.7944 10.7796 14.7824 10.798 14.7639C10.8148 14.7522 10.8605 14.7015 10.8605 14.6783C10.8605 14.6551 10.8259 14.6437 10.7866 14.6437C10.7528 14.6446 10.7203 14.6568 10.6941 14.6783C10.6595 14.6731 10.6202 14.7008 10.6202 14.724C10.6155 14.7517 10.6434 14.7517 10.6548 14.7517C10.6572 14.7577 10.6479 14.7718 10.6383 14.7862C10.6293 14.7996 10.6202 14.8133 10.6202 14.8211C10.6202 14.8327 10.6202 14.8443 10.6595 14.8488Z" fill="#62593C"/>
<path d="M10.1606 16.1689C10.1606 16.1459 10.2063 16.1412 10.2063 16.1412L10.2067 16.1421C10.2067 16.1421 10.2136 16.13 10.1929 16.1116C10.1921 16.1108 10.1913 16.1101 10.1906 16.1094C10.1809 16.0999 10.1794 16.0984 10.216 16.0768C10.2554 16.0537 10.2669 16.0768 10.2669 16.0768C10.2824 16.0682 10.3001 16.0641 10.3178 16.0653C10.3524 16.0653 10.3756 16.0838 10.3872 16.1232C10.3872 16.1457 10.364 16.1575 10.3363 16.1689C10.3114 16.1833 10.2839 16.1928 10.2554 16.1966C10.2281 16.1966 10.2222 16.1825 10.2188 16.1741C10.2178 16.1718 10.217 16.1699 10.216 16.1689C10.207 16.1715 10.1977 16.1731 10.1883 16.1736C10.172 16.1805 10.1606 16.1805 10.1606 16.1689Z" fill="#62593C"/>
<path d="M10.019 16.3539C10.0028 16.3469 9.94508 16.3701 9.94508 16.3816V16.3821C9.94508 16.3869 9.94991 16.3946 9.95502 16.4028C9.96213 16.4141 9.96979 16.4263 9.9658 16.433C9.9658 16.4354 9.95876 16.4383 9.95177 16.4412C9.94489 16.444 9.93807 16.4469 9.93807 16.4491C9.93807 16.4555 9.97723 16.4949 10.0004 16.4949C10.0236 16.4949 10.0813 16.4671 10.0813 16.4555C10.0813 16.4463 10.0351 16.3585 10.019 16.3539Z" fill="#62593C"/>
<path d="M9.77447 16.0327C9.77095 16.0377 9.76806 16.0418 9.7622 16.0441C9.74361 16.0557 9.711 16.081 9.69941 16.1041C9.68783 16.1273 9.69941 16.1736 9.711 16.1782C9.72258 16.1828 9.80122 16.1828 9.85897 16.1666C9.91673 16.1434 9.93289 16.1087 9.93289 16.081C9.93289 16.0679 9.92773 16.0558 9.92228 16.0431C9.91618 16.0289 9.90972 16.0138 9.90972 15.9955C9.9149 15.9839 9.89174 15.9793 9.864 15.9839C9.85579 15.9853 9.848 15.9886 9.8412 15.9934C9.8344 15.9982 9.82876 16.0045 9.82468 16.0118C9.81893 16.0098 9.8128 16.0092 9.80678 16.01C9.80076 16.0108 9.795 16.013 9.78994 16.0163C9.78195 16.0221 9.77791 16.0278 9.77447 16.0327Z" fill="#62593C"/>
<path d="M9.46437 15.9743C9.46437 15.9743 9.39045 16.0321 9.37186 16.06C9.36704 16.0657 9.3583 16.0765 9.34719 16.0903C9.30493 16.1425 9.22825 16.2372 9.20087 16.261C9.21236 16.2407 9.22546 16.2214 9.24004 16.2032C9.19432 16.2325 9.16004 16.2765 9.14296 16.328C9.11692 16.4084 9.2764 16.4541 9.39538 16.4881C9.40313 16.4903 9.4107 16.4925 9.41804 16.4946C9.53813 16.5293 9.58461 16.5403 9.58461 16.5403C9.54039 16.4739 9.50244 16.4035 9.47122 16.33C9.45979 16.3028 9.44973 16.2817 9.44156 16.2646C9.41704 16.2131 9.40939 16.197 9.43191 16.1589C9.44033 16.1404 9.45029 16.124 9.45955 16.1088C9.47575 16.0822 9.48982 16.0591 9.48982 16.0341C9.47595 15.9975 9.46437 15.9743 9.46437 15.9743Z" fill="#62593C"/>
</g>
<path id="Element_3" fill-rule="evenodd" clip-rule="evenodd" d="M28.2333 14.4666C28.2333 22.0697 22.0697 28.2333 14.4666 28.2333C6.86349 28.2333 0.699951 22.0697 0.699951 14.4666C0.699951 6.86349 6.86349 0.699951 14.4666 0.699951C22.0697 0.699951 28.2333 6.86349 28.2333 14.4666ZM27.9434 14.4667C27.9434 21.9096 21.9097 27.9432 14.4668 27.9432C7.02391 27.9432 0.990229 21.9096 0.990229 14.4667C0.990229 7.02373 7.02391 0.990055 14.4668 0.990055C21.9097 0.990055 27.9434 7.02373 27.9434 14.4667Z" fill="#7A6A2A"/>
<path id="Element_4" opacity="0.8" fill-rule="evenodd" clip-rule="evenodd" d="M22.2889 10.9686C20.8506 7.25429 17.2949 6.56616 17.2949 6.56616H7.15066L7.1898 10.3495H9.21004V18.7977H7.15051V22.5742H17.0141C19.3913 22.5742 21.2969 20.1854 21.2969 20.1854C24.3484 15.8544 22.2887 10.9686 22.2887 10.9686H22.2889ZM17.0671 17.6401C17.0671 17.6401 16.2934 18.7563 15.4516 18.7563H13.7677L13.7278 10.3588H15.8888C15.8888 10.3588 16.89 10.5681 17.5895 12.5495C17.5895 12.5495 18.5169 15.3864 17.0671 17.6401Z" fill="white"/>
</g>
</svg>
