<svg width="30" height="30" viewBox="0 0 30 30" fill="none" xmlns="http://www.w3.org/2000/svg">
<g id="Ethereum Coin">
<path id="Coin" d="M28.812 18.4315C26.9142 26.0459 19.2021 30.6955 11.5737 28.7966C3.95927 26.893 -0.682875 19.1808 1.21492 11.5664C3.11271 3.95203 10.8202 -0.697591 18.4299 1.20135C26.063 3.07703 30.7051 10.8124 28.812 18.4315Z" fill="#627EEA"/>
<g id="Ethereum">
<path d="M15.1782 18.4489C15.123 18.4677 15.0915 18.4196 15.0539 18.3975C13.212 17.3105 11.3722 16.2227 9.53438 15.1341C9.51659 15.1251 9.49811 15.1176 9.47913 15.1115V15.0872L9.51173 15.0684C9.55802 15.0562 9.60359 15.0415 9.64821 15.0242L13.9886 13.0493C14.3753 12.8731 14.7621 12.6996 15.1489 12.5249H15.1766C15.1766 12.5802 15.1766 12.6294 15.1766 12.6819C15.178 14.6044 15.1786 16.5268 15.1782 18.4489Z" fill="#C0CBF7"/>
<path d="M15.181 12.5263H15.1533C15.1533 12.471 15.1589 12.4158 15.1589 12.3578C15.1589 10.1984 15.1589 8.03878 15.1589 5.87902C15.1525 5.82355 15.1562 5.76739 15.1699 5.71325H15.1815C15.4086 6.04866 15.6064 6.40229 15.8153 6.74875C17.47 9.49348 19.1238 12.2379 20.7767 14.9819C20.7927 15.0089 20.8054 15.0371 20.8198 15.0669C20.773 15.0569 20.727 15.0435 20.6822 15.0266C20.3789 14.8896 20.0744 14.7503 19.7738 14.6105C19.303 14.395 18.8321 14.1799 18.3609 13.9651L16.091 12.9368C15.7888 12.7976 15.4849 12.6622 15.181 12.5263Z" fill="#C0CBF7"/>
<path d="M15.1717 5.7104C15.1581 5.76453 15.1543 5.8207 15.1607 5.87617C15.1607 8.03556 15.1607 10.1951 15.1607 12.3549C15.1607 12.4102 15.1574 12.4654 15.1551 12.5234C14.7684 12.698 14.3816 12.8715 13.9948 13.0478L9.65443 15.0226C9.60981 15.0399 9.56424 15.0547 9.51795 15.0669C9.64338 14.806 9.80639 14.5696 9.95502 14.3198C11.6772 11.4572 13.4006 8.59512 15.1253 5.73361C15.1367 5.71775 15.1491 5.70262 15.1623 5.6883L15.1717 5.7104Z" fill="white"/>
<path d="M15.181 12.5263C15.4849 12.6622 15.7889 12.7976 16.0922 12.9347L18.3621 13.963C18.8336 14.1774 19.3046 14.3925 19.775 14.6084C20.0778 14.7471 20.3828 14.8874 20.6834 15.0244C20.7282 15.0413 20.7742 15.0548 20.821 15.0648C20.8763 15.1339 20.7945 15.1366 20.7696 15.1515C20.2983 15.4333 19.8247 15.7113 19.3523 15.9909C17.9963 16.7932 16.6407 17.5953 15.2855 18.3973C15.2512 18.4172 15.2141 18.4318 15.1782 18.4489C15.1782 16.5271 15.1783 14.6054 15.1783 12.6833C15.1788 12.6308 15.1804 12.5788 15.181 12.5263Z" fill="#8198EE"/>
<path d="M15.1588 19.5406L18.709 17.4481C19.3868 17.048 20.0642 16.6476 20.7413 16.2468L20.8026 16.2131C20.8087 16.2683 20.7706 16.2976 20.7474 16.3297C19.2002 18.5108 17.653 20.6912 16.1059 22.8709C15.813 23.2842 15.5207 23.6997 15.2251 24.1097C15.2096 24.1312 15.1859 24.2324 15.1384 24.1252C15.1759 24.0931 15.1593 24.05 15.1593 24.0146C15.1597 22.5227 15.1595 21.0314 15.1588 19.5406Z" fill="#C0CBF7"/>
<path d="M15.1585 19.5409C15.1585 21.0317 15.1585 22.5221 15.1585 24.0122C15.1585 24.0503 15.1751 24.0934 15.1375 24.1227C15.0585 24.0752 15.0242 23.9901 14.9717 23.9199C13.1778 21.3929 11.3847 18.8655 9.59257 16.3377C9.56992 16.3056 9.54892 16.2714 9.52571 16.236C9.57213 16.2089 9.59699 16.246 9.62407 16.262C11.4383 17.3332 13.2522 18.4054 15.0657 19.4784C15.0994 19.4994 15.1281 19.521 15.1585 19.5409Z" fill="white"/>
<path d="M15.1721 5.71037L15.1589 5.68992C15.1832 5.67445 15.1799 5.69711 15.1837 5.70871L15.1721 5.71037Z" fill="#393939"/>
</g>
</g>
</svg>
