<svg width="24" height="24" viewBox="0 0 24 24" fill="none" xmlns="http://www.w3.org/2000/svg">
<mask id="path-1-inside-1_4370_899" fill="white">
<path d="M11.7121 4.50016C12.6789 4.50343 13.6354 4.70396 14.5263 5.09016C15.4173 5.47636 16.2249 6.04056 16.9026 6.7501H14.6273C14.434 6.7501 14.2486 6.82911 14.112 6.96976C13.9753 7.11041 13.8985 7.30117 13.8985 7.50007C13.8985 7.69898 13.9753 7.88974 14.112 8.03039C14.2486 8.17104 14.434 8.25005 14.6273 8.25005H17.6466C18.0055 8.24985 18.3496 8.10306 18.6034 7.84192C18.8572 7.58078 18.9998 7.22665 19 6.85734V3.75018C19 3.55128 18.9232 3.36052 18.7865 3.21987C18.6499 3.07922 18.4645 3.00021 18.2712 3.00021C18.0779 3.00021 17.8926 3.07922 17.7559 3.21987C17.6192 3.36052 17.5424 3.55128 17.5424 3.75018V5.30864C16.3379 4.19226 14.8551 3.443 13.2601 3.14476C11.6652 2.84653 10.0211 3.01109 8.51188 3.62002C7.00268 4.22896 5.688 5.25822 4.71506 6.59254C3.74213 7.92687 3.14936 9.51357 3.00314 11.175C2.99372 11.2794 3.00555 11.3847 3.03787 11.4842C3.07019 11.5837 3.12229 11.6751 3.19085 11.7527C3.25942 11.8303 3.34294 11.8924 3.43609 11.935C3.52925 11.9775 3.63 11.9997 3.73192 11.9999C3.91018 12.0023 4.08286 11.9361 4.21617 11.8143C4.34948 11.6925 4.43383 11.5239 4.45269 11.3415C4.61493 9.47458 5.44965 7.73759 6.79289 6.47173C8.13612 5.20587 9.89076 4.50263 11.7121 4.50016Z"/>
</mask>
<path d="M11.7121 4.50016C12.6789 4.50343 13.6354 4.70396 14.5263 5.09016C15.4173 5.47636 16.2249 6.04056 16.9026 6.7501H14.6273C14.434 6.7501 14.2486 6.82911 14.112 6.96976C13.9753 7.11041 13.8985 7.30117 13.8985 7.50007C13.8985 7.69898 13.9753 7.88974 14.112 8.03039C14.2486 8.17104 14.434 8.25005 14.6273 8.25005H17.6466C18.0055 8.24985 18.3496 8.10306 18.6034 7.84192C18.8572 7.58078 18.9998 7.22665 19 6.85734V3.75018C19 3.55128 18.9232 3.36052 18.7865 3.21987C18.6499 3.07922 18.4645 3.00021 18.2712 3.00021C18.0779 3.00021 17.8926 3.07922 17.7559 3.21987C17.6192 3.36052 17.5424 3.55128 17.5424 3.75018V5.30864C16.3379 4.19226 14.8551 3.443 13.2601 3.14476C11.6652 2.84653 10.0211 3.01109 8.51188 3.62002C7.00268 4.22896 5.688 5.25822 4.71506 6.59254C3.74213 7.92687 3.14936 9.51357 3.00314 11.175C2.99372 11.2794 3.00555 11.3847 3.03787 11.4842C3.07019 11.5837 3.12229 11.6751 3.19085 11.7527C3.25942 11.8303 3.34294 11.8924 3.43609 11.935C3.52925 11.9775 3.63 11.9997 3.73192 11.9999C3.91018 12.0023 4.08286 11.9361 4.21617 11.8143C4.34948 11.6925 4.43383 11.5239 4.45269 11.3415C4.61493 9.47458 5.44965 7.73759 6.79289 6.47173C8.13612 5.20587 9.89076 4.50263 11.7121 4.50016Z" fill="#242628"/>
<path d="M11.7121 4.50016L11.7842 -16.833L11.7337 -16.8332L11.6832 -16.8332L11.7121 4.50016ZM16.9026 6.7501V28.0834H66.7763L32.3303 -7.98407L16.9026 6.7501ZM17.6466 8.25005V29.5834L17.6585 29.5834L17.6466 8.25005ZM19 6.85734L40.3333 6.8685V6.85734H19ZM18.2712 3.00021V-18.3331V3.00021ZM17.5424 5.30864L3.04109 20.9554L38.8758 54.1667V5.30864H17.5424ZM3.00314 11.175L24.2503 13.09L24.2524 13.0677L24.2543 13.0454L3.00314 11.175ZM3.73192 11.9999L4.01169 -9.33156L3.9012 -9.33301L3.7907 -9.33331L3.73192 11.9999ZM4.45269 11.3415L25.6729 13.536L25.6908 13.3623L25.7059 13.1884L4.45269 11.3415ZM11.6401 25.8334C9.69909 25.8268 7.79437 25.4234 6.04164 24.6636L23.011 -14.4833C19.4764 -16.0155 15.6587 -16.82 11.7842 -16.833L11.6401 25.8334ZM6.04164 24.6636C4.29042 23.9045 2.74405 22.8133 1.4748 21.4843L32.3303 -7.98407C29.7058 -10.7321 26.5441 -12.9518 23.011 -14.4833L6.04164 24.6636ZM16.9026 -14.5832H14.6273V28.0834H16.9026V-14.5832ZM14.6273 -14.5832C8.57551 -14.5832 2.89963 -12.1036 -1.1876 -7.89749L29.4115 21.837C25.5976 25.7618 20.2925 28.0834 14.6273 28.0834V-14.5832ZM-1.1876 -7.89749C-5.25463 -3.71219 -7.43484 1.83736 -7.43484 7.50007H35.2318C35.2318 12.765 33.2052 17.933 29.4115 21.837L-1.1876 -7.89749ZM-7.43484 7.50007C-7.43484 13.1628 -5.25463 18.7123 -1.1876 22.8976L29.4115 -6.83686C33.2052 -2.93286 35.2318 2.23517 35.2318 7.50007H-7.43484ZM-1.1876 22.8976C2.89963 27.1037 8.57551 29.5834 14.6273 29.5834V-13.0833C20.2925 -13.0833 25.5976 -10.7616 29.4115 -6.83686L-1.1876 22.8976ZM14.6273 29.5834H17.6466V-13.0833H14.6273V29.5834ZM17.6585 29.5834C23.8716 29.5799 29.7014 27.0329 33.9029 22.7092L3.30385 -7.02533C6.99787 -10.8268 12.1394 -13.0802 17.6348 -13.0833L17.6585 29.5834ZM33.9029 22.7092C38.0843 18.4062 40.3303 12.6978 40.3333 6.8685L-2.33333 6.84619C-2.33067 1.75549 -0.370024 -3.24463 3.30385 -7.02533L33.9029 22.7092ZM40.3333 6.85734V3.75018H-2.33333V6.85734H40.3333ZM40.3333 3.75018C40.3333 -1.91247 38.1532 -7.46204 34.0861 -11.6474L3.487 18.0871C-0.306732 14.1831 -2.33333 9.01503 -2.33333 3.75018H40.3333ZM34.0861 -11.6474C29.9988 -15.8535 24.323 -18.3331 18.2712 -18.3331V24.3335C12.606 24.3335 7.3009 22.0119 3.487 18.0871L34.0861 -11.6474ZM18.2712 -18.3331C12.2195 -18.3331 6.54359 -15.8535 2.45633 -11.6474L33.0554 18.0871C29.2415 22.0119 23.9364 24.3335 18.2712 24.3335V-18.3331ZM2.45633 -11.6474C-1.61074 -7.46204 -3.79091 -1.91247 -3.79091 3.75018H38.8758C38.8758 9.01503 36.8492 14.1831 33.0554 18.0871L2.45633 -11.6474ZM-3.79091 3.75018V5.30864H38.8758V3.75018H-3.79091ZM32.0438 -10.3382C27.9236 -14.1567 22.7854 -16.7772 17.1813 -17.8251L9.33901 24.1146C6.92478 23.6632 4.75209 22.5412 3.04109 20.9554L32.0438 -10.3382ZM17.1813 -17.8251C11.574 -18.8736 5.8003 -18.2903 0.529545 -16.1636L16.4942 23.4037C14.2419 24.3125 11.7565 24.5667 9.33901 24.1146L17.1813 -17.8251ZM0.529545 -16.1636C-4.73566 -14.0392 -9.23618 -10.4834 -12.5225 -5.97636L21.9526 19.1614C20.6122 20.9998 18.741 22.4971 16.4942 23.4037L0.529545 -16.1636ZM-12.5225 -5.97636C-15.8051 -1.4744 -17.7652 3.819 -18.248 9.30457L24.2543 13.0454C24.064 15.2081 23.2894 17.3281 21.9526 19.1614L-12.5225 -5.97636ZM-18.2441 9.2599C-18.5116 12.228 -18.177 15.2276 -17.2514 18.0762L23.3272 4.89219C24.1881 7.54182 24.499 10.3308 24.2503 13.09L-18.2441 9.2599ZM-17.2514 18.0762C-16.3256 20.9258 -14.8201 23.5871 -12.7973 25.8768L19.1791 -2.3713C21.0647 -0.236807 22.466 2.24157 23.3272 4.89219L-17.2514 18.0762ZM-12.7973 25.8768C-10.7731 28.1682 -8.27122 30.0406 -5.42925 31.339L12.3014 -7.46907C14.9571 -6.25575 17.292 -4.50746 19.1791 -2.3713L-12.7973 25.8768ZM-5.42925 31.339C-2.5854 32.6383 0.516567 33.3245 3.67315 33.3332L3.7907 -9.33331C6.74343 -9.32518 9.6439 -8.68325 12.3014 -7.46907L-5.42925 31.339ZM3.45216 33.3314C9.12896 33.4059 14.5266 31.2905 18.6052 27.5644L-10.1728 -3.93587C-6.36092 -7.41837 -1.30861 -9.40134 4.01169 -9.33156L3.45216 33.3314ZM18.6052 27.5644C22.6666 23.854 25.1252 18.8319 25.6729 13.536L-16.7675 9.14696C-16.2575 4.21589 -13.9676 -0.46905 -10.1728 -3.93587L18.6052 27.5644ZM25.7059 13.1884C25.4224 16.4514 23.9562 19.6109 21.4241 21.9972L-7.8383 -9.05372C-13.0569 -4.13571 -16.1925 2.4978 -16.8005 9.49449L25.7059 13.1884ZM21.4241 21.9972C18.875 24.3994 15.429 25.8285 11.7411 25.8335L11.6832 -16.8332C4.35252 -16.8232 -2.60275 -13.9877 -7.8383 -9.05372L21.4241 21.9972Z" fill="#242628" mask="url(#path-1-inside-1_4370_899)"/>
<mask id="path-3-inside-2_4370_899" fill="white">
<path d="M20.2688 12.0001C20.0906 11.9977 19.9179 12.0639 19.7846 12.1857C19.6512 12.3075 19.5669 12.4761 19.548 12.6585C19.4276 14.0859 18.9117 15.4478 18.0618 16.5826C17.2118 17.7174 16.0634 18.5774 14.7527 19.0608C13.4421 19.5441 12.0242 19.6304 10.6673 19.3094C9.31041 18.9884 8.07147 18.2737 7.09745 17.2499H9.37272C9.566 17.2499 9.75137 17.1709 9.88805 17.0302C10.0247 16.8896 10.1015 16.6988 10.1015 16.4999C10.1015 16.301 10.0247 16.1103 9.88805 15.9696C9.75137 15.829 9.566 15.7499 9.37272 15.7499H6.35336C6.1756 15.7499 5.99958 15.7858 5.83534 15.8558C5.6711 15.9257 5.52187 16.0283 5.39618 16.1576C5.27049 16.287 5.1708 16.4406 5.10282 16.6096C5.03484 16.7786 4.9999 16.9597 5 17.1427V20.2498C5 20.4487 5.07678 20.6395 5.21346 20.7801C5.35013 20.9208 5.5355 20.9998 5.72879 20.9998C5.92207 20.9998 6.10744 20.9208 6.24412 20.7801C6.38079 20.6395 6.45757 20.4487 6.45757 20.2498V18.6914C7.66213 19.8077 9.14491 20.557 10.7399 20.8552C12.3348 21.1535 13.9789 20.9889 15.4881 20.38C16.9973 19.771 18.312 18.7418 19.2849 17.4075C20.2579 16.0731 20.8506 14.4864 20.9969 12.825C21.0063 12.7206 20.9944 12.6153 20.9621 12.5158C20.9298 12.4163 20.8777 12.3249 20.8091 12.2473C20.7406 12.1697 20.6571 12.1076 20.5639 12.065C20.4707 12.0225 20.3707 12.0003 20.2688 12.0001Z"/>
</mask>
<path d="M20.2688 12.0001C20.0906 11.9977 19.9179 12.0639 19.7846 12.1857C19.6512 12.3075 19.5669 12.4761 19.548 12.6585C19.4276 14.0859 18.9117 15.4478 18.0618 16.5826C17.2118 17.7174 16.0634 18.5774 14.7527 19.0608C13.4421 19.5441 12.0242 19.6304 10.6673 19.3094C9.31041 18.9884 8.07147 18.2737 7.09745 17.2499H9.37272C9.566 17.2499 9.75137 17.1709 9.88805 17.0302C10.0247 16.8896 10.1015 16.6988 10.1015 16.4999C10.1015 16.301 10.0247 16.1103 9.88805 15.9696C9.75137 15.829 9.566 15.7499 9.37272 15.7499H6.35336C6.1756 15.7499 5.99958 15.7858 5.83534 15.8558C5.6711 15.9257 5.52187 16.0283 5.39618 16.1576C5.27049 16.287 5.1708 16.4406 5.10282 16.6096C5.03484 16.7786 4.9999 16.9597 5 17.1427V20.2498C5 20.4487 5.07678 20.6395 5.21346 20.7801C5.35013 20.9208 5.5355 20.9998 5.72879 20.9998C5.92207 20.9998 6.10744 20.9208 6.24412 20.7801C6.38079 20.6395 6.45757 20.4487 6.45757 20.2498V18.6914C7.66213 19.8077 9.14491 20.557 10.7399 20.8552C12.3348 21.1535 13.9789 20.9889 15.4881 20.38C16.9973 19.771 18.312 18.7418 19.2849 17.4075C20.2579 16.0731 20.8506 14.4864 20.9969 12.825C21.0063 12.7206 20.9944 12.6153 20.9621 12.5158C20.9298 12.4163 20.8777 12.3249 20.8091 12.2473C20.7406 12.1697 20.6571 12.1076 20.5639 12.065C20.4707 12.0225 20.3707 12.0003 20.2688 12.0001Z" fill="#242628"/>
<path d="M20.2688 12.0001L19.989 33.3316L20.0995 33.333L20.21 33.3333L20.2688 12.0001ZM19.548 12.6585L-1.67213 10.464L-1.69281 10.664L-1.70972 10.8643L19.548 12.6585ZM7.09745 17.2499V-4.08343H-42.6451L-8.35838 31.9546L7.09745 17.2499ZM6.35336 15.7499L6.34152 37.0833H6.35336V15.7499ZM5 17.1427H26.3333L26.3333 17.1315L5 17.1427ZM5 20.2498H-16.3333H5ZM6.45757 20.2498H27.7909H6.45757ZM6.45757 18.6914L20.9589 3.04456L-14.8758 -30.1667V18.6914H6.45757ZM20.9969 12.825L-0.250341 10.91L-0.252355 10.9323L-0.254321 10.9546L20.9969 12.825ZM20.5486 -9.33144C14.8718 -9.40589 9.4741 -7.29052 5.39554 -3.56443L34.1736 27.9359C30.3616 31.4184 25.3093 33.4013 19.989 33.3316L20.5486 -9.33144ZM5.39554 -3.56443C1.33412 0.145992 -1.12445 5.16816 -1.67213 10.464L40.7682 14.853C40.2583 19.7841 37.9684 24.469 34.1736 27.9359L5.39554 -3.56443ZM-1.70972 10.8643C-1.49756 8.35074 -0.586365 5.89401 0.986977 3.79344L35.1366 29.3717C38.4099 25.0016 40.3527 19.8211 40.8058 14.4527L-1.70972 10.8643ZM0.986977 3.79344C2.56461 1.68713 4.76099 0.00772572 7.37159 -0.954976L22.1339 39.0765C27.3658 37.1471 31.859 33.7476 35.1366 29.3717L0.986977 3.79344ZM7.37159 -0.954976C9.98814 -1.91988 12.8455 -2.09741 15.5782 -1.45098L5.75641 40.0698C11.2029 41.3582 16.896 41.0081 22.1339 39.0765L7.37159 -0.954976ZM15.5782 -1.45098C18.3065 -0.805604 20.715 0.612999 22.5533 2.54519L-8.35838 31.9546C-4.57205 35.9344 0.314337 38.7825 5.75641 40.0698L15.5782 -1.45098ZM7.09745 38.5832H9.37272V-4.08343H7.09745V38.5832ZM9.37272 38.5832C15.4244 38.5832 21.1003 36.1036 25.1876 31.8975L-5.4115 2.163C-1.59758 -1.76182 3.70757 -4.08343 9.37272 -4.08343V38.5832ZM25.1876 31.8975C29.2546 27.7122 31.4348 22.1626 31.4348 16.4999H-11.2318C-11.2318 11.235 -9.2052 6.06701 -5.4115 2.163L25.1876 31.8975ZM31.4348 16.4999C31.4348 10.8372 29.2546 5.28768 25.1876 1.10237L-5.4115 30.8369C-9.2052 26.9328 -11.2318 21.7648 -11.2318 16.4999H31.4348ZM25.1876 1.10237C21.1003 -3.10375 15.4244 -5.58339 9.37272 -5.58339V37.0833C3.70757 37.0833 -1.59758 34.7617 -5.4115 30.8369L25.1876 1.10237ZM9.37272 -5.58339H6.35336V37.0833H9.37272V-5.58339ZM6.36519 -5.58338C3.29762 -5.58508 0.274926 -4.96374 -2.52451 -3.77137L14.1952 35.4829C11.7242 36.5354 9.05359 37.0848 6.34152 37.0833L6.36519 -5.58338ZM-2.52451 -3.77137C-5.32249 -2.57961 -7.8243 -0.849127 -9.90337 1.2904L20.6957 31.0249C18.868 32.9057 16.6647 34.431 14.1952 35.4829L-2.52451 -3.77137ZM-9.90337 1.2904C-11.9812 3.42863 -13.5978 5.93432 -14.6896 8.649L24.8953 24.5701C23.9394 26.9468 22.5222 29.1453 20.6957 31.0249L-9.90337 1.2904ZM-14.6896 8.649C-15.7811 11.3628 -16.3349 14.251 -16.3333 17.1538L26.3333 17.1315C26.3347 19.6685 25.8508 22.1944 24.8953 24.5701L-14.6896 8.649ZM-16.3333 17.1427V20.2498H26.3333V17.1427H-16.3333ZM-16.3333 20.2498C-16.3333 25.9125 -14.1532 31.4621 -10.0861 35.6474L20.513 5.91289C24.3067 9.81691 26.3333 14.9849 26.3333 20.2498H-16.3333ZM-10.0861 35.6474C-5.99882 39.8535 -0.322929 42.3331 5.72879 42.3331V-0.333541C11.3939 -0.333541 16.6991 1.98806 20.513 5.91289L-10.0861 35.6474ZM5.72879 42.3331C11.7805 42.3331 17.4564 39.8535 21.5437 35.6474L-9.05543 5.91289C-5.24151 1.98806 0.0636439 -0.333541 5.72879 -0.333541V42.3331ZM21.5437 35.6474C25.6107 31.4621 27.7909 25.9125 27.7909 20.2498H-14.8758C-14.8758 14.9849 -12.8491 9.81691 -9.05543 5.91289L21.5437 35.6474ZM27.7909 20.2498V18.6914H-14.8758V20.2498H27.7909ZM-8.04377 34.3382C-3.92364 38.1567 1.2146 40.7772 6.81871 41.8251L14.661 -0.114643C17.0752 0.336791 19.2479 1.45882 20.9589 3.04456L-8.04377 34.3382ZM6.81871 41.8251C12.4261 42.8736 18.1997 42.2903 23.4705 40.1636L7.50579 0.596308C9.75814 -0.312471 12.2435 -0.566681 14.661 -0.114643L6.81871 41.8251ZM23.4705 40.1636C28.7357 38.0392 33.2362 34.4834 36.5225 29.9764L2.04736 4.83855C3.38783 3.00018 5.25898 1.50285 7.50579 0.596308L23.4705 40.1636ZM36.5225 29.9764C39.8051 25.4744 41.7652 20.181 42.248 14.6954L-0.254321 10.9546C-0.0639653 8.79185 0.710596 6.67186 2.04736 4.83855L36.5225 29.9764ZM42.2441 14.7401C42.5116 11.7718 42.1769 8.77223 41.2514 5.9238L0.672802 19.1078C-0.188012 16.4583 -0.499053 13.6694 -0.250341 10.91L42.2441 14.7401ZM41.2514 5.9238C40.3256 3.07425 38.8201 0.412956 36.7973 -1.87677L4.82094 26.3713C2.93531 24.2368 1.53398 21.7584 0.672802 19.1078L41.2514 5.9238ZM36.7973 -1.87677C34.7732 -4.16809 32.2713 -6.04053 29.4292 -7.33901L11.6986 31.4691C9.04282 30.2557 6.70797 28.5074 4.82094 26.3713L36.7973 -1.87677ZM29.4292 -7.33901C26.6059 -8.62894 23.5065 -9.32443 20.3276 -9.33319L20.21 33.3333C17.2349 33.3251 14.3356 32.6739 11.6986 31.4691L29.4292 -7.33901Z" fill="#242628" mask="url(#path-3-inside-2_4370_899)"/>
</svg>
